{"glyphs":{"0":{"ha":842,"x_min":56,"x_max":786,"o":"m 696 112 q 651 49 696 112 q 421 -14 606 -14 q 146 112 236 -14 q 56 463 56 238 q 146 813 56 688 q 421 939 236 939 q 696 813 606 939 q 786 463 786 688 q 696 112 786 238 m 269 208 q 291 164 269 208 q 421 121 313 121 q 573 208 529 121 q 617 463 617 294 q 573 717 617 631 q 421 803 529 803 q 269 717 313 803 q 225 463 225 631 q 269 208 225 294 z "},"1":{"ha":504,"x_min":18,"x_max":401,"o":"m 232 0 l 232 769 l 39 736 l 18 876 l 258 925 l 401 925 l 401 0 l 232 0 z "},"2":{"ha":746,"x_min":49,"x_max":699,"o":"m 49 0 l 49 82 q 63 198 49 146 q 97 285 78 250 q 158 355 117 319 q 229 410 199 390 q 317 464 260 431 q 390 507 369 494 q 445 544 410 519 q 493 586 481 569 q 517 628 506 603 q 529 681 529 653 q 358 803 529 803 q 126 739 243 803 l 88 869 q 379 939 219 939 q 615 875 531 939 q 699 686 699 811 q 681 596 699 639 q 644 525 664 553 q 578 460 624 497 q 508 408 532 424 q 426 356 485 393 q 388 332 422 353 q 346 305 354 311 q 310 279 338 299 q 274 249 283 260 q 249 218 265 238 q 228 181 233 199 q 224 142 224 163 l 224 136 l 682 136 l 682 0 l 49 0 z "},"3":{"ha":714,"x_min":40,"x_max":660,"o":"m 40 53 l 79 178 q 311 122 207 122 q 444 158 399 122 q 490 260 490 194 q 437 363 490 326 q 288 400 383 400 l 146 400 l 146 536 l 283 536 q 476 679 476 536 q 434 771 476 739 q 318 803 392 803 q 107 744 217 803 l 65 868 q 346 939 199 939 q 567 877 489 939 q 646 707 646 815 q 604 564 646 626 q 485 471 563 501 q 660 253 660 419 q 568 58 660 129 q 325 -14 476 -14 q 40 53 174 -14 z "},"4":{"ha":793,"x_min":39,"x_max":768,"o":"m 39 221 l 39 360 l 468 925 l 650 925 l 650 354 l 768 354 l 768 221 l 650 221 l 650 0 l 486 0 l 486 221 l 39 221 m 199 354 l 486 354 l 486 743 l 199 354 z "},"5":{"ha":778,"x_min":69,"x_max":728,"o":"m 69 64 l 111 188 q 365 121 254 121 q 508 166 457 121 q 558 290 558 211 q 515 410 558 368 q 392 453 472 453 q 236 397 308 453 l 99 442 l 99 925 l 674 925 l 674 789 l 267 789 l 267 549 q 436 590 335 590 q 650 510 572 590 q 728 294 728 429 q 631 74 728 161 q 372 -14 535 -14 q 216 8 301 -14 q 69 64 131 29 z "},"6":{"ha":782,"x_min":56,"x_max":738,"o":"m 56 413 q 77 618 56 526 q 144 783 99 710 q 268 898 189 857 q 456 939 347 939 q 707 882 601 939 l 671 751 q 469 803 563 803 q 226 472 233 803 q 454 586 304 586 q 662 509 586 586 q 738 301 738 432 q 645 78 738 169 q 401 -14 553 -14 q 143 101 231 -14 q 56 413 56 215 m 233 288 q 278 164 233 213 q 404 115 322 115 q 528 165 483 115 q 574 290 574 215 q 530 409 574 365 q 410 453 486 453 q 281 407 329 453 q 233 288 233 361 z "},"7":{"ha":669,"x_min":39,"x_max":640,"o":"m 108 0 l 474 789 l 39 789 l 39 925 l 640 925 l 640 785 l 285 0 l 108 0 z "},"8":{"ha":799,"x_min":61,"x_max":739,"o":"m 61 257 q 225 485 61 419 q 94 694 94 556 q 178 872 94 806 q 400 939 261 939 q 622 872 539 939 q 704 694 704 806 q 574 485 704 554 q 739 257 739 419 q 647 64 739 142 q 400 -14 554 -14 q 153 64 246 -14 q 61 257 61 142 m 292 576 q 312 556 292 576 q 400 536 332 536 q 508 575 468 536 q 547 676 547 614 q 508 773 547 736 q 400 810 469 810 q 290 773 329 810 q 251 676 251 736 q 292 576 251 615 m 228 269 q 274 156 228 197 q 400 115 321 115 q 524 156 478 115 q 571 269 571 197 q 526 371 571 329 q 400 413 482 413 q 272 371 317 413 q 228 269 228 329 z "},"9":{"ha":782,"x_min":44,"x_max":725,"o":"m 74 43 l 110 174 q 315 122 218 122 q 498 209 443 122 q 556 453 553 296 q 328 339 476 339 q 119 415 194 339 q 44 624 44 492 q 133 849 44 758 q 379 939 221 939 q 638 824 551 939 q 725 513 725 710 q 703 307 725 399 q 637 142 682 215 q 513 27 592 68 q 325 -14 433 -14 q 74 43 182 -14 m 372 472 q 500 518 451 472 q 549 638 549 564 q 503 762 549 713 q 376 811 458 811 q 253 762 297 811 q 208 635 208 713 q 252 516 208 560 q 372 472 296 472 z "}," ":{"ha":306,"x_min":0,"x_max":0,"o":""},"!":{"ha":369,"x_min":82,"x_max":289,"o":"m 138 274 l 96 579 l 96 925 l 275 925 l 275 579 l 232 274 l 138 274 m 110 17 q 96 32 110 17 q 82 92 82 46 q 110 166 82 138 q 185 194 139 194 q 260 166 231 194 q 289 92 289 138 q 260 17 289 46 q 185 -11 231 -11 q 110 17 139 -11 z "},"\"":{"ha":619,"x_min":79,"x_max":540,"o":"m 390 553 l 374 763 l 374 925 l 540 925 l 540 763 l 525 553 l 390 553 m 94 553 l 79 763 l 79 925 l 246 925 l 246 763 l 229 553 l 94 553 z "},"#":{"ha":914,"x_min":49,"x_max":881,"o":"m 131 0 l 186 254 l 49 254 l 74 368 l 211 368 l 257 575 l 117 575 l 142 689 l 281 689 l 333 925 l 463 925 l 411 689 l 622 689 l 675 925 l 804 925 l 751 689 l 881 689 l 856 575 l 728 575 l 683 368 l 811 368 l 786 254 l 657 254 l 601 0 l 472 0 l 528 254 l 317 254 l 260 0 l 131 0 m 342 368 l 553 368 l 599 575 l 386 575 l 342 368 z "},"$":{"ha":740,"x_min":60,"x_max":688,"o":"m 63 65 l 100 197 q 367 133 243 133 q 481 163 440 133 q 521 247 521 192 q 483 331 521 301 q 347 390 446 360 q 128 494 196 438 q 60 665 60 551 q 293 921 60 886 l 293 1099 l 460 1099 l 460 924 q 660 867 575 910 l 626 735 q 376 793 486 793 q 226 682 226 793 q 265 607 226 631 q 415 544 303 583 q 519 505 479 524 q 602 454 558 486 q 667 375 646 422 q 688 264 688 328 q 626 93 688 161 q 456 6 564 25 l 456 -174 l 289 -174 l 289 1 q 63 65 169 17 z "},"%":{"ha":1183,"x_min":49,"x_max":1142,"o":"m 449 506 q 419 471 449 506 q 278 436 389 436 q 108 506 167 436 q 49 688 49 575 q 108 869 49 800 q 278 939 167 939 q 449 869 389 939 q 508 688 508 800 q 449 506 508 575 m 297 0 l 747 925 l 893 925 l 443 0 l 297 0 m 278 540 q 378 688 378 540 q 278 833 378 833 q 179 688 179 833 q 278 540 179 540 m 740 56 q 710 91 740 56 q 681 238 681 126 q 740 419 681 349 q 911 489 800 489 q 1082 419 1022 489 q 1142 238 1142 350 q 1082 56 1142 125 q 911 -14 1022 -14 q 740 56 800 -14 m 813 238 q 911 92 813 92 q 1011 238 1011 92 q 911 385 1011 385 q 813 238 813 385 z "},"&":{"ha":889,"x_min":49,"x_max":853,"o":"m 49 225 q 91 372 49 314 q 221 494 133 429 q 104 725 104 624 q 174 881 104 822 q 363 939 243 939 q 532 886 468 939 q 596 751 596 833 q 555 622 596 679 q 424 490 514 565 l 603 285 q 692 522 663 388 l 822 490 q 692 183 779 306 l 853 0 l 660 0 l 590 78 q 326 -14 476 -14 q 127 49 206 -14 q 49 225 49 113 m 356 110 q 510 168 444 110 l 308 396 q 237 319 260 354 q 214 235 214 283 q 253 144 214 179 q 356 110 292 110 m 257 728 q 271 674 257 701 q 299 630 285 646 q 340 585 313 614 q 427 664 399 629 q 456 739 456 699 q 430 799 456 776 q 361 822 404 822 q 257 728 257 822 z "},"'":{"ha":325,"x_min":79,"x_max":246,"o":"m 94 553 l 79 763 l 79 925 l 246 925 l 246 763 l 229 553 l 94 553 z "},"(":{"ha":424,"x_min":69,"x_max":396,"o":"m 274 -222 q 118 90 167 -54 q 69 408 69 235 q 118 726 69 582 q 274 1039 167 871 l 396 964 q 276 681 314 807 q 239 408 239 554 q 276 136 239 263 q 396 -147 314 10 l 274 -222 z "},")":{"ha":424,"x_min":28,"x_max":354,"o":"m 28 -147 q 147 136 110 10 q 185 408 185 263 q 147 681 185 554 q 28 964 110 807 l 149 1039 q 306 726 257 871 q 354 408 354 582 q 306 90 354 235 q 149 -222 257 -54 l 28 -147 z "},"*":{"ha":579,"x_min":47,"x_max":532,"o":"m 225 439 l 267 640 l 111 503 l 47 614 l 242 682 l 47 749 l 111 861 l 267 722 l 225 925 l 354 925 l 313 722 l 467 861 l 532 749 l 336 682 l 532 614 l 467 503 l 313 640 l 354 439 l 225 439 z "},"+":{"ha":758,"x_min":67,"x_max":692,"o":"m 301 121 l 301 378 l 67 378 l 67 519 l 301 519 l 301 776 l 457 776 l 457 519 l 692 519 l 692 378 l 457 378 l 457 121 l 301 121 z "},",":{"ha":401,"x_min":36,"x_max":328,"o":"m 121 186 l 328 186 l 169 -203 l 36 -203 l 121 186 z "},"-":{"ha":507,"x_min":75,"x_max":433,"o":"m 75 324 l 75 469 l 433 469 l 433 324 l 75 324 z "},".":{"ha":372,"x_min":83,"x_max":289,"o":"m 112 17 q 98 32 112 17 q 83 92 83 46 q 112 166 83 138 q 186 194 140 194 q 260 166 232 194 q 289 92 289 138 q 260 17 289 46 q 186 -11 232 -11 q 112 17 140 -11 z "},"/":{"ha":642,"x_min":56,"x_max":594,"o":"m 56 -139 l 431 939 l 594 939 l 218 -139 l 56 -139 z "},":":{"ha":369,"x_min":82,"x_max":289,"o":"m 260 417 q 245 403 260 417 q 185 389 231 389 q 110 417 139 389 q 82 492 82 446 q 110 565 82 536 q 185 593 139 593 q 260 565 231 593 q 289 492 289 536 q 260 417 289 446 m 110 17 q 96 32 110 17 q 82 92 82 46 q 110 166 82 138 q 185 194 139 194 q 260 166 231 194 q 289 92 289 138 q 260 17 289 46 q 185 -11 231 -11 q 110 17 139 -11 z "},";":{"ha":410,"x_min":36,"x_max":335,"o":"m 304 410 q 289 395 304 410 q 226 381 274 381 q 149 410 179 381 q 119 488 119 440 q 149 565 119 535 q 226 594 179 594 q 305 565 275 594 q 335 488 335 535 q 304 410 335 440 m 122 186 l 324 186 l 168 -203 l 36 -203 l 122 186 z "},"<":{"ha":760,"x_min":64,"x_max":689,"o":"m 64 383 l 64 514 l 689 776 l 689 625 l 246 449 l 689 272 l 689 121 l 64 383 z "},"=":{"ha":758,"x_min":67,"x_max":692,"o":"m 67 531 l 67 672 l 692 672 l 692 531 l 67 531 m 67 225 l 67 367 l 692 367 l 692 225 l 67 225 z "},">":{"ha":760,"x_min":71,"x_max":696,"o":"m 71 121 l 71 272 l 514 449 l 71 625 l 71 776 l 696 514 l 696 383 l 71 121 z "},"?":{"ha":646,"x_min":56,"x_max":597,"o":"m 182 268 l 182 326 q 210 456 182 408 q 306 558 239 504 q 331 579 313 564 q 356 599 350 594 q 376 616 363 604 q 395 634 390 628 q 408 651 400 640 q 419 669 417 661 q 425 689 422 678 q 428 713 428 700 q 292 803 428 803 q 83 753 203 803 l 56 881 q 313 939 165 939 q 522 883 446 939 q 597 719 597 828 q 559 586 597 639 q 431 461 521 533 q 355 386 376 417 q 333 303 333 356 l 333 268 l 182 268 m 184 17 q 170 32 184 17 q 156 92 156 46 q 184 166 156 138 q 258 194 213 194 q 334 166 306 194 q 363 92 363 138 q 334 17 363 46 q 258 -11 306 -11 q 184 17 213 -11 z "},"@":{"ha":1085,"x_min":49,"x_max":1043,"o":"m 49 361 q 196 751 49 597 q 588 904 343 904 q 920 791 797 904 q 1043 503 1043 678 q 973 273 1043 365 q 781 181 903 181 q 663 217 710 181 q 614 311 617 253 q 451 181 557 181 q 359 224 392 181 q 326 333 326 268 q 393 553 326 468 q 588 638 460 638 q 763 597 685 638 l 725 386 q 721 346 721 364 q 792 268 721 268 q 894 335 858 268 q 931 497 931 401 q 835 727 931 643 q 583 811 739 811 q 281 685 401 811 q 160 367 160 558 q 261 85 160 188 q 554 -18 363 -18 q 890 63 732 -18 l 921 -24 q 540 -111 750 -111 q 179 22 310 -111 q 49 361 49 154 m 496 279 q 615 478 579 279 l 625 533 q 583 542 606 542 q 485 487 518 542 q 451 347 451 432 q 496 279 451 279 z "},"A":{"ha":896,"x_min":13,"x_max":883,"o":"m 13 0 l 351 925 l 544 925 l 883 0 l 707 0 l 633 218 l 263 218 l 189 0 l 13 0 m 449 769 l 311 364 l 585 364 l 449 769 z "},"B":{"ha":851,"x_min":97,"x_max":804,"o":"m 97 0 l 97 925 l 508 925 q 705 865 635 925 q 775 700 775 806 q 610 474 775 532 q 752 399 700 456 q 804 253 804 343 q 723 70 804 140 q 508 0 642 0 l 97 0 m 268 533 l 460 533 q 566 572 529 533 q 603 669 603 611 q 567 758 603 726 q 461 789 531 789 l 268 789 l 268 533 m 268 136 l 486 136 q 596 172 558 136 q 633 269 633 208 q 592 363 633 329 q 475 397 551 397 l 268 397 l 268 136 z "},"C":{"ha":815,"x_min":49,"x_max":772,"o":"m 174 112 q 111 176 174 112 q 49 463 49 240 q 174 813 49 685 q 508 942 299 942 q 772 890 664 942 l 746 753 q 546 792 646 792 q 306 708 389 792 q 222 463 222 624 q 306 217 222 301 q 546 133 389 133 q 746 172 646 133 l 772 35 q 508 -17 664 -17 q 174 112 299 -17 z "},"D":{"ha":946,"x_min":100,"x_max":901,"o":"m 100 0 l 100 925 l 447 925 q 776 797 651 925 q 901 463 901 669 q 776 128 901 256 q 447 0 651 0 l 100 0 m 274 149 l 439 149 q 647 230 565 149 q 728 463 728 311 q 647 695 728 614 q 439 776 565 776 l 274 776 l 274 149 z "},"E":{"ha":783,"x_min":97,"x_max":719,"o":"m 97 0 l 97 925 l 719 925 l 719 775 l 271 775 l 271 550 l 690 550 l 690 400 l 271 400 l 271 150 l 719 150 l 719 0 l 97 0 z "},"F":{"ha":746,"x_min":97,"x_max":714,"o":"m 97 0 l 97 925 l 714 925 l 714 775 l 271 775 l 271 519 l 685 519 l 685 368 l 271 368 l 271 0 l 97 0 z "},"G":{"ha":917,"x_min":49,"x_max":838,"o":"m 49 457 q 177 811 49 681 q 542 942 306 942 q 838 886 704 942 l 811 746 q 557 793 681 793 q 307 706 392 793 q 222 456 222 618 q 303 210 222 294 q 539 125 385 125 q 672 138 618 125 l 672 428 l 836 428 l 836 28 q 538 -17 718 -17 q 174 115 299 -17 q 49 457 49 247 z "},"H":{"ha":947,"x_min":97,"x_max":850,"o":"m 97 0 l 97 925 l 271 925 l 271 546 l 676 546 l 676 925 l 850 925 l 850 0 l 676 0 l 676 392 l 271 392 l 271 0 l 97 0 z "},"I":{"ha":382,"x_min":104,"x_max":278,"o":"m 104 0 l 104 925 l 278 925 l 278 0 l 104 0 z "},"J":{"ha":538,"x_min":22,"x_max":442,"o":"m 22 14 l 42 147 q 157 132 99 132 q 242 158 217 132 q 268 239 268 183 l 268 925 l 442 925 l 442 240 q 378 53 442 121 q 194 -14 314 -14 q 22 14 103 -14 z "},"K":{"ha":865,"x_min":97,"x_max":849,"o":"m 97 0 l 97 925 l 271 925 l 271 508 l 619 925 l 843 925 l 446 474 l 849 0 l 625 0 l 271 439 l 271 0 l 97 0 z "},"L":{"ha":725,"x_min":97,"x_max":693,"o":"m 97 0 l 97 925 l 271 925 l 271 150 l 693 150 l 693 0 l 97 0 z "},"M":{"ha":1143,"x_min":96,"x_max":1047,"o":"m 96 0 l 96 925 l 271 925 l 572 286 l 874 925 l 1047 925 l 1047 0 l 879 0 l 879 586 l 657 117 l 486 117 l 264 586 l 264 0 l 96 0 z "},"N":{"ha":982,"x_min":97,"x_max":885,"o":"m 97 0 l 97 925 l 269 925 l 715 288 l 715 925 l 885 925 l 885 0 l 713 0 l 265 638 l 265 0 l 97 0 z "},"O":{"ha":967,"x_min":49,"x_max":918,"o":"m 160 116 q 104 182 160 116 q 49 463 49 249 q 160 809 49 676 q 483 942 271 942 q 807 809 696 942 q 918 463 918 676 q 807 116 918 249 q 483 -17 696 -17 q 160 116 271 -17 m 483 132 q 679 221 614 132 q 744 463 744 310 q 679 704 744 615 q 483 793 614 793 q 287 704 351 793 q 222 463 222 615 q 287 221 222 310 q 483 132 351 132 z "},"P":{"ha":835,"x_min":97,"x_max":804,"o":"m 97 0 l 97 925 l 499 925 q 722 842 639 925 q 804 632 804 760 q 719 421 804 506 q 499 336 635 336 l 271 336 l 271 0 l 97 0 m 271 476 l 476 476 q 589 518 547 476 q 631 632 631 560 q 588 744 631 704 q 475 785 546 785 l 271 785 l 271 476 z "},"Q":{"ha":967,"x_min":49,"x_max":918,"o":"m 744 -151 l 646 8 q 483 -17 575 -17 q 160 116 271 -17 q 49 463 49 249 q 160 809 49 676 q 483 942 271 942 q 807 809 696 942 q 918 463 918 676 q 771 79 918 208 l 867 -78 l 744 -151 m 744 463 q 679 704 744 615 q 483 793 614 793 q 287 704 351 793 q 222 463 222 615 q 287 221 222 310 q 483 132 351 132 q 572 144 533 132 l 501 264 l 615 335 l 682 225 q 744 463 744 307 z "},"R":{"ha":917,"x_min":97,"x_max":882,"o":"m 826 636 q 774 468 826 542 q 633 364 722 394 l 882 0 l 664 0 l 443 346 l 271 346 l 271 0 l 97 0 l 97 925 l 521 925 q 745 847 664 925 q 826 636 826 768 m 653 636 q 610 745 653 706 q 494 785 567 785 l 271 785 l 271 483 l 494 483 q 610 524 567 483 q 653 636 653 564 z "},"S":{"ha":786,"x_min":53,"x_max":742,"o":"m 742 264 q 648 58 742 132 q 386 -17 554 -17 q 56 51 218 -17 l 93 192 q 385 126 249 126 q 567 244 567 126 q 524 334 567 306 q 364 388 481 363 q 128 485 204 421 q 53 667 53 549 q 397 942 53 942 q 708 878 569 942 l 676 739 q 400 800 538 800 q 269 774 311 800 q 226 685 226 749 q 269 603 226 629 q 432 547 311 578 q 669 448 596 507 q 742 264 742 389 z "},"T":{"ha":765,"x_min":31,"x_max":736,"o":"m 736 775 l 469 775 l 469 0 l 296 0 l 296 775 l 31 775 l 31 925 l 736 925 l 736 775 z "},"U":{"ha":949,"x_min":94,"x_max":856,"o":"m 856 925 l 856 343 q 757 86 856 189 q 475 -17 658 -17 q 193 85 292 -17 q 94 343 94 188 l 94 925 l 268 925 l 268 333 q 324 185 268 238 q 475 132 379 132 q 625 185 569 132 q 681 333 681 238 l 681 925 l 856 925 z "},"V":{"ha":824,"x_min":10,"x_max":814,"o":"m 311 0 l 10 925 l 192 925 l 413 197 l 632 925 l 814 925 l 513 0 l 311 0 z "},"W":{"ha":1219,"x_min":7,"x_max":1211,"o":"m 707 925 l 888 282 l 1036 925 l 1211 925 l 969 0 l 807 0 l 611 735 l 413 0 l 250 0 l 7 925 l 182 925 l 332 282 l 514 925 l 707 925 z "},"X":{"ha":824,"x_min":15,"x_max":808,"o":"m 797 925 l 503 471 l 808 0 l 618 0 l 411 328 l 206 0 l 15 0 l 319 471 l 26 925 l 215 925 l 411 613 l 608 925 l 797 925 z "},"Y":{"ha":776,"x_min":3,"x_max":774,"o":"m 774 925 l 475 365 l 475 0 l 301 0 l 301 365 l 3 925 l 186 925 l 388 518 l 590 925 l 774 925 z "},"Z":{"ha":804,"x_min":67,"x_max":744,"o":"m 744 0 l 67 0 l 67 154 l 531 775 l 81 775 l 81 925 l 731 925 l 731 771 l 267 150 l 744 150 l 744 0 z "},"[":{"ha":451,"x_min":104,"x_max":415,"o":"m 415 -208 l 104 -208 l 104 1025 l 415 1025 l 415 879 l 274 879 l 274 -62 l 415 -62 l 415 -208 z "},"\\":{"ha":642,"x_min":49,"x_max":588,"o":"m 424 -139 l 49 939 l 211 939 l 588 -139 l 424 -139 z "},"]":{"ha":451,"x_min":36,"x_max":347,"o":"m 347 -208 l 36 -208 l 36 -62 l 178 -62 l 178 879 l 36 879 l 36 1025 l 347 1025 l 347 -208 z "},"^":{"ha":676,"x_min":42,"x_max":635,"o":"m 418 925 l 635 468 l 481 468 l 339 789 l 196 468 l 42 468 l 260 925 l 418 925 z "},"_":{"ha":596,"x_min":-1,"x_max":597,"o":"m 597 -181 l -1 -181 l -1 -97 l 597 -97 l 597 -181 z "},"`":{"ha":485,"x_min":97,"x_max":388,"o":"m 224 758 l 97 969 l 313 969 l 388 758 l 224 758 z "},"a":{"ha":735,"x_min":60,"x_max":656,"o":"m 656 0 l 494 0 l 494 93 q 401 15 461 43 q 269 -14 342 -14 q 115 40 171 -14 q 60 188 60 93 q 124 349 60 297 q 299 400 189 400 l 486 400 l 486 443 q 349 543 486 543 q 135 494 239 543 l 107 626 q 371 686 222 686 q 656 451 656 686 l 656 0 m 486 240 l 486 282 l 329 282 q 226 193 226 282 q 329 104 226 104 q 443 142 400 104 q 486 240 486 179 z "},"b":{"ha":775,"x_min":90,"x_max":731,"o":"m 731 336 q 665 83 731 179 q 468 -14 599 -14 q 254 108 318 -14 l 254 0 l 90 0 l 90 925 l 260 925 l 260 564 q 465 686 324 686 q 665 590 599 686 q 731 336 731 494 m 417 121 q 561 336 561 121 q 417 551 561 551 q 299 494 338 551 q 260 336 260 436 q 299 179 260 238 q 417 121 339 121 z "},"c":{"ha":624,"x_min":44,"x_max":583,"o":"m 583 642 l 558 517 q 404 551 483 551 q 214 336 214 551 q 404 122 214 122 q 558 156 488 122 l 583 31 q 376 -14 508 -14 q 129 79 214 -14 q 44 336 44 172 q 129 593 44 500 q 376 686 214 686 q 583 642 508 686 z "},"d":{"ha":775,"x_min":44,"x_max":685,"o":"m 44 336 q 110 590 44 494 q 310 686 176 686 q 515 564 451 686 l 515 925 l 685 925 l 685 0 l 521 0 l 521 108 q 307 -14 457 -14 q 110 83 176 -14 q 44 336 44 179 m 358 551 q 213 336 213 551 q 358 121 213 121 q 476 179 436 121 q 515 336 515 238 q 476 494 515 436 q 358 551 438 551 z "},"e":{"ha":692,"x_min":44,"x_max":649,"o":"m 649 275 l 217 275 q 410 113 232 113 q 614 158 513 113 l 643 43 q 383 -14 526 -14 q 129 78 214 -14 q 44 336 44 171 q 126 590 44 493 q 367 686 207 686 q 579 599 510 686 q 649 360 649 511 l 649 275 m 364 569 q 259 526 294 569 q 215 394 224 483 l 489 394 l 489 413 q 364 569 489 569 z "},"f":{"ha":426,"x_min":31,"x_max":432,"o":"m 432 919 l 424 799 q 351 807 385 807 q 297 790 314 807 q 279 729 279 772 l 279 672 l 401 672 l 401 538 l 279 538 l 279 0 l 110 0 l 110 538 l 31 538 l 31 672 l 110 672 l 110 732 q 158 888 110 836 q 311 939 207 939 q 432 919 378 939 z "},"g":{"ha":775,"x_min":44,"x_max":685,"o":"m 685 672 l 685 33 q 353 -261 685 -261 q 111 -215 235 -261 l 136 -89 q 351 -132 244 -132 q 517 26 517 -132 l 517 138 q 308 15 450 15 q 110 109 175 15 q 44 351 44 203 q 110 592 44 499 q 308 686 176 686 q 519 564 457 686 l 519 672 l 685 672 m 517 351 q 476 501 517 449 q 364 553 436 553 q 252 499 290 553 q 214 351 214 446 q 364 150 214 150 q 475 203 433 150 q 517 351 517 256 z "},"h":{"ha":765,"x_min":90,"x_max":683,"o":"m 683 0 l 514 0 l 514 429 q 407 540 514 540 q 298 495 336 540 q 260 367 260 450 l 260 0 l 90 0 l 90 925 l 260 925 l 260 560 q 468 686 318 686 q 683 457 683 686 l 683 0 z "},"i":{"ha":350,"x_min":71,"x_max":278,"o":"m 71 857 q 99 931 71 901 q 175 961 128 961 q 249 931 221 961 q 278 857 278 901 q 249 783 278 814 q 175 753 221 753 q 100 783 129 753 q 71 857 71 814 m 260 0 l 90 0 l 90 672 l 260 672 l 260 0 z "},"j":{"ha":349,"x_min":-35,"x_max":278,"o":"m 71 857 q 99 931 71 901 q 175 961 128 961 q 249 931 221 961 q 278 857 278 901 q 249 783 278 814 q 175 753 221 753 q 100 783 129 753 q 71 857 71 814 m 32 -118 q 90 -56 90 -118 l 90 672 l 260 672 l 260 -78 q 212 -214 260 -167 q 71 -261 164 -261 q -35 -246 14 -261 l -22 -111 q 32 -118 0 -118 z "},"k":{"ha":692,"x_min":90,"x_max":689,"o":"m 493 0 l 260 310 l 260 0 l 90 0 l 90 925 l 260 925 l 260 372 l 483 672 l 678 672 l 421 342 l 689 0 l 493 0 z "},"l":{"ha":390,"x_min":88,"x_max":365,"o":"m 365 4 q 257 -12 318 -12 q 127 36 167 -12 q 88 178 88 85 l 88 925 l 257 925 l 257 179 q 313 124 257 124 q 361 131 338 124 l 365 4 z "},"m":{"ha":1161,"x_min":90,"x_max":1078,"o":"m 668 0 l 499 0 l 499 429 q 393 540 499 540 q 260 367 260 540 l 260 0 l 90 0 l 90 672 l 254 672 l 254 556 q 328 649 276 613 q 454 686 379 686 q 583 656 538 686 q 656 557 629 625 q 737 650 685 614 q 863 686 789 686 q 1027 628 976 686 q 1078 457 1078 571 l 1078 0 l 908 0 l 908 429 q 803 540 908 540 q 703 499 739 540 q 668 381 668 457 l 668 0 z "},"n":{"ha":765,"x_min":90,"x_max":683,"o":"m 683 0 l 514 0 l 514 429 q 407 540 514 540 q 298 495 336 540 q 260 367 260 450 l 260 0 l 90 0 l 90 672 l 254 672 l 254 556 q 468 686 317 686 q 683 457 683 686 l 683 0 z "},"o":{"ha":729,"x_min":44,"x_max":685,"o":"m 602 590 q 643 541 602 590 q 685 336 685 493 q 602 83 685 179 q 365 -14 519 -14 q 128 83 211 -14 q 44 336 44 179 q 128 590 44 493 q 365 686 211 686 q 602 590 519 686 m 365 121 q 515 336 515 121 q 365 551 515 551 q 214 336 214 551 q 365 121 214 121 z "},"p":{"ha":775,"x_min":90,"x_max":731,"o":"m 465 -14 q 260 108 324 -14 l 260 -247 l 90 -247 l 90 672 l 254 672 l 254 564 q 468 686 318 686 q 665 590 599 686 q 731 336 731 493 q 665 82 731 178 q 465 -14 599 -14 m 417 121 q 561 336 561 121 q 417 551 561 551 q 299 494 338 551 q 260 336 260 436 q 299 179 260 238 q 417 121 339 121 z "},"q":{"ha":775,"x_min":44,"x_max":685,"o":"m 44 336 q 110 590 44 493 q 307 686 176 686 q 521 564 457 686 l 521 672 l 685 672 l 685 -247 l 515 -247 l 515 108 q 310 -14 451 -14 q 110 82 176 -14 q 44 336 44 178 m 358 551 q 213 336 213 551 q 358 121 213 121 q 476 179 436 121 q 515 336 515 238 q 476 494 515 436 q 358 551 438 551 z "},"r":{"ha":486,"x_min":90,"x_max":481,"o":"m 481 518 q 422 522 453 522 q 261 314 261 522 l 261 0 l 90 0 l 90 672 l 256 672 l 256 546 q 422 681 299 681 q 481 674 460 681 l 481 518 z "},"s":{"ha":608,"x_min":46,"x_max":569,"o":"m 569 210 q 499 45 569 104 q 303 -14 429 -14 q 50 38 181 -14 l 86 160 q 300 113 207 113 q 403 182 403 113 q 380 228 403 211 q 297 261 357 244 q 99 351 151 303 q 46 483 46 399 q 114 635 46 585 q 308 686 182 686 q 540 640 444 686 l 510 518 q 314 561 411 561 q 237 548 261 561 q 213 501 213 535 q 239 453 213 468 q 353 413 265 439 q 516 338 463 381 q 569 210 569 294 z "},"t":{"ha":475,"x_min":35,"x_max":436,"o":"m 432 4 q 311 -14 372 -14 q 170 31 215 -14 q 125 171 125 76 l 125 529 l 35 529 l 35 672 l 125 672 l 125 846 l 294 846 l 294 672 l 436 672 l 436 529 l 294 529 l 294 188 q 310 138 294 153 q 364 122 325 122 q 428 129 393 122 l 432 4 z "},"u":{"ha":758,"x_min":83,"x_max":669,"o":"m 83 672 l 253 672 l 253 243 q 357 132 253 132 q 463 178 426 132 q 500 307 500 224 l 500 672 l 669 672 l 669 0 l 504 0 l 504 117 q 294 -14 443 -14 q 83 215 83 -14 l 83 672 z "},"v":{"ha":633,"x_min":-3,"x_max":636,"o":"m 317 164 l 458 672 l 636 672 l 414 0 l 219 0 l -3 672 l 175 672 l 317 164 z "},"w":{"ha":1007,"x_min":1,"x_max":1006,"o":"m 592 672 l 725 197 l 839 672 l 1006 672 l 813 0 l 642 0 l 504 488 l 367 0 l 194 0 l 1 672 l 168 672 l 283 197 l 415 672 l 592 672 z "},"x":{"ha":650,"x_min":19,"x_max":632,"o":"m 625 672 l 413 342 l 632 0 l 457 0 l 325 211 l 193 0 l 19 0 l 238 342 l 26 672 l 200 672 l 325 471 l 450 672 l 625 672 z "},"y":{"ha":622,"x_min":-3,"x_max":625,"o":"m 314 181 l 447 672 l 625 672 l 325 -247 l 154 -247 l 229 -4 l -3 672 l 175 672 l 314 181 z "},"z":{"ha":636,"x_min":58,"x_max":585,"o":"m 585 0 l 58 0 l 58 135 l 374 539 l 75 539 l 75 672 l 579 672 l 579 539 l 257 135 l 585 135 l 585 0 z "},"{":{"ha":490,"x_min":24,"x_max":457,"o":"m 332 217 l 332 8 q 396 -62 332 -62 l 457 -62 l 457 -208 l 349 -208 q 163 -17 163 -208 l 163 226 q 49 338 163 338 l 24 338 l 24 479 l 49 479 q 163 590 163 479 l 163 833 q 349 1025 163 1025 l 457 1025 l 457 879 l 396 879 q 332 808 332 879 l 332 600 q 292 467 332 514 q 168 408 253 419 q 292 350 253 397 q 332 217 332 303 z "},"|":{"ha":365,"x_min":111,"x_max":256,"o":"m 256 -347 l 111 -347 l 111 1042 l 256 1042 l 256 -347 z "},"}":{"ha":490,"x_min":33,"x_max":467,"o":"m 160 8 l 160 217 q 199 350 160 303 q 322 408 238 397 q 199 467 238 419 q 160 600 160 514 l 160 808 q 94 879 160 879 l 33 879 l 33 1025 l 143 1025 q 281 976 233 1025 q 329 833 329 928 l 329 590 q 443 479 329 479 l 467 479 l 467 338 l 443 338 q 329 226 329 338 l 329 -17 q 281 -160 329 -111 q 143 -208 233 -208 l 33 -208 l 33 -62 l 94 -62 q 160 8 160 -62 z "},"~":{"ha":785,"x_min":56,"x_max":738,"o":"m 738 532 q 666 379 708 435 q 547 324 624 324 q 406 367 501 324 q 279 410 310 410 q 258 406 268 410 q 241 398 247 401 q 227 383 235 394 q 217 367 219 371 q 208 345 215 363 q 199 325 200 328 l 56 375 q 99 483 78 444 q 158 548 119 522 q 256 574 197 574 q 399 531 308 574 q 514 489 489 489 q 563 512 546 489 q 593 575 579 535 l 738 532 z "}," ":{"ha":306,"x_min":0,"x_max":0,"o":""},"¡":{"ha":369,"x_min":82,"x_max":289,"o":"m 82 585 q 110 658 82 629 q 185 686 139 686 q 260 658 231 686 q 289 585 289 629 q 260 510 289 539 q 185 482 231 482 q 110 510 139 482 q 82 585 82 539 m 232 400 l 275 94 l 275 -247 l 96 -247 l 96 94 l 138 400 l 232 400 z "},"¢":{"ha":640,"x_min":49,"x_max":589,"o":"m 289 -22 l 289 150 q 110 254 172 172 q 49 464 49 336 q 110 674 49 592 q 289 778 172 756 l 289 947 l 456 947 l 456 781 q 589 740 533 768 l 560 618 q 403 653 482 653 q 214 464 214 653 q 403 275 214 275 q 560 310 482 275 l 589 188 q 456 147 533 157 l 456 -22 l 289 -22 z "},"£":{"ha":749,"x_min":49,"x_max":719,"o":"m 68 365 l 68 501 l 192 501 l 192 646 q 269 872 192 804 q 492 939 347 939 q 719 892 618 939 l 690 764 q 510 803 601 803 q 396 766 431 803 q 361 646 361 729 l 361 501 l 597 501 l 597 365 l 356 365 q 240 136 335 228 l 683 136 l 683 0 l 49 0 l 49 124 q 186 365 164 228 l 68 365 z "},"¤":{"ha":819,"x_min":53,"x_max":767,"o":"m 542 707 l 664 831 l 767 733 l 654 619 q 711 449 711 543 q 654 278 711 353 l 767 164 l 664 67 l 542 189 q 410 160 481 160 q 278 189 339 160 l 154 67 l 53 164 l 165 278 q 108 449 108 350 q 165 619 108 546 l 53 733 l 154 831 l 278 707 q 410 738 332 738 q 542 707 485 738 m 292 574 q 271 549 292 574 q 250 449 250 525 q 292 324 250 372 q 410 275 335 275 q 526 324 483 275 q 568 449 568 372 q 526 574 568 525 q 410 622 483 622 q 292 574 335 622 z "},"¥":{"ha":757,"x_min":40,"x_max":717,"o":"m 88 208 l 88 331 l 293 331 l 293 357 l 251 449 l 88 449 l 88 575 l 196 575 l 40 925 l 217 925 l 378 504 l 540 925 l 717 925 l 560 575 l 669 575 l 669 449 l 503 449 l 463 357 l 463 331 l 669 331 l 669 208 l 463 208 l 463 0 l 293 0 l 293 208 l 88 208 z "},"¦":{"ha":365,"x_min":111,"x_max":256,"o":"m 256 1042 l 256 489 l 111 489 l 111 1042 l 256 1042 m 256 -347 l 111 -347 l 111 206 l 256 206 l 256 -347 z "},"§":{"ha":753,"x_min":57,"x_max":700,"o":"m 700 346 q 666 231 700 286 q 582 138 632 175 q 656 65 633 101 q 678 -31 678 28 q 592 -198 678 -135 q 368 -261 506 -261 q 58 -193 206 -261 l 94 -72 q 354 -137 229 -137 q 514 -40 514 -137 q 503 1 514 -17 q 463 34 492 18 q 408 60 433 50 q 328 90 383 71 q 122 199 186 140 q 57 360 57 258 q 178 558 57 482 q 85 726 85 626 q 160 882 85 825 q 390 939 235 939 q 658 886 538 939 l 631 767 q 397 815 515 815 q 283 797 318 815 q 249 731 249 778 q 250 710 249 719 q 257 693 251 701 q 267 678 263 685 q 282 665 271 672 q 301 653 293 658 q 326 641 308 649 q 355 629 344 633 q 390 615 365 625 q 429 599 414 604 q 487 574 472 581 q 539 550 501 568 q 592 521 576 532 q 633 489 607 510 q 670 449 660 468 q 690 403 681 431 q 700 346 700 376 m 332 482 l 292 499 q 281 487 289 496 q 268 474 272 478 q 256 461 264 469 q 244 447 249 453 q 235 431 240 440 q 228 413 231 421 q 223 394 225 404 q 221 372 221 383 q 258 291 221 319 q 394 224 294 263 l 471 193 q 536 321 536 247 q 526 364 536 344 q 503 397 515 383 q 459 426 492 410 q 405 452 426 443 q 332 482 383 461 z "},"¨":{"ha":638,"x_min":97,"x_max":542,"o":"m 387 797 q 375 810 387 797 q 363 860 363 822 q 387 922 363 897 q 451 947 411 947 q 517 922 493 947 q 542 860 542 897 q 517 797 542 822 q 451 772 493 772 q 387 797 411 772 m 122 797 q 109 810 122 797 q 97 860 97 822 q 122 922 97 897 q 186 947 146 947 q 251 922 226 947 q 275 860 275 897 q 251 797 275 822 q 186 772 226 772 q 122 797 146 772 z "},"©":{"ha":1050,"x_min":42,"x_max":1010,"o":"m 177 122 q 109 192 177 122 q 42 463 42 261 q 177 803 42 664 q 525 942 313 942 q 874 803 738 942 q 1010 463 1010 664 q 874 122 1010 261 q 525 -17 738 -17 q 177 122 313 -17 m 829 163 q 888 225 829 163 q 947 463 947 288 q 829 762 947 638 q 525 886 711 886 q 222 762 339 886 q 104 463 104 638 q 222 163 104 288 q 525 39 339 39 q 829 163 711 39 m 560 735 q 710 704 646 735 l 690 614 q 572 636 635 636 q 400 463 400 636 q 572 289 400 289 q 690 311 635 289 l 710 221 q 560 190 646 190 q 356 265 428 190 q 283 463 283 339 q 356 660 283 586 q 560 735 428 735 z "},"ª":{"ha":524,"x_min":56,"x_max":469,"o":"m 454 485 l 340 485 l 340 550 q 285 497 324 518 q 196 476 247 476 q 92 513 129 476 q 56 613 56 549 q 214 750 56 750 l 335 750 l 335 775 q 315 825 335 811 q 250 839 294 839 q 106 806 176 839 l 86 900 q 264 939 160 939 q 454 781 454 939 l 454 485 m 335 649 l 335 667 l 235 667 q 171 613 171 667 q 239 557 171 557 q 308 583 282 557 q 335 649 335 608 m 58 308 l 58 407 l 469 407 l 469 308 l 58 308 z "},"«":{"ha":860,"x_min":33,"x_max":806,"o":"m 806 628 l 589 342 l 806 56 l 611 56 l 392 342 l 611 628 l 806 628 m 446 628 l 229 342 l 446 56 l 251 56 l 33 342 l 251 628 l 446 628 z "},"¬":{"ha":758,"x_min":67,"x_max":692,"o":"m 692 121 l 536 121 l 536 378 l 67 378 l 67 519 l 692 519 l 692 121 z "},"®":{"ha":722,"x_min":49,"x_max":674,"o":"m 49 636 q 135 853 49 764 q 361 942 222 942 q 587 853 500 942 q 674 636 674 764 q 587 419 674 510 q 361 329 500 329 q 135 419 222 329 q 49 636 49 510 m 172 822 q 136 785 172 822 q 100 636 100 747 q 172 450 100 525 q 361 375 244 375 q 549 450 476 375 q 621 636 621 525 q 549 822 621 747 q 361 897 476 897 q 172 822 244 897 m 486 703 q 426 613 486 638 l 514 496 l 428 496 l 350 604 l 328 604 l 328 496 l 256 496 l 256 793 l 375 793 q 456 769 426 793 q 486 703 486 746 m 414 699 q 368 739 414 739 l 328 739 l 328 657 l 368 657 q 414 699 414 657 z "},"¯":{"ha":604,"x_min":97,"x_max":507,"o":"m 507 785 l 97 785 l 97 914 l 507 914 l 507 785 z "},"°":{"ha":474,"x_min":51,"x_max":422,"o":"m 101 631 q 76 657 101 631 q 51 760 51 682 q 101 888 51 838 q 236 939 151 939 q 372 888 321 939 q 422 760 422 838 q 372 631 422 682 q 236 581 321 581 q 101 631 151 581 m 172 831 q 160 818 172 831 q 149 760 149 804 q 172 689 149 715 q 236 663 194 663 q 301 689 278 663 q 324 760 324 715 q 301 831 324 804 q 236 858 278 858 q 172 831 194 858 z "},"±":{"ha":758,"x_min":67,"x_max":692,"o":"m 692 0 l 67 0 l 67 133 l 301 133 l 301 361 l 67 361 l 67 501 l 301 501 l 301 758 l 457 758 l 457 501 l 692 501 l 692 361 l 457 361 l 457 133 l 692 133 l 692 0 z "},"²":{"ha":500,"x_min":56,"x_max":444,"o":"m 433 542 l 56 542 l 56 597 q 90 722 56 679 q 200 810 124 765 q 222 823 207 814 q 244 835 238 832 q 262 847 250 839 q 278 858 274 854 q 292 868 283 861 q 303 880 300 875 q 311 892 307 885 q 317 906 315 899 q 318 919 318 913 q 238 974 318 974 q 104 936 171 974 l 75 1032 q 258 1076 156 1076 q 396 1038 347 1076 q 444 929 444 1000 q 433 865 444 893 q 398 813 422 836 q 355 776 374 789 q 300 742 336 763 q 283 732 294 739 q 266 722 272 725 q 249 712 260 718 q 233 701 239 706 q 219 691 226 697 q 206 680 211 685 q 197 669 201 675 q 191 658 193 664 q 189 646 189 651 l 189 643 l 433 643 l 433 542 z "},"³":{"ha":482,"x_min":56,"x_max":426,"o":"m 426 690 q 374 578 426 621 q 229 535 321 535 q 56 575 139 535 l 83 665 q 214 636 149 636 q 299 696 299 636 q 199 756 299 756 l 124 756 l 124 857 l 197 857 q 293 919 293 857 q 219 974 293 974 q 97 943 161 974 l 67 1032 q 242 1076 144 1076 q 374 1040 328 1076 q 421 940 421 1003 q 332 808 421 846 q 426 690 426 782 z "},"´":{"ha":485,"x_min":97,"x_max":388,"o":"m 97 758 l 172 969 l 388 969 l 261 758 l 97 758 z "},"µ":{"ha":792,"x_min":90,"x_max":764,"o":"m 90 672 l 260 672 l 260 243 q 364 132 260 132 q 469 178 432 132 q 507 307 507 224 l 507 672 l 676 672 l 676 192 q 690 127 676 147 q 743 107 704 107 l 764 107 l 764 6 q 676 -10 731 -10 q 567 26 606 -10 q 525 121 529 63 q 293 -14 446 -14 q 199 7 236 -14 q 260 -157 260 -57 l 260 -247 l 90 -247 l 90 672 z "},"¶":{"ha":767,"x_min":33,"x_max":676,"o":"m 676 -194 l 546 -194 l 546 818 l 394 818 l 394 224 q 133 319 233 224 q 33 574 33 414 q 133 831 33 738 q 394 925 233 925 l 676 925 l 676 -194 z "},"·":{"ha":372,"x_min":83,"x_max":289,"o":"m 112 305 q 98 319 112 305 q 83 379 83 333 q 112 453 83 425 q 186 482 140 482 q 260 453 232 482 q 289 379 289 425 q 260 305 289 333 q 186 276 232 276 q 112 305 140 276 z "},"¸":{"ha":435,"x_min":97,"x_max":339,"o":"m 339 -146 q 101 -261 339 -256 l 97 -190 q 196 -154 196 -187 q 176 -129 196 -135 q 107 -121 156 -124 l 135 0 l 213 0 l 201 -60 q 303 -81 268 -62 q 339 -146 339 -100 z "},"¹":{"ha":340,"x_min":42,"x_max":286,"o":"m 286 543 l 158 543 l 158 953 l 51 936 l 42 1042 l 179 1069 l 286 1069 l 286 543 z "},"º":{"ha":538,"x_min":56,"x_max":483,"o":"m 428 875 q 456 843 428 875 q 483 707 483 811 q 428 540 483 603 q 269 478 372 478 q 111 540 167 478 q 56 707 56 603 q 111 875 56 811 q 269 939 167 939 q 428 875 372 939 m 269 571 q 363 707 363 571 q 269 843 363 843 q 175 707 175 843 q 269 571 175 571 m 72 308 l 72 407 l 465 407 l 465 308 l 72 308 z "},"»":{"ha":860,"x_min":54,"x_max":826,"o":"m 608 628 l 826 342 l 608 56 l 413 56 l 631 342 l 413 628 l 608 628 m 249 628 l 467 342 l 249 56 l 54 56 l 271 342 l 54 628 l 249 628 z "},"¼":{"ha":1100,"x_min":56,"x_max":1044,"o":"m 839 925 l 368 0 l 225 0 l 696 925 l 839 925 m 300 399 l 172 399 l 172 808 l 65 792 l 56 897 l 193 925 l 300 925 l 300 399 m 1044 117 l 981 117 l 981 0 l 858 0 l 858 117 l 608 117 l 608 215 l 846 528 l 981 528 l 981 214 l 1044 214 l 1044 117 m 858 214 l 858 406 l 717 214 l 858 214 z "},"½":{"ha":1146,"x_min":56,"x_max":1090,"o":"m 839 925 l 368 0 l 225 0 l 696 925 l 839 925 m 300 399 l 172 399 l 172 808 l 65 792 l 56 897 l 193 925 l 300 925 l 300 399 m 1079 0 l 701 0 l 701 56 q 736 181 701 138 q 846 268 771 225 q 874 285 856 274 q 901 300 893 296 q 922 313 908 304 q 940 328 935 322 q 953 342 946 333 q 962 359 960 350 q 964 378 964 368 q 885 432 964 432 q 750 394 817 432 l 722 490 q 904 535 803 535 q 1042 497 993 535 q 1090 388 1090 458 q 1053 281 1090 322 q 946 200 1015 240 q 929 190 940 197 q 912 180 918 183 q 895 170 906 176 q 878 160 885 164 q 865 149 872 156 q 852 138 857 143 q 843 128 847 133 q 837 116 839 122 q 835 104 835 110 l 835 101 l 1079 101 l 1079 0 z "},"¾":{"ha":1140,"x_min":56,"x_max":1086,"o":"m 426 546 q 374 433 426 476 q 229 390 321 390 q 56 431 139 390 l 83 521 q 214 492 149 492 q 299 551 299 492 q 199 611 299 611 l 124 611 l 124 713 l 197 713 q 293 775 293 713 q 219 829 293 829 q 97 799 161 829 l 67 888 q 242 932 144 932 q 374 895 328 932 q 421 796 421 858 q 332 664 421 701 q 426 546 426 638 m 879 925 l 410 0 l 267 0 l 736 925 l 879 925 m 1086 117 l 1021 117 l 1021 0 l 899 0 l 899 117 l 649 117 l 649 215 l 886 528 l 1021 528 l 1021 214 l 1086 214 l 1086 117 m 899 214 l 899 406 l 758 214 l 899 214 z "},"¿":{"ha":646,"x_min":56,"x_max":597,"o":"m 499 585 q 470 510 499 539 q 394 482 442 482 q 320 510 349 482 q 292 585 292 539 q 320 658 292 629 q 394 686 349 686 q 470 658 442 686 q 499 585 499 629 m 56 -43 q 93 90 56 38 q 221 214 131 142 q 298 289 276 258 q 319 372 319 319 l 319 407 l 469 407 l 469 349 q 441 219 469 267 q 347 117 413 171 q 313 88 335 107 q 281 63 290 69 q 258 42 272 56 q 239 18 244 28 q 229 -6 233 8 q 225 -35 225 -19 q 361 -125 225 -125 q 568 -75 451 -125 l 597 -203 q 340 -261 488 -261 q 131 -206 206 -261 q 56 -43 56 -151 z "},"À":{"ha":896,"x_min":13,"x_max":883,"o":"m 13 0 l 351 925 l 544 925 l 883 0 l 707 0 l 633 218 l 263 218 l 189 0 l 13 0 m 449 769 l 311 364 l 585 364 l 449 769 m 521 1010 l 354 1010 l 185 1193 l 414 1193 l 521 1010 z "},"Á":{"ha":896,"x_min":13,"x_max":883,"o":"m 13 0 l 351 925 l 544 925 l 883 0 l 707 0 l 633 218 l 263 218 l 189 0 l 13 0 m 449 769 l 311 364 l 585 364 l 449 769 m 710 1193 l 539 1010 l 374 1010 l 481 1193 l 710 1193 z "},"Â":{"ha":896,"x_min":13,"x_max":883,"o":"m 13 0 l 351 925 l 544 925 l 883 0 l 707 0 l 633 218 l 263 218 l 189 0 l 13 0 m 449 769 l 311 364 l 585 364 l 449 769 m 528 1193 l 690 1010 l 528 1010 l 449 1103 l 369 1010 l 208 1010 l 368 1193 l 528 1193 z "},"Ã":{"ha":896,"x_min":13,"x_max":883,"o":"m 13 0 l 351 925 l 544 925 l 883 0 l 707 0 l 633 218 l 263 218 l 189 0 l 13 0 m 449 769 l 311 364 l 585 364 l 449 769 m 604 1206 l 713 1165 q 660 1055 692 1094 q 572 1015 629 1015 q 464 1046 539 1015 q 364 1076 389 1076 q 335 1066 347 1076 q 317 1046 322 1056 q 303 1013 313 1036 l 192 1053 q 250 1167 214 1131 q 351 1203 286 1203 q 458 1173 389 1203 q 547 1143 528 1143 q 563 1147 556 1143 q 576 1153 571 1150 q 585 1165 581 1157 q 592 1178 590 1174 q 599 1192 594 1182 q 604 1206 603 1203 z "},"Ä":{"ha":896,"x_min":13,"x_max":883,"o":"m 13 0 l 351 925 l 544 925 l 883 0 l 707 0 l 633 218 l 263 218 l 189 0 l 13 0 m 449 769 l 311 364 l 585 364 l 449 769 m 499 1101 q 523 1164 499 1140 q 589 1188 547 1188 q 654 1164 631 1188 q 678 1101 678 1140 q 654 1040 678 1063 q 589 1017 631 1017 q 523 1040 547 1017 q 499 1101 499 1064 m 242 1040 q 230 1051 242 1040 q 218 1101 218 1063 q 242 1164 218 1140 q 307 1188 265 1188 q 372 1164 349 1188 q 396 1101 396 1140 q 372 1040 396 1063 q 307 1017 349 1017 q 242 1040 265 1017 z "},"Å":{"ha":896,"x_min":13,"x_max":883,"o":"m 586 1007 q 546 921 586 950 l 883 0 l 707 0 l 633 218 l 263 218 l 189 0 l 13 0 l 349 921 q 310 1007 310 951 q 345 1094 310 1060 q 449 1128 381 1128 q 551 1093 515 1128 q 586 1007 586 1058 m 449 1065 q 388 1007 388 1065 q 449 949 388 949 q 508 1007 508 949 q 449 1065 508 1065 m 449 769 l 311 364 l 585 364 l 449 769 z "},"Æ":{"ha":1207,"x_min":13,"x_max":1143,"o":"m 1143 925 l 1143 775 l 613 775 l 688 550 l 1114 550 l 1114 400 l 736 400 l 818 150 l 1143 150 l 1143 0 l 707 0 l 632 221 l 264 221 l 189 0 l 13 0 l 351 925 l 1143 925 m 449 782 l 311 364 l 585 364 l 449 782 z "},"Ç":{"ha":815,"x_min":49,"x_max":772,"o":"m 643 -146 q 406 -261 643 -256 l 401 -190 q 500 -154 500 -187 q 480 -129 500 -135 q 411 -121 460 -124 l 436 -12 q 153 135 257 10 q 49 463 49 261 q 174 813 49 685 q 508 942 299 942 q 772 890 664 942 l 746 753 q 546 792 646 792 q 306 708 389 792 q 222 463 222 624 q 306 217 222 301 q 546 133 389 133 q 746 172 646 133 l 772 35 q 514 -17 668 -15 l 506 -60 q 608 -81 572 -62 q 643 -146 643 -100 z "},"È":{"ha":783,"x_min":97,"x_max":719,"o":"m 522 1010 l 356 1010 l 186 1193 l 415 1193 l 522 1010 m 97 0 l 97 925 l 719 925 l 719 775 l 271 775 l 271 550 l 690 550 l 690 400 l 271 400 l 271 150 l 719 150 l 719 0 l 97 0 z "},"É":{"ha":783,"x_min":97,"x_max":719,"o":"m 97 0 l 97 925 l 719 925 l 719 775 l 271 775 l 271 550 l 690 550 l 690 400 l 271 400 l 271 150 l 719 150 l 719 0 l 97 0 m 640 1193 l 469 1010 l 304 1010 l 411 1193 l 640 1193 z "},"Ê":{"ha":783,"x_min":97,"x_max":719,"o":"m 494 1193 l 657 1010 l 494 1010 l 415 1103 l 336 1010 l 175 1010 l 335 1193 l 494 1193 m 97 0 l 97 925 l 719 925 l 719 775 l 271 775 l 271 550 l 690 550 l 690 400 l 271 400 l 271 150 l 719 150 l 719 0 l 97 0 z "},"Ë":{"ha":783,"x_min":97,"x_max":719,"o":"m 97 0 l 97 925 l 719 925 l 719 775 l 271 775 l 271 550 l 690 550 l 690 400 l 271 400 l 271 150 l 719 150 l 719 0 l 97 0 m 468 1101 q 492 1164 468 1140 q 558 1188 517 1188 q 624 1164 600 1188 q 647 1101 647 1140 q 624 1040 647 1063 q 558 1017 600 1017 q 492 1040 517 1017 q 468 1101 468 1064 m 211 1040 q 199 1051 211 1040 q 188 1101 188 1063 q 211 1164 188 1140 q 276 1188 235 1188 q 342 1164 318 1188 q 365 1101 365 1140 q 342 1040 365 1063 q 276 1017 318 1017 q 211 1040 235 1017 z "},"Ì":{"ha":382,"x_min":-62,"x_max":278,"o":"m 104 0 l 104 925 l 278 925 l 278 0 l 104 0 m 274 1010 l 107 1010 l -62 1193 l 167 1193 l 274 1010 z "},"Í":{"ha":382,"x_min":104,"x_max":447,"o":"m 104 0 l 104 925 l 278 925 l 278 0 l 104 0 m 447 1193 l 276 1010 l 111 1010 l 218 1193 l 447 1193 z "},"Î":{"ha":382,"x_min":-49,"x_max":433,"o":"m 104 0 l 104 925 l 278 925 l 278 0 l 104 0 m 271 1193 l 433 1010 l 271 1010 l 192 1103 l 113 1010 l -49 1010 l 111 1193 l 271 1193 z "},"Ï":{"ha":382,"x_min":-37,"x_max":422,"o":"m 104 0 l 104 925 l 278 925 l 278 0 l 104 0 m 243 1101 q 267 1164 243 1140 q 333 1188 292 1188 q 399 1164 375 1188 q 422 1101 422 1140 q 399 1040 422 1063 q 333 1017 375 1017 q 267 1040 292 1017 q 243 1101 243 1064 m -14 1040 q -26 1051 -14 1040 q -37 1101 -37 1063 q -14 1164 -37 1140 q 51 1188 10 1188 q 117 1164 93 1188 q 140 1101 140 1140 q 117 1040 140 1063 q 51 1017 93 1017 q -14 1040 10 1017 z "},"Ð":{"ha":963,"x_min":29,"x_max":919,"o":"m 29 389 l 29 536 l 118 536 l 118 925 l 464 925 q 794 797 668 925 q 919 463 919 669 q 794 128 919 256 q 464 0 668 0 l 118 0 l 118 389 l 29 389 m 663 230 q 704 270 663 230 q 744 463 744 311 q 663 695 744 614 q 456 776 582 776 l 292 776 l 292 536 l 540 536 l 540 389 l 292 389 l 292 149 l 456 149 q 663 230 582 149 z "},"Ñ":{"ha":982,"x_min":97,"x_max":885,"o":"m 642 1206 l 750 1165 q 698 1055 729 1094 q 610 1015 667 1015 q 501 1046 576 1015 q 401 1076 426 1076 q 372 1066 385 1076 q 355 1046 360 1056 q 340 1013 350 1036 l 229 1053 q 288 1167 251 1131 q 389 1203 324 1203 q 496 1173 426 1203 q 585 1143 565 1143 q 601 1147 593 1143 q 613 1153 608 1150 q 623 1165 618 1157 q 630 1178 628 1174 q 636 1192 632 1182 q 642 1206 640 1203 m 97 0 l 97 925 l 269 925 l 715 288 l 715 925 l 885 925 l 885 0 l 713 0 l 265 638 l 265 0 l 97 0 z "},"Ò":{"ha":967,"x_min":49,"x_max":918,"o":"m 572 1010 l 406 1010 l 236 1193 l 465 1193 l 572 1010 m 160 116 q 104 182 160 116 q 49 463 49 249 q 160 809 49 676 q 483 942 271 942 q 807 809 696 942 q 918 463 918 676 q 807 116 918 249 q 483 -17 696 -17 q 160 116 271 -17 m 483 132 q 679 221 614 132 q 744 463 744 310 q 679 704 744 615 q 483 793 614 793 q 287 704 351 793 q 222 463 222 615 q 287 221 222 310 q 483 132 351 132 z "},"Ó":{"ha":967,"x_min":49,"x_max":918,"o":"m 728 1193 l 557 1010 l 392 1010 l 499 1193 l 728 1193 m 160 116 q 104 182 160 116 q 49 463 49 249 q 160 809 49 676 q 483 942 271 942 q 807 809 696 942 q 918 463 918 676 q 807 116 918 249 q 483 -17 696 -17 q 160 116 271 -17 m 483 132 q 679 221 614 132 q 744 463 744 310 q 679 704 744 615 q 483 793 614 793 q 287 704 351 793 q 222 463 222 615 q 287 221 222 310 q 483 132 351 132 z "},"Ô":{"ha":967,"x_min":49,"x_max":918,"o":"m 563 1193 l 725 1010 l 563 1010 l 483 1103 l 404 1010 l 243 1010 l 403 1193 l 563 1193 m 160 116 q 104 182 160 116 q 49 463 49 249 q 160 809 49 676 q 483 942 271 942 q 807 809 696 942 q 918 463 918 676 q 807 116 918 249 q 483 -17 696 -17 q 160 116 271 -17 m 483 132 q 679 221 614 132 q 744 463 744 310 q 679 704 744 615 q 483 793 614 793 q 287 704 351 793 q 222 463 222 615 q 287 221 222 310 q 483 132 351 132 z "},"Õ":{"ha":967,"x_min":49,"x_max":918,"o":"m 160 116 q 104 182 160 116 q 49 463 49 249 q 160 809 49 676 q 483 942 271 942 q 807 809 696 942 q 918 463 918 676 q 807 116 918 249 q 483 -17 696 -17 q 160 116 271 -17 m 483 132 q 679 221 614 132 q 744 463 744 310 q 679 704 744 615 q 483 793 614 793 q 287 704 351 793 q 222 463 222 615 q 287 221 222 310 q 483 132 351 132 m 633 1206 l 742 1165 q 690 1055 721 1094 q 601 1015 658 1015 q 493 1046 568 1015 q 393 1076 418 1076 q 364 1066 376 1076 q 347 1046 351 1056 q 332 1013 342 1036 l 221 1053 q 279 1167 243 1131 q 381 1203 315 1203 q 488 1173 418 1203 q 576 1143 557 1143 q 592 1147 585 1143 q 605 1153 600 1150 q 615 1165 610 1157 q 622 1178 619 1174 q 628 1192 624 1182 q 633 1206 632 1203 z "},"Ö":{"ha":967,"x_min":49,"x_max":918,"o":"m 160 116 q 104 182 160 116 q 49 463 49 249 q 160 809 49 676 q 483 942 271 942 q 807 809 696 942 q 918 463 918 676 q 807 116 918 249 q 483 -17 696 -17 q 160 116 271 -17 m 483 132 q 679 221 614 132 q 744 463 744 310 q 679 704 744 615 q 483 793 614 793 q 287 704 351 793 q 222 463 222 615 q 287 221 222 310 q 483 132 351 132 m 535 1101 q 559 1164 535 1140 q 625 1188 583 1188 q 690 1164 667 1188 q 714 1101 714 1140 q 690 1040 714 1063 q 625 1017 667 1017 q 559 1040 583 1017 q 535 1101 535 1064 m 278 1040 q 266 1051 278 1040 q 254 1101 254 1063 q 278 1164 254 1140 q 343 1188 301 1188 q 408 1164 385 1188 q 432 1101 432 1140 q 408 1040 432 1063 q 343 1017 385 1017 q 278 1040 301 1017 z "},"×":{"ha":749,"x_min":67,"x_max":682,"o":"m 579 140 l 374 346 l 171 142 l 67 244 l 272 449 l 67 653 l 169 757 l 374 551 l 578 756 l 682 653 l 476 449 l 682 244 l 579 140 z "},"Ø":{"ha":967,"x_min":49,"x_max":918,"o":"m 49 463 q 160 809 49 676 q 483 942 271 942 q 614 926 550 942 l 661 1042 l 778 1042 l 714 885 q 867 717 815 826 q 918 463 918 607 q 807 116 918 249 q 483 -17 696 -17 q 353 -1 417 -17 l 307 -117 l 190 -117 l 253 39 q 100 208 151 97 q 49 463 49 318 m 222 463 q 315 190 222 274 l 556 783 q 483 793 517 793 q 287 704 351 793 q 222 463 222 615 m 483 132 q 679 221 614 132 q 744 463 744 310 q 651 733 744 649 l 411 140 q 483 132 444 132 z "},"Ù":{"ha":949,"x_min":94,"x_max":856,"o":"m 581 1010 l 414 1010 l 244 1193 l 474 1193 l 581 1010 m 856 925 l 856 343 q 757 86 856 189 q 475 -17 658 -17 q 193 85 292 -17 q 94 343 94 188 l 94 925 l 268 925 l 268 333 q 324 185 268 238 q 475 132 379 132 q 625 185 569 132 q 681 333 681 238 l 681 925 l 856 925 z "},"Ú":{"ha":949,"x_min":94,"x_max":856,"o":"m 856 925 l 856 343 q 757 86 856 189 q 475 -17 658 -17 q 193 85 292 -17 q 94 343 94 188 l 94 925 l 268 925 l 268 333 q 324 185 268 238 q 475 132 379 132 q 625 185 569 132 q 681 333 681 238 l 681 925 l 856 925 m 703 1193 l 532 1010 l 367 1010 l 474 1193 l 703 1193 z "},"Û":{"ha":949,"x_min":94,"x_max":856,"o":"m 554 1193 l 717 1010 l 554 1010 l 475 1103 l 396 1010 l 235 1010 l 394 1193 l 554 1193 m 856 925 l 856 343 q 757 86 856 189 q 475 -17 658 -17 q 193 85 292 -17 q 94 343 94 188 l 94 925 l 268 925 l 268 333 q 324 185 268 238 q 475 132 379 132 q 625 185 569 132 q 681 333 681 238 l 681 925 l 856 925 z "},"Ü":{"ha":949,"x_min":94,"x_max":856,"o":"m 856 925 l 856 343 q 757 86 856 189 q 475 -17 658 -17 q 193 85 292 -17 q 94 343 94 188 l 94 925 l 268 925 l 268 333 q 324 185 268 238 q 475 132 379 132 q 625 185 569 132 q 681 333 681 238 l 681 925 l 856 925 m 525 1101 q 549 1164 525 1140 q 615 1188 574 1188 q 681 1164 657 1188 q 704 1101 704 1140 q 681 1040 704 1063 q 615 1017 657 1017 q 549 1040 574 1017 q 525 1101 525 1064 m 268 1040 q 256 1051 268 1040 q 244 1101 244 1063 q 268 1164 244 1140 q 333 1188 292 1188 q 399 1164 375 1188 q 422 1101 422 1140 q 399 1040 422 1063 q 333 1017 375 1017 q 268 1040 292 1017 z "},"Ý":{"ha":776,"x_min":3,"x_max":774,"o":"m 774 925 l 475 365 l 475 0 l 301 0 l 301 365 l 3 925 l 186 925 l 388 518 l 590 925 l 774 925 m 629 1193 l 458 1010 l 293 1010 l 400 1193 l 629 1193 z "},"Þ":{"ha":836,"x_min":97,"x_max":804,"o":"m 804 471 q 719 260 804 344 q 499 175 635 175 l 271 175 l 271 0 l 97 0 l 97 925 l 271 925 l 271 764 l 499 764 q 722 681 639 764 q 804 471 804 599 m 589 357 q 610 378 589 357 q 631 471 631 399 q 588 583 631 543 q 475 624 546 624 l 271 624 l 271 315 l 476 315 q 589 357 547 315 z "},"ß":{"ha":801,"x_min":86,"x_max":775,"o":"m 253 0 l 86 0 l 86 601 q 176 851 86 764 q 422 939 265 939 q 604 885 533 939 q 675 740 675 832 q 610 571 675 658 q 585 540 601 560 q 560 508 568 519 q 544 481 551 497 q 536 449 536 464 q 557 408 536 424 q 626 369 578 393 q 738 294 700 335 q 775 185 775 254 q 710 40 775 94 q 535 -14 646 -14 q 358 18 435 -14 l 382 135 q 513 110 446 110 q 611 175 611 110 q 590 216 611 200 q 518 253 568 232 q 406 327 442 285 q 371 433 371 369 q 444 606 371 511 q 460 624 449 610 q 475 644 471 639 q 488 663 479 650 q 499 683 496 675 q 506 703 503 692 q 508 728 508 715 q 481 787 508 764 q 411 810 454 810 q 253 600 253 810 l 253 0 z "},"à":{"ha":735,"x_min":60,"x_max":656,"o":"m 656 0 l 494 0 l 494 93 q 401 15 461 43 q 269 -14 342 -14 q 115 40 171 -14 q 60 188 60 93 q 124 349 60 297 q 299 400 189 400 l 486 400 l 486 443 q 349 543 486 543 q 135 494 239 543 l 107 626 q 371 686 222 686 q 656 451 656 686 l 656 0 m 486 240 l 486 282 l 329 282 q 226 193 226 282 q 329 104 226 104 q 443 142 400 104 q 486 240 486 179 m 303 758 l 176 969 l 392 969 l 467 758 l 303 758 z "},"á":{"ha":735,"x_min":60,"x_max":656,"o":"m 656 0 l 494 0 l 494 93 q 401 15 461 43 q 269 -14 342 -14 q 115 40 171 -14 q 60 188 60 93 q 124 349 60 297 q 299 400 189 400 l 486 400 l 486 443 q 349 543 486 543 q 135 494 239 543 l 107 626 q 371 686 222 686 q 656 451 656 686 l 656 0 m 486 240 l 486 282 l 329 282 q 226 193 226 282 q 329 104 226 104 q 443 142 400 104 q 486 240 486 179 m 285 758 l 360 969 l 575 969 l 449 758 l 285 758 z "},"â":{"ha":735,"x_min":60,"x_max":656,"o":"m 656 0 l 494 0 l 494 93 q 401 15 461 43 q 269 -14 342 -14 q 115 40 171 -14 q 60 188 60 93 q 124 349 60 297 q 299 400 189 400 l 486 400 l 486 443 q 349 543 486 543 q 135 494 239 543 l 107 626 q 371 686 222 686 q 656 451 656 686 l 656 0 m 486 240 l 486 282 l 329 282 q 226 193 226 282 q 329 104 226 104 q 443 142 400 104 q 486 240 486 179 m 463 969 l 608 758 l 453 758 l 379 872 l 306 758 l 151 758 l 296 969 l 463 969 z "},"ã":{"ha":735,"x_min":60,"x_max":656,"o":"m 656 0 l 494 0 l 494 93 q 401 15 461 43 q 269 -14 342 -14 q 115 40 171 -14 q 60 188 60 93 q 124 349 60 297 q 299 400 189 400 l 486 400 l 486 443 q 349 543 486 543 q 135 494 239 543 l 107 626 q 371 686 222 686 q 656 451 656 686 l 656 0 m 486 240 l 486 282 l 329 282 q 226 193 226 282 q 329 104 226 104 q 443 142 400 104 q 486 240 486 179 m 528 957 l 636 918 q 583 804 613 842 q 493 767 553 767 q 392 798 460 767 q 300 829 325 829 q 263 813 275 829 q 239 765 250 797 l 132 806 q 190 921 158 886 q 285 956 222 956 q 389 926 322 956 q 474 896 456 896 q 487 898 481 896 q 499 905 493 900 q 508 913 504 910 q 515 924 511 917 q 519 935 518 932 q 524 947 521 938 q 528 957 528 956 z "},"ä":{"ha":735,"x_min":60,"x_max":656,"o":"m 656 0 l 494 0 l 494 93 q 401 15 461 43 q 269 -14 342 -14 q 115 40 171 -14 q 60 188 60 93 q 124 349 60 297 q 299 400 189 400 l 486 400 l 486 443 q 349 543 486 543 q 135 494 239 543 l 107 626 q 371 686 222 686 q 656 451 656 686 l 656 0 m 486 240 l 486 282 l 329 282 q 226 193 226 282 q 329 104 226 104 q 443 142 400 104 q 486 240 486 179 m 448 797 q 436 810 448 797 q 424 860 424 822 q 448 922 424 897 q 513 947 472 947 q 578 922 554 947 q 603 860 603 897 q 578 797 603 822 q 513 772 554 772 q 448 797 472 772 m 183 797 q 170 810 183 797 q 158 860 158 822 q 183 922 158 897 q 247 947 207 947 q 312 922 288 947 q 336 860 336 897 q 312 797 336 822 q 247 772 288 772 q 183 797 207 772 z "},"å":{"ha":735,"x_min":60,"x_max":656,"o":"m 656 0 l 494 0 l 494 93 q 401 15 461 43 q 269 -14 342 -14 q 115 40 171 -14 q 60 188 60 93 q 124 349 60 297 q 299 400 189 400 l 486 400 l 486 443 q 349 543 486 543 q 135 494 239 543 l 107 626 q 371 686 222 686 q 656 451 656 686 l 656 0 m 486 240 l 486 282 l 329 282 q 226 193 226 282 q 329 104 226 104 q 443 142 400 104 q 486 240 486 179 m 518 881 q 483 793 518 828 q 381 758 447 758 q 278 793 314 758 q 243 881 243 828 q 278 967 243 932 q 381 1001 314 1001 q 483 967 447 1001 q 518 881 518 932 m 381 939 q 350 939 381 939 q 319 881 319 939 q 381 822 319 822 q 442 881 442 822 q 381 939 442 939 z "},"æ":{"ha":1139,"x_min":58,"x_max":1096,"o":"m 1096 276 l 665 276 q 721 153 676 193 q 858 113 765 113 q 1063 158 961 113 l 1092 43 q 840 -14 975 -14 q 680 22 751 -14 q 582 117 608 57 q 472 21 544 56 q 310 -14 400 -14 q 125 42 192 -14 q 58 196 58 97 q 297 396 58 396 l 493 396 l 493 424 q 349 543 493 543 q 142 501 238 543 l 113 629 q 356 686 221 686 q 583 578 508 686 q 817 686 661 686 q 1027 599 958 686 q 1096 361 1096 511 l 1096 276 m 493 253 l 493 276 l 321 276 q 221 192 221 276 q 251 126 221 150 q 332 101 281 101 q 493 253 493 101 m 814 569 q 665 396 681 569 l 938 396 l 938 414 q 814 569 938 569 z "},"ç":{"ha":624,"x_min":44,"x_max":583,"o":"m 522 -146 q 285 -261 522 -256 l 281 -190 q 379 -154 379 -187 q 359 -129 379 -135 q 290 -121 339 -124 l 315 -10 q 113 97 182 7 q 44 336 44 188 q 129 593 44 500 q 376 686 214 686 q 583 642 508 686 l 558 517 q 404 551 483 551 q 214 336 214 551 q 404 122 214 122 q 558 156 488 122 l 583 31 q 393 -14 517 -10 l 385 -60 q 487 -81 451 -62 q 522 -146 522 -100 z "},"è":{"ha":692,"x_min":44,"x_max":649,"o":"m 649 275 l 217 275 q 410 113 232 113 q 614 158 513 113 l 643 43 q 383 -14 526 -14 q 129 78 214 -14 q 44 336 44 171 q 126 590 44 493 q 367 686 207 686 q 579 599 510 686 q 649 360 649 511 l 649 275 m 364 569 q 259 526 294 569 q 215 394 224 483 l 489 394 l 489 413 q 364 569 489 569 m 275 758 l 149 969 l 364 969 l 439 758 l 275 758 z "},"é":{"ha":692,"x_min":44,"x_max":649,"o":"m 274 758 l 349 969 l 564 969 l 438 758 l 274 758 m 649 275 l 217 275 q 410 113 232 113 q 614 158 513 113 l 643 43 q 383 -14 526 -14 q 129 78 214 -14 q 44 336 44 171 q 126 590 44 493 q 367 686 207 686 q 579 599 510 686 q 649 360 649 511 l 649 275 m 364 569 q 259 526 294 569 q 215 394 224 483 l 489 394 l 489 413 q 364 569 489 569 z "},"ê":{"ha":692,"x_min":44,"x_max":649,"o":"m 444 969 l 590 758 l 435 758 l 361 872 l 288 758 l 133 758 l 278 969 l 444 969 m 649 275 l 217 275 q 410 113 232 113 q 614 158 513 113 l 643 43 q 383 -14 526 -14 q 129 78 214 -14 q 44 336 44 171 q 126 590 44 493 q 367 686 207 686 q 579 599 510 686 q 649 360 649 511 l 649 275 m 364 569 q 259 526 294 569 q 215 394 224 483 l 489 394 l 489 413 q 364 569 489 569 z "},"ë":{"ha":692,"x_min":44,"x_max":649,"o":"m 427 797 q 415 810 427 797 q 403 860 403 822 q 427 922 403 897 q 492 947 451 947 q 558 922 533 947 q 582 860 582 897 q 558 797 582 822 q 492 772 533 772 q 427 797 451 772 m 162 797 q 150 810 162 797 q 138 860 138 822 q 162 922 138 897 q 226 947 186 947 q 291 922 267 947 q 315 860 315 897 q 291 797 315 822 q 226 772 267 772 q 162 797 186 772 m 649 275 l 217 275 q 410 113 232 113 q 614 158 513 113 l 643 43 q 383 -14 526 -14 q 129 78 214 -14 q 44 336 44 171 q 126 590 44 493 q 367 686 207 686 q 579 599 510 686 q 649 360 649 511 l 649 275 m 364 569 q 259 526 294 569 q 215 394 224 483 l 489 394 l 489 413 q 364 569 489 569 z "},"ì":{"ha":349,"x_min":-31,"x_max":260,"o":"m 260 0 l 90 0 l 90 672 l 260 672 l 260 0 m 96 758 l -31 969 l 185 969 l 260 758 l 96 758 z "},"í":{"ha":349,"x_min":90,"x_max":389,"o":"m 99 758 l 174 969 l 389 969 l 263 758 l 99 758 m 260 0 l 90 0 l 90 672 l 260 672 l 260 0 z "},"î":{"ha":349,"x_min":-53,"x_max":404,"o":"m 258 969 l 404 758 l 249 758 l 175 872 l 101 758 l -53 758 l 92 969 l 258 969 m 260 0 l 90 0 l 90 672 l 260 672 l 260 0 z "},"ï":{"ha":349,"x_min":-47,"x_max":397,"o":"m 242 797 q 230 810 242 797 q 218 860 218 822 q 242 922 218 897 q 307 947 267 947 q 373 922 349 947 q 397 860 397 897 q 373 797 397 822 q 307 772 349 772 q 242 797 267 772 m -23 797 q -35 810 -23 797 q -47 860 -47 822 q -23 922 -47 897 q 42 947 1 947 q 106 922 82 947 q 131 860 131 897 q 106 797 131 822 q 42 772 82 772 q -23 797 1 772 m 260 0 l 90 0 l 90 672 l 260 672 l 260 0 z "},"ð":{"ha":722,"x_min":42,"x_max":681,"o":"m 315 646 l 250 719 l 299 764 q 161 811 242 789 l 197 939 q 406 863 311 913 l 496 944 l 564 872 l 490 806 q 681 358 681 651 q 594 99 681 211 q 344 -14 508 -14 q 124 76 206 -14 q 42 300 42 167 q 115 528 42 440 q 322 615 189 615 q 518 525 446 615 q 388 711 483 639 l 315 646 m 210 300 q 248 166 210 215 q 358 117 286 117 q 470 169 428 117 q 513 301 513 221 q 472 435 513 386 q 360 485 431 485 q 248 435 286 485 q 210 300 210 386 z "},"ñ":{"ha":765,"x_min":90,"x_max":683,"o":"m 683 0 l 514 0 l 514 429 q 407 540 514 540 q 298 495 336 540 q 260 367 260 450 l 260 0 l 90 0 l 90 672 l 254 672 l 254 556 q 468 686 317 686 q 683 457 683 686 l 683 0 m 538 957 l 646 918 q 592 804 622 842 q 503 767 563 767 q 402 798 469 767 q 310 829 335 829 q 272 813 285 829 q 249 765 260 797 l 142 806 q 200 921 168 886 q 294 956 232 956 q 399 926 332 956 q 483 896 465 896 q 497 898 490 896 q 508 905 503 900 q 517 913 514 910 q 524 924 521 917 q 529 935 528 932 q 534 947 531 938 q 538 957 538 956 z "},"ò":{"ha":729,"x_min":44,"x_max":685,"o":"m 602 590 q 643 541 602 590 q 685 336 685 493 q 602 83 685 179 q 365 -14 519 -14 q 128 83 211 -14 q 44 336 44 179 q 128 590 44 493 q 365 686 211 686 q 602 590 519 686 m 365 121 q 515 336 515 121 q 365 551 515 551 q 214 336 214 551 q 365 121 214 121 m 285 758 l 158 969 l 374 969 l 449 758 l 285 758 z "},"ó":{"ha":729,"x_min":44,"x_max":685,"o":"m 279 758 l 354 969 l 569 969 l 443 758 l 279 758 m 602 590 q 643 541 602 590 q 685 336 685 493 q 602 83 685 179 q 365 -14 519 -14 q 128 83 211 -14 q 44 336 44 179 q 128 590 44 493 q 365 686 211 686 q 602 590 519 686 m 365 121 q 515 336 515 121 q 365 551 515 551 q 214 336 214 551 q 365 121 214 121 z "},"ô":{"ha":729,"x_min":44,"x_max":685,"o":"m 447 969 l 593 758 l 438 758 l 364 872 l 290 758 l 136 758 l 281 969 l 447 969 m 602 590 q 643 541 602 590 q 685 336 685 493 q 602 83 685 179 q 365 -14 519 -14 q 128 83 211 -14 q 44 336 44 179 q 128 590 44 493 q 365 686 211 686 q 602 590 519 686 m 365 121 q 515 336 515 121 q 365 551 515 551 q 214 336 214 551 q 365 121 214 121 z "},"õ":{"ha":729,"x_min":44,"x_max":685,"o":"m 602 590 q 643 541 602 590 q 685 336 685 493 q 602 83 685 179 q 365 -14 519 -14 q 128 83 211 -14 q 44 336 44 179 q 128 590 44 493 q 365 686 211 686 q 602 590 519 686 m 365 121 q 515 336 515 121 q 365 551 515 551 q 214 336 214 551 q 365 121 214 121 m 511 957 l 619 918 q 566 804 596 842 q 476 767 536 767 q 376 798 443 767 q 283 829 308 829 q 246 813 258 829 q 222 765 233 797 l 115 806 q 174 921 142 886 q 268 956 206 956 q 372 926 306 956 q 457 896 439 896 q 470 898 464 896 q 482 905 476 900 q 491 913 488 910 q 498 924 494 917 q 503 935 501 932 q 508 947 504 938 q 511 957 511 956 z "},"ö":{"ha":729,"x_min":44,"x_max":685,"o":"m 433 797 q 420 810 433 797 q 408 860 408 822 q 433 922 408 897 q 497 947 457 947 q 563 922 539 947 q 588 860 588 897 q 563 797 588 822 q 497 772 539 772 q 433 797 457 772 m 167 797 q 155 810 167 797 q 143 860 143 822 q 167 922 143 897 q 232 947 192 947 q 297 922 272 947 q 321 860 321 897 q 297 797 321 822 q 232 772 272 772 q 167 797 192 772 m 602 590 q 643 541 602 590 q 685 336 685 493 q 602 83 685 179 q 365 -14 519 -14 q 128 83 211 -14 q 44 336 44 179 q 128 590 44 493 q 365 686 211 686 q 602 590 519 686 m 365 121 q 515 336 515 121 q 365 551 515 551 q 214 336 214 551 q 365 121 214 121 z "},"÷":{"ha":753,"x_min":67,"x_max":686,"o":"m 447 785 q 461 772 447 785 q 475 717 475 758 q 447 649 475 675 q 376 622 419 622 q 306 649 333 622 q 278 717 278 675 q 306 785 278 758 q 376 813 335 813 q 447 785 418 813 m 686 378 l 67 378 l 67 519 l 686 519 l 686 378 m 447 249 q 461 235 447 249 q 475 181 475 222 q 447 112 475 139 q 376 85 418 85 q 306 112 335 85 q 278 181 278 139 q 306 249 278 222 q 376 275 333 275 q 447 249 419 275 z "},"ø":{"ha":724,"x_min":42,"x_max":682,"o":"m 682 336 q 599 83 682 179 q 363 -14 517 -14 q 265 -1 308 -14 l 218 -117 l 131 -117 l 190 28 q 42 336 42 115 q 125 590 42 493 q 363 686 208 686 q 458 674 414 686 l 507 789 l 593 789 l 532 643 q 644 521 606 601 q 682 336 682 440 m 211 336 q 250 171 211 226 l 406 546 q 363 551 389 551 q 211 336 211 551 m 513 336 q 474 500 513 447 l 318 125 q 363 121 336 121 q 513 336 513 121 z "},"ù":{"ha":758,"x_min":83,"x_max":669,"o":"m 83 672 l 253 672 l 253 243 q 357 132 253 132 q 463 178 426 132 q 500 307 500 224 l 500 672 l 669 672 l 669 0 l 504 0 l 504 117 q 294 -14 443 -14 q 83 215 83 -14 l 83 672 m 326 758 l 200 969 l 415 969 l 490 758 l 326 758 z "},"ú":{"ha":758,"x_min":83,"x_max":669,"o":"m 281 758 l 356 969 l 571 969 l 444 758 l 281 758 m 83 672 l 253 672 l 253 243 q 357 132 253 132 q 463 178 426 132 q 500 307 500 224 l 500 672 l 669 672 l 669 0 l 504 0 l 504 117 q 294 -14 443 -14 q 83 215 83 -14 l 83 672 z "},"û":{"ha":758,"x_min":83,"x_max":669,"o":"m 460 969 l 606 758 l 450 758 l 376 872 l 303 758 l 149 758 l 293 969 l 460 969 m 83 672 l 253 672 l 253 243 q 357 132 253 132 q 463 178 426 132 q 500 307 500 224 l 500 672 l 669 672 l 669 0 l 504 0 l 504 117 q 294 -14 443 -14 q 83 215 83 -14 l 83 672 z "},"ü":{"ha":758,"x_min":83,"x_max":669,"o":"m 448 797 q 436 810 448 797 q 424 860 424 822 q 448 922 424 897 q 513 947 472 947 q 578 922 554 947 q 603 860 603 897 q 578 797 603 822 q 513 772 554 772 q 448 797 472 772 m 183 797 q 170 810 183 797 q 158 860 158 822 q 183 922 158 897 q 247 947 207 947 q 312 922 288 947 q 336 860 336 897 q 312 797 336 822 q 247 772 288 772 q 183 797 207 772 m 83 672 l 253 672 l 253 243 q 357 132 253 132 q 463 178 426 132 q 500 307 500 224 l 500 672 l 669 672 l 669 0 l 504 0 l 504 117 q 294 -14 443 -14 q 83 215 83 -14 l 83 672 z "},"ý":{"ha":622,"x_min":-3,"x_max":625,"o":"m 314 181 l 447 672 l 625 672 l 325 -247 l 154 -247 l 229 -4 l -3 672 l 175 672 l 314 181 m 233 758 l 308 969 l 524 969 l 397 758 l 233 758 z "},"þ":{"ha":775,"x_min":90,"x_max":731,"o":"m 731 336 q 665 82 731 178 q 465 -14 599 -14 q 340 21 394 -14 q 260 108 286 56 l 260 -247 l 90 -247 l 90 925 l 260 925 l 260 567 q 468 686 329 686 q 665 590 599 686 q 731 336 731 493 m 417 121 q 561 336 561 121 q 417 551 561 551 q 299 494 338 551 q 260 336 260 436 q 299 179 260 238 q 417 121 339 121 z "},"ÿ":{"ha":622,"x_min":-3,"x_max":625,"o":"m 314 181 l 447 672 l 625 672 l 325 -247 l 154 -247 l 229 -4 l -3 672 l 175 672 l 314 181 m 383 797 q 370 810 383 797 q 358 860 358 822 q 383 922 358 897 q 447 947 407 947 q 513 922 489 947 q 538 860 538 897 q 513 797 538 822 q 447 772 489 772 q 383 797 407 772 m 117 797 q 105 810 117 797 q 93 860 93 822 q 117 922 93 897 q 182 947 142 947 q 247 922 222 947 q 271 860 271 897 q 247 797 271 822 q 182 772 222 772 q 117 797 142 772 z "},"Ā":{"ha":896,"x_min":13,"x_max":883,"o":"m 13 0 l 351 925 l 544 925 l 883 0 l 707 0 l 633 218 l 263 218 l 189 0 l 13 0 m 449 769 l 311 364 l 585 364 l 449 769 m 683 1029 l 214 1029 l 214 1161 l 683 1161 l 683 1029 z "},"ā":{"ha":735,"x_min":60,"x_max":656,"o":"m 656 0 l 494 0 l 494 93 q 401 15 461 43 q 269 -14 342 -14 q 115 40 171 -14 q 60 188 60 93 q 124 349 60 297 q 299 400 189 400 l 486 400 l 486 443 q 349 543 486 543 q 135 494 239 543 l 107 626 q 371 686 222 686 q 656 451 656 686 l 656 0 m 486 240 l 486 282 l 329 282 q 226 193 226 282 q 329 104 226 104 q 443 142 400 104 q 486 240 486 179 m 585 785 l 175 785 l 175 914 l 585 914 l 585 785 z "},"Ă":{"ha":896,"x_min":13,"x_max":883,"o":"m 13 0 l 351 925 l 544 925 l 883 0 l 707 0 l 633 218 l 263 218 l 189 0 l 13 0 m 449 769 l 311 364 l 585 364 l 449 769 m 540 1188 l 672 1188 q 612 1056 672 1101 q 447 1011 551 1011 q 283 1056 343 1011 q 222 1188 222 1101 l 354 1188 q 447 1110 354 1110 q 540 1188 540 1110 z "},"ă":{"ha":735,"x_min":60,"x_max":656,"o":"m 656 0 l 494 0 l 494 93 q 401 15 461 43 q 269 -14 342 -14 q 115 40 171 -14 q 60 188 60 93 q 124 349 60 297 q 299 400 189 400 l 486 400 l 486 443 q 349 543 486 543 q 135 494 239 543 l 107 626 q 371 686 222 686 q 656 451 656 686 l 656 0 m 486 240 l 486 282 l 329 282 q 226 193 226 282 q 329 104 226 104 q 443 142 400 104 q 486 240 486 179 m 597 953 q 537 811 597 863 q 379 760 476 760 q 222 811 282 760 q 163 953 163 863 l 285 953 q 379 861 285 861 q 474 953 474 861 l 597 953 z "},"Ą":{"ha":896,"x_min":13,"x_max":883,"o":"m 544 925 l 883 0 q 863 -12 879 -3 q 840 -26 846 -22 q 819 -40 833 -31 q 797 -58 804 -50 q 782 -76 790 -65 q 770 -97 774 -86 q 767 -119 767 -108 q 819 -165 767 -165 q 868 -157 843 -165 l 882 -240 q 765 -261 835 -261 q 664 -226 699 -261 q 629 -135 629 -192 q 707 0 629 -58 l 633 218 l 263 218 l 189 0 l 13 0 l 351 925 l 544 925 m 449 769 l 311 364 l 585 364 l 449 769 z "},"ą":{"ha":735,"x_min":60,"x_max":656,"o":"m 642 -157 l 656 -240 q 539 -261 608 -261 q 438 -229 472 -261 q 403 -144 403 -197 q 494 0 403 -60 l 494 93 q 401 15 461 43 q 269 -14 342 -14 q 115 40 171 -14 q 60 188 60 93 q 124 349 60 297 q 299 400 189 400 l 486 400 l 486 443 q 349 543 486 543 q 135 494 239 543 l 107 626 q 371 686 222 686 q 656 451 656 686 l 656 0 q 605 -30 624 -18 q 563 -67 586 -42 q 540 -119 540 -93 q 593 -165 540 -165 q 642 -157 617 -165 m 486 240 l 486 282 l 329 282 q 226 193 226 282 q 329 104 226 104 q 443 142 400 104 q 486 240 486 179 z "},"Ć":{"ha":815,"x_min":49,"x_max":772,"o":"m 174 112 q 111 176 174 112 q 49 463 49 240 q 174 813 49 685 q 508 942 299 942 q 772 890 664 942 l 746 753 q 546 792 646 792 q 306 708 389 792 q 222 463 222 624 q 306 217 222 301 q 546 133 389 133 q 746 172 646 133 l 772 35 q 508 -17 664 -17 q 174 112 299 -17 m 731 1193 l 560 1010 l 394 1010 l 501 1193 l 731 1193 z "},"ć":{"ha":624,"x_min":44,"x_max":583,"o":"m 264 758 l 339 969 l 554 969 l 428 758 l 264 758 m 583 642 l 558 517 q 404 551 483 551 q 214 336 214 551 q 404 122 214 122 q 558 156 488 122 l 583 31 q 376 -14 508 -14 q 129 79 214 -14 q 44 336 44 172 q 129 593 44 500 q 376 686 214 686 q 583 642 508 686 z "},"Ĉ":{"ha":815,"x_min":49,"x_max":772,"o":"m 174 112 q 111 176 174 112 q 49 463 49 240 q 174 813 49 685 q 508 942 299 942 q 772 890 664 942 l 746 753 q 546 792 646 792 q 306 708 389 792 q 222 463 222 624 q 306 217 222 301 q 546 133 389 133 q 746 172 646 133 l 772 35 q 508 -17 664 -17 q 174 112 299 -17 m 578 1193 l 740 1010 l 578 1010 l 499 1103 l 419 1010 l 258 1010 l 418 1193 l 578 1193 z "},"ĉ":{"ha":624,"x_min":44,"x_max":585,"o":"m 439 969 l 585 758 l 429 758 l 356 872 l 282 758 l 128 758 l 272 969 l 439 969 m 583 642 l 558 517 q 404 551 483 551 q 214 336 214 551 q 404 122 214 122 q 558 156 488 122 l 583 31 q 376 -14 508 -14 q 129 79 214 -14 q 44 336 44 172 q 129 593 44 500 q 376 686 214 686 q 583 642 508 686 z "},"Ċ":{"ha":815,"x_min":49,"x_max":772,"o":"m 394 1121 q 423 1195 394 1165 q 497 1225 451 1225 q 573 1195 544 1225 q 601 1121 601 1165 q 572 1047 601 1078 q 497 1017 543 1017 q 423 1047 451 1017 q 394 1121 394 1078 m 174 112 q 111 176 174 112 q 49 463 49 240 q 174 813 49 685 q 508 942 299 942 q 772 890 664 942 l 746 753 q 546 792 646 792 q 306 708 389 792 q 222 463 222 624 q 306 217 222 301 q 546 133 389 133 q 746 172 646 133 l 772 35 q 508 -17 664 -17 q 174 112 299 -17 z "},"ċ":{"ha":624,"x_min":44,"x_max":583,"o":"m 583 642 l 558 517 q 404 551 483 551 q 214 336 214 551 q 404 122 214 122 q 558 156 488 122 l 583 31 q 376 -14 508 -14 q 129 79 214 -14 q 44 336 44 172 q 129 593 44 500 q 376 686 214 686 q 583 642 508 686 m 257 867 q 285 941 257 911 q 360 971 314 971 q 435 941 407 971 q 464 867 464 911 q 435 793 464 824 q 360 763 406 763 q 285 793 314 763 q 257 867 257 824 z "},"Č":{"ha":815,"x_min":49,"x_max":772,"o":"m 174 112 q 111 176 174 112 q 49 463 49 240 q 174 813 49 685 q 508 942 299 942 q 772 890 664 942 l 746 753 q 546 792 646 792 q 306 708 389 792 q 222 463 222 624 q 306 217 222 301 q 546 133 389 133 q 746 172 646 133 l 772 35 q 508 -17 664 -17 q 174 112 299 -17 m 743 1193 l 581 1010 l 421 1010 l 261 1193 l 422 1193 l 501 1101 l 581 1193 l 743 1193 z "},"č":{"ha":624,"x_min":44,"x_max":590,"o":"m 590 969 l 444 758 l 278 758 l 133 969 l 288 969 l 361 856 l 435 969 l 590 969 m 583 642 l 558 517 q 404 551 483 551 q 214 336 214 551 q 404 122 214 122 q 558 156 488 122 l 583 31 q 376 -14 508 -14 q 129 79 214 -14 q 44 336 44 172 q 129 593 44 500 q 376 686 214 686 q 583 642 508 686 z "},"Ď":{"ha":946,"x_min":100,"x_max":901,"o":"m 100 0 l 100 925 l 447 925 q 776 797 651 925 q 901 463 901 669 q 776 128 901 256 q 447 0 651 0 l 100 0 m 274 149 l 439 149 q 647 230 565 149 q 728 463 728 311 q 647 695 728 614 q 439 776 565 776 l 274 776 l 274 149 m 667 1193 l 504 1010 l 344 1010 l 185 1193 l 346 1193 l 425 1101 l 504 1193 l 667 1193 z "},"ď":{"ha":1028,"x_min":44,"x_max":1035,"o":"m 1035 925 l 915 615 l 785 615 l 838 925 l 1035 925 m 44 336 q 110 590 44 494 q 310 686 176 686 q 515 564 451 686 l 515 925 l 685 925 l 685 0 l 521 0 l 521 108 q 307 -14 457 -14 q 110 83 176 -14 q 44 336 44 179 m 358 551 q 213 336 213 551 q 358 121 213 121 q 476 179 436 121 q 515 336 515 238 q 476 494 515 436 q 358 551 438 551 z "},"Đ":{"ha":961,"x_min":29,"x_max":919,"o":"m 29 389 l 29 536 l 118 536 l 118 925 l 464 925 q 794 797 668 925 q 919 463 919 669 q 794 128 919 256 q 464 0 668 0 l 118 0 l 118 389 l 29 389 m 663 230 q 704 270 663 230 q 744 463 744 311 q 663 695 744 614 q 456 776 582 776 l 292 776 l 292 536 l 540 536 l 540 389 l 292 389 l 292 149 l 456 149 q 663 230 582 149 z "},"đ":{"ha":790,"x_min":44,"x_max":768,"o":"m 44 336 q 110 590 44 494 q 310 686 176 686 q 515 564 451 686 l 515 738 l 383 738 l 383 843 l 515 843 l 515 925 l 685 925 l 685 843 l 768 843 l 768 738 l 685 738 l 685 0 l 521 0 l 521 108 q 307 -14 457 -14 q 110 83 176 -14 q 44 336 44 179 m 358 551 q 213 336 213 551 q 358 121 213 121 q 476 179 436 121 q 515 336 515 238 q 476 494 515 436 q 358 551 438 551 z "},"Ē":{"ha":783,"x_min":97,"x_max":719,"o":"m 97 0 l 97 925 l 719 925 l 719 775 l 271 775 l 271 550 l 690 550 l 690 400 l 271 400 l 271 150 l 719 150 l 719 0 l 97 0 m 649 1029 l 179 1029 l 179 1161 l 649 1161 l 649 1029 z "},"ē":{"ha":692,"x_min":44,"x_max":649,"o":"m 649 275 l 217 275 q 410 113 232 113 q 614 158 513 113 l 643 43 q 383 -14 526 -14 q 129 78 214 -14 q 44 336 44 171 q 126 590 44 493 q 367 686 207 686 q 579 599 510 686 q 649 360 649 511 l 649 275 m 364 569 q 259 526 294 569 q 215 394 224 483 l 489 394 l 489 413 q 364 569 489 569 m 565 785 l 156 785 l 156 914 l 565 914 l 565 785 z "},"Ĕ":{"ha":783,"x_min":97,"x_max":719,"o":"m 97 0 l 97 925 l 719 925 l 719 775 l 271 775 l 271 550 l 690 550 l 690 400 l 271 400 l 271 150 l 719 150 l 719 0 l 97 0 m 518 1188 l 650 1188 q 590 1056 650 1101 q 425 1011 529 1011 q 260 1056 321 1011 q 200 1188 200 1101 l 332 1188 q 425 1110 332 1110 q 518 1188 518 1110 z "},"ĕ":{"ha":692,"x_min":44,"x_max":649,"o":"m 649 275 l 217 275 q 410 113 232 113 q 614 158 513 113 l 643 43 q 383 -14 526 -14 q 129 78 214 -14 q 44 336 44 171 q 126 590 44 493 q 367 686 207 686 q 579 599 510 686 q 649 360 649 511 l 649 275 m 364 569 q 259 526 294 569 q 215 394 224 483 l 489 394 l 489 413 q 364 569 489 569 m 583 953 q 523 811 583 863 q 365 760 463 760 q 208 811 268 760 q 149 953 149 863 l 271 953 q 365 861 271 861 q 460 953 460 861 l 583 953 z "},"Ė":{"ha":783,"x_min":97,"x_max":719,"o":"m 314 1121 q 342 1195 314 1165 q 417 1225 371 1225 q 492 1195 464 1225 q 521 1121 521 1165 q 492 1047 521 1078 q 417 1017 463 1017 q 342 1047 371 1017 q 314 1121 314 1078 m 97 0 l 97 925 l 719 925 l 719 775 l 271 775 l 271 550 l 690 550 l 690 400 l 271 400 l 271 150 l 719 150 l 719 0 l 97 0 z "},"ė":{"ha":692,"x_min":44,"x_max":649,"o":"m 649 275 l 217 275 q 410 113 232 113 q 614 158 513 113 l 643 43 q 383 -14 526 -14 q 129 78 214 -14 q 44 336 44 171 q 126 590 44 493 q 367 686 207 686 q 579 599 510 686 q 649 360 649 511 l 649 275 m 364 569 q 259 526 294 569 q 215 394 224 483 l 489 394 l 489 413 q 364 569 489 569 m 258 867 q 287 941 258 911 q 361 971 315 971 q 437 941 408 971 q 465 867 465 911 q 436 793 465 824 q 361 763 407 763 q 287 793 315 763 q 258 867 258 824 z "},"Ę":{"ha":783,"x_min":97,"x_max":719,"o":"m 97 0 l 97 925 l 719 925 l 719 775 l 271 775 l 271 550 l 690 550 l 690 400 l 271 400 l 271 150 l 719 150 l 719 0 q 604 -119 604 -60 q 657 -165 604 -165 q 706 -157 681 -165 l 719 -240 q 603 -261 672 -261 q 501 -229 536 -261 q 467 -144 467 -197 q 558 0 467 -60 l 97 0 z "},"ę":{"ha":692,"x_min":44,"x_max":649,"o":"m 649 275 l 217 275 q 410 113 232 113 q 614 158 513 113 l 643 43 q 479 -119 479 -50 q 532 -165 479 -165 q 581 -157 556 -165 l 594 -240 q 478 -261 547 -261 q 376 -231 411 -261 q 340 -150 340 -200 q 444 -10 340 -67 q 383 -14 390 -14 q 129 78 214 -14 q 44 336 44 171 q 126 590 44 493 q 367 686 207 686 q 579 599 510 686 q 649 360 649 511 l 649 275 m 364 569 q 259 526 294 569 q 215 394 224 483 l 489 394 l 489 413 q 364 569 489 569 z "},"Ě":{"ha":783,"x_min":97,"x_max":719,"o":"m 97 0 l 97 925 l 719 925 l 719 775 l 271 775 l 271 550 l 690 550 l 690 400 l 271 400 l 271 150 l 719 150 l 719 0 l 97 0 m 663 1193 l 500 1010 l 340 1010 l 181 1193 l 342 1193 l 421 1101 l 500 1193 l 663 1193 z "},"ě":{"ha":692,"x_min":44,"x_max":649,"o":"m 586 969 l 440 758 l 274 758 l 129 969 l 283 969 l 357 856 l 431 969 l 586 969 m 649 275 l 217 275 q 410 113 232 113 q 614 158 513 113 l 643 43 q 383 -14 526 -14 q 129 78 214 -14 q 44 336 44 171 q 126 590 44 493 q 367 686 207 686 q 579 599 510 686 q 649 360 649 511 l 649 275 m 364 569 q 259 526 294 569 q 215 394 224 483 l 489 394 l 489 413 q 364 569 489 569 z "},"Ĝ":{"ha":917,"x_min":49,"x_max":838,"o":"m 601 1193 l 764 1010 l 601 1010 l 522 1103 l 443 1010 l 282 1010 l 442 1193 l 601 1193 m 49 457 q 177 811 49 681 q 542 942 306 942 q 838 886 704 942 l 811 746 q 557 793 681 793 q 307 706 392 793 q 222 456 222 618 q 303 210 222 294 q 539 125 385 125 q 672 138 618 125 l 672 428 l 836 428 l 836 28 q 538 -17 718 -17 q 174 115 299 -17 q 49 457 49 247 z "},"ĝ":{"ha":775,"x_min":44,"x_max":685,"o":"m 479 969 l 625 758 l 469 758 l 396 872 l 322 758 l 168 758 l 313 969 l 479 969 m 685 672 l 685 33 q 353 -261 685 -261 q 111 -215 235 -261 l 136 -89 q 351 -132 244 -132 q 517 26 517 -132 l 517 138 q 308 15 450 15 q 110 109 175 15 q 44 351 44 203 q 110 592 44 499 q 308 686 176 686 q 519 564 457 686 l 519 672 l 685 672 m 517 351 q 476 501 517 449 q 364 553 436 553 q 252 499 290 553 q 214 351 214 446 q 364 150 214 150 q 475 203 433 150 q 517 351 517 256 z "},"Ğ":{"ha":917,"x_min":49,"x_max":838,"o":"m 49 457 q 177 811 49 681 q 542 942 306 942 q 838 886 704 942 l 811 746 q 557 793 681 793 q 307 706 392 793 q 222 456 222 618 q 303 210 222 294 q 539 125 385 125 q 672 138 618 125 l 672 428 l 836 428 l 836 28 q 538 -17 718 -17 q 174 115 299 -17 q 49 457 49 247 m 613 1188 l 744 1188 q 684 1056 744 1101 q 519 1011 624 1011 q 355 1056 415 1011 q 294 1188 294 1101 l 426 1188 q 519 1110 426 1110 q 613 1188 613 1110 z "},"ğ":{"ha":775,"x_min":44,"x_max":685,"o":"m 685 672 l 685 33 q 353 -261 685 -261 q 111 -215 235 -261 l 136 -89 q 351 -132 244 -132 q 517 26 517 -132 l 517 138 q 308 15 450 15 q 110 109 175 15 q 44 351 44 203 q 110 592 44 499 q 308 686 176 686 q 519 564 457 686 l 519 672 l 685 672 m 517 351 q 476 501 517 449 q 364 553 436 553 q 252 499 290 553 q 214 351 214 446 q 364 150 214 150 q 475 203 433 150 q 517 351 517 256 m 601 953 q 541 811 601 863 q 383 760 481 760 q 226 811 286 760 q 167 953 167 863 l 289 953 q 383 861 289 861 q 478 953 478 861 l 601 953 z "},"Ġ":{"ha":917,"x_min":49,"x_max":838,"o":"m 406 1121 q 434 1195 406 1165 q 508 1225 463 1225 q 584 1195 556 1225 q 613 1121 613 1165 q 583 1047 613 1078 q 508 1017 554 1017 q 434 1047 463 1017 q 406 1121 406 1078 m 49 457 q 177 811 49 681 q 542 942 306 942 q 838 886 704 942 l 811 746 q 557 793 681 793 q 307 706 392 793 q 222 456 222 618 q 303 210 222 294 q 539 125 385 125 q 672 138 618 125 l 672 428 l 836 428 l 836 28 q 538 -17 718 -17 q 174 115 299 -17 q 49 457 49 247 z "},"ġ":{"ha":775,"x_min":44,"x_max":685,"o":"m 685 672 l 685 33 q 353 -261 685 -261 q 111 -215 235 -261 l 136 -89 q 351 -132 244 -132 q 517 26 517 -132 l 517 138 q 308 15 450 15 q 110 109 175 15 q 44 351 44 203 q 110 592 44 499 q 308 686 176 686 q 519 564 457 686 l 519 672 l 685 672 m 517 351 q 476 501 517 449 q 364 553 436 553 q 252 499 290 553 q 214 351 214 446 q 364 150 214 150 q 475 203 433 150 q 517 351 517 256 m 281 867 q 309 941 281 911 q 383 971 338 971 q 459 941 431 971 q 488 867 488 911 q 458 793 488 824 q 383 763 429 763 q 309 793 338 763 q 281 867 281 824 z "},"Ģ":{"ha":917,"x_min":49,"x_max":838,"o":"m 644 -100 l 547 -347 l 406 -347 l 450 -100 l 644 -100 m 49 457 q 177 811 49 681 q 542 942 306 942 q 838 886 704 942 l 811 746 q 557 793 681 793 q 307 706 392 793 q 222 456 222 618 q 303 210 222 294 q 539 125 385 125 q 672 138 618 125 l 672 428 l 836 428 l 836 28 q 538 -17 718 -17 q 174 115 299 -17 q 49 457 49 247 z "},"ģ":{"ha":775,"x_min":44,"x_max":685,"o":"m 285 758 l 375 969 l 532 969 l 485 758 l 285 758 m 685 672 l 685 33 q 353 -261 685 -261 q 111 -215 235 -261 l 136 -89 q 351 -132 244 -132 q 517 26 517 -132 l 517 138 q 308 15 450 15 q 110 109 175 15 q 44 351 44 203 q 110 592 44 499 q 308 686 176 686 q 519 564 457 686 l 519 672 l 685 672 m 517 351 q 476 501 517 449 q 364 553 436 553 q 252 499 290 553 q 214 351 214 446 q 364 150 214 150 q 475 203 433 150 q 517 351 517 256 z "},"Ĥ":{"ha":947,"x_min":97,"x_max":850,"o":"m 97 0 l 97 925 l 271 925 l 271 546 l 676 546 l 676 925 l 850 925 l 850 0 l 676 0 l 676 392 l 271 392 l 271 0 l 97 0 m 553 1193 l 715 1010 l 553 1010 l 474 1103 l 394 1010 l 233 1010 l 393 1193 l 553 1193 z "},"ĥ":{"ha":765,"x_min":-64,"x_max":683,"o":"m 683 0 l 514 0 l 514 429 q 407 540 514 540 q 298 495 336 540 q 260 367 260 450 l 260 0 l 90 0 l 90 925 l 260 925 l 260 560 q 468 686 318 686 q 683 457 683 686 l 683 0 m 256 1193 l 418 1010 l 256 1010 l 176 1103 l 97 1010 l -64 1010 l 96 1193 l 256 1193 z "},"Ħ":{"ha":1031,"x_min":39,"x_max":992,"o":"m 892 0 l 718 0 l 718 392 l 313 392 l 313 0 l 139 0 l 139 685 l 39 685 l 39 793 l 139 793 l 139 925 l 313 925 l 313 793 l 718 793 l 718 925 l 892 925 l 892 793 l 992 793 l 992 685 l 892 685 l 892 0 m 313 546 l 718 546 l 718 685 l 313 685 l 313 546 z "},"ħ":{"ha":782,"x_min":22,"x_max":700,"o":"m 22 738 l 22 843 l 106 843 l 106 925 l 275 925 l 275 843 l 406 843 l 406 738 l 275 738 l 275 560 q 483 686 336 686 q 700 457 700 686 l 700 0 l 531 0 l 531 429 q 424 540 531 540 q 313 495 351 540 q 275 367 275 450 l 275 0 l 106 0 l 106 738 l 22 738 z "},"Ĩ":{"ha":382,"x_min":-68,"x_max":453,"o":"m 104 0 l 104 925 l 278 925 l 278 0 l 104 0 m 344 1206 l 453 1165 q 401 1055 432 1094 q 313 1015 369 1015 q 204 1046 279 1015 q 104 1076 129 1076 q 75 1066 88 1076 q 58 1046 63 1056 q 43 1013 53 1036 l -68 1053 q -10 1167 -46 1131 q 92 1203 26 1203 q 199 1173 129 1203 q 288 1143 268 1143 q 303 1147 296 1143 q 316 1153 311 1150 q 326 1165 321 1157 q 333 1178 331 1174 q 339 1192 335 1182 q 344 1206 343 1203 z "},"ĩ":{"ha":349,"x_min":-78,"x_max":426,"o":"m 260 0 l 90 0 l 90 672 l 260 672 l 260 0 m 318 957 l 426 918 q 373 804 403 842 q 283 767 343 767 q 183 798 250 767 q 90 829 115 829 q 53 813 65 829 q 29 765 40 797 l -78 806 q -19 921 -51 886 q 75 956 13 956 q 179 926 113 956 q 264 896 246 896 q 277 898 271 896 q 289 905 283 900 q 298 913 294 910 q 305 924 301 917 q 310 935 308 932 q 315 947 311 938 q 318 957 318 956 z "},"Ī":{"ha":382,"x_min":-43,"x_max":426,"o":"m 104 0 l 104 925 l 278 925 l 278 0 l 104 0 m 426 1029 l -43 1029 l -43 1161 l 426 1161 l 426 1029 z "},"ī":{"ha":349,"x_min":-29,"x_max":381,"o":"m 260 0 l 90 0 l 90 672 l 260 672 l 260 0 m 381 785 l -29 785 l -29 914 l 381 914 l 381 785 z "},"Ĭ":{"ha":382,"x_min":-35,"x_max":415,"o":"m 104 0 l 104 925 l 278 925 l 278 0 l 104 0 m 283 1188 l 415 1188 q 355 1056 415 1101 q 190 1011 294 1011 q 26 1056 86 1011 q -35 1188 -35 1101 l 97 1188 q 190 1110 97 1110 q 283 1188 283 1110 z "},"ĭ":{"ha":349,"x_min":-42,"x_max":393,"o":"m 260 0 l 90 0 l 90 672 l 260 672 l 260 0 m 393 953 q 333 811 393 863 q 175 760 272 760 q 18 811 78 760 q -42 953 -42 863 l 81 953 q 175 861 81 861 q 269 953 269 861 l 393 953 z "},"Į":{"ha":382,"x_min":40,"x_max":278,"o":"m 264 -158 l 278 -240 q 175 -261 231 -261 q 74 -227 108 -261 q 40 -135 40 -193 q 104 0 40 -67 l 104 925 l 278 925 l 278 0 q 178 -119 178 -62 q 224 -165 178 -165 q 264 -158 247 -165 z "},"į":{"ha":349,"x_min":21,"x_max":278,"o":"m 71 860 q 99 934 71 904 q 175 964 128 964 q 249 934 221 964 q 278 860 278 904 q 249 786 278 817 q 175 756 221 756 q 100 786 129 756 q 71 860 71 817 m 246 -158 l 260 -240 q 156 -261 214 -261 q 55 -227 89 -261 q 21 -135 21 -193 q 90 0 21 -64 l 90 672 l 260 672 l 260 0 q 160 -119 160 -62 q 204 -165 160 -165 q 246 -158 228 -165 z "},"İ":{"ha":382,"x_min":89,"x_max":296,"o":"m 104 0 l 104 925 l 278 925 l 278 0 l 104 0 m 89 1121 q 117 1195 89 1165 q 192 1225 146 1225 q 267 1195 239 1225 q 296 1121 296 1165 q 267 1047 296 1078 q 192 1017 238 1017 q 117 1047 146 1017 q 89 1121 89 1078 z "},"ı":{"ha":349,"x_min":90,"x_max":260,"o":"m 260 0 l 90 0 l 90 672 l 260 672 l 260 0 z "},"Ĳ":{"ha":919,"x_min":104,"x_max":822,"o":"m 104 0 l 104 925 l 278 925 l 278 0 l 104 0 m 403 14 l 422 147 q 538 132 479 132 q 623 158 597 132 q 649 239 649 183 l 649 925 l 822 925 l 822 240 q 758 53 822 121 q 575 -14 694 -14 q 403 14 483 -14 z "},"ĳ":{"ha":697,"x_min":71,"x_max":626,"o":"m 71 857 q 99 931 71 901 q 175 961 128 961 q 249 931 221 961 q 278 857 278 901 q 249 783 278 814 q 175 753 221 753 q 100 783 129 753 q 71 857 71 814 m 260 0 l 90 0 l 90 672 l 260 672 l 260 0 m 419 857 q 448 931 419 901 q 524 961 476 961 q 598 931 569 961 q 626 857 626 901 q 598 783 626 814 q 524 753 569 753 q 449 783 478 753 q 419 857 419 814 m 381 -118 q 439 -56 439 -118 l 439 672 l 608 672 l 608 -78 q 560 -214 608 -167 q 419 -261 513 -261 q 314 -246 363 -261 l 326 -111 q 381 -118 349 -118 z "},"Ĵ":{"ha":538,"x_min":22,"x_max":596,"o":"m 22 14 l 42 147 q 157 132 99 132 q 242 158 217 132 q 268 239 268 183 l 268 925 l 442 925 l 442 240 q 378 53 442 121 q 194 -14 314 -14 q 22 14 103 -14 m 433 1193 l 596 1010 l 433 1010 l 354 1103 l 275 1010 l 114 1010 l 274 1193 l 433 1193 z "},"ĵ":{"ha":349,"x_min":-53,"x_max":404,"o":"m 32 -118 q 90 -56 90 -118 l 90 672 l 260 672 l 260 -78 q 212 -214 260 -167 q 71 -261 164 -261 q -35 -246 14 -261 l -22 -111 q 32 -118 0 -118 m 258 969 l 404 758 l 249 758 l 175 872 l 101 758 l -53 758 l 92 969 l 258 969 z "},"Ķ":{"ha":865,"x_min":97,"x_max":849,"o":"m 97 0 l 97 925 l 271 925 l 271 508 l 619 925 l 843 925 l 446 474 l 849 0 l 625 0 l 271 439 l 271 0 l 97 0 m 546 -100 l 449 -347 l 307 -347 l 351 -100 l 546 -100 z "},"ķ":{"ha":692,"x_min":90,"x_max":689,"o":"m 493 0 l 260 310 l 260 0 l 90 0 l 90 925 l 260 925 l 260 372 l 483 672 l 678 672 l 421 342 l 689 0 l 493 0 m 479 -100 l 382 -347 l 240 -347 l 285 -100 l 479 -100 z "},"ĸ":{"ha":692,"x_min":90,"x_max":689,"o":"m 492 0 l 260 310 l 260 0 l 90 0 l 90 672 l 260 672 l 260 375 l 483 672 l 678 672 l 424 342 l 689 0 l 492 0 z "},"Ĺ":{"ha":725,"x_min":97,"x_max":693,"o":"m 444 1193 l 274 1010 l 108 1010 l 215 1193 l 444 1193 m 97 0 l 97 925 l 271 925 l 271 150 l 693 150 l 693 0 l 97 0 z "},"ĺ":{"ha":390,"x_min":88,"x_max":428,"o":"m 428 1193 l 257 1010 l 92 1010 l 199 1193 l 428 1193 m 365 4 q 257 -12 318 -12 q 127 36 167 -12 q 88 178 88 85 l 88 925 l 257 925 l 257 179 q 313 124 257 124 q 361 131 338 124 l 365 4 z "},"Ļ":{"ha":725,"x_min":97,"x_max":693,"o":"m 513 -100 l 415 -347 l 274 -347 l 318 -100 l 513 -100 m 97 0 l 97 925 l 271 925 l 271 150 l 693 150 l 693 0 l 97 0 z "},"ļ":{"ha":390,"x_min":88,"x_max":365,"o":"m 333 -100 l 236 -347 l 94 -347 l 139 -100 l 333 -100 m 365 4 q 257 -12 318 -12 q 127 36 167 -12 q 88 178 88 85 l 88 925 l 257 925 l 257 179 q 313 124 257 124 q 361 131 338 124 l 365 4 z "},"Ľ":{"ha":725,"x_min":97,"x_max":693,"o":"m 656 925 l 536 615 l 406 615 l 458 925 l 656 925 m 97 0 l 97 925 l 271 925 l 271 150 l 693 150 l 693 0 l 97 0 z "},"ľ":{"ha":558,"x_min":88,"x_max":592,"o":"m 592 925 l 472 615 l 342 615 l 394 925 l 592 925 m 365 4 q 257 -12 318 -12 q 127 36 167 -12 q 88 178 88 85 l 88 925 l 257 925 l 257 179 q 313 124 257 124 q 361 131 338 124 l 365 4 z "},"Ŀ":{"ha":725,"x_min":97,"x_max":693,"o":"m 97 0 l 97 925 l 271 925 l 271 150 l 693 150 l 693 0 l 97 0 m 423 352 q 409 366 423 352 q 394 426 394 381 q 423 501 394 472 q 497 529 451 529 q 572 501 543 529 q 600 426 600 472 q 572 352 600 381 q 497 324 543 324 q 423 352 451 324 z "},"ŀ":{"ha":550,"x_min":88,"x_max":550,"o":"m 365 4 q 257 -12 318 -12 q 127 36 167 -12 q 88 178 88 85 l 88 925 l 257 925 l 257 179 q 313 124 257 124 q 361 131 338 124 l 365 4 m 373 316 q 359 330 373 316 q 344 390 344 344 q 373 465 344 436 q 447 493 401 493 q 522 465 493 493 q 550 390 550 436 q 522 316 550 344 q 447 288 493 288 q 373 316 401 288 z "},"Ł":{"ha":739,"x_min":29,"x_max":706,"o":"m 29 315 l 29 471 l 110 506 l 110 925 l 283 925 l 283 583 l 483 672 l 483 517 l 283 428 l 283 150 l 706 150 l 706 0 l 110 0 l 110 350 l 29 315 z "},"ł":{"ha":394,"x_min":22,"x_max":367,"o":"m 22 353 l 22 513 l 89 543 l 89 925 l 258 925 l 258 622 l 365 672 l 365 513 l 258 463 l 258 179 q 314 124 258 124 q 363 131 339 124 l 367 4 q 258 -12 319 -12 q 128 36 168 -12 q 89 178 89 85 l 89 383 l 22 353 z "},"Ń":{"ha":982,"x_min":97,"x_max":885,"o":"m 722 1193 l 551 1010 l 386 1010 l 493 1193 l 722 1193 m 97 0 l 97 925 l 269 925 l 715 288 l 715 925 l 885 925 l 885 0 l 713 0 l 265 638 l 265 0 l 97 0 z "},"ń":{"ha":765,"x_min":90,"x_max":683,"o":"m 293 758 l 368 969 l 583 969 l 457 758 l 293 758 m 683 0 l 514 0 l 514 429 q 407 540 514 540 q 298 495 336 540 q 260 367 260 450 l 260 0 l 90 0 l 90 672 l 254 672 l 254 556 q 468 686 317 686 q 683 457 683 686 l 683 0 z "},"Ņ":{"ha":982,"x_min":97,"x_max":885,"o":"m 601 -100 l 504 -347 l 363 -347 l 407 -100 l 601 -100 m 97 0 l 97 925 l 269 925 l 715 288 l 715 925 l 885 925 l 885 0 l 713 0 l 265 638 l 265 0 l 97 0 z "},"ņ":{"ha":765,"x_min":90,"x_max":683,"o":"m 490 -100 l 393 -347 l 251 -347 l 296 -100 l 490 -100 m 683 0 l 514 0 l 514 429 q 407 540 514 540 q 298 495 336 540 q 260 367 260 450 l 260 0 l 90 0 l 90 672 l 254 672 l 254 556 q 468 686 317 686 q 683 457 683 686 l 683 0 z "},"Ň":{"ha":982,"x_min":97,"x_max":885,"o":"m 97 0 l 97 925 l 269 925 l 715 288 l 715 925 l 885 925 l 885 0 l 713 0 l 265 638 l 265 0 l 97 0 m 732 1193 l 569 1010 l 410 1010 l 250 1193 l 411 1193 l 490 1101 l 569 1193 l 732 1193 z "},"ň":{"ha":765,"x_min":90,"x_max":683,"o":"m 614 969 l 468 758 l 301 758 l 157 969 l 311 969 l 385 856 l 458 969 l 614 969 m 683 0 l 514 0 l 514 429 q 407 540 514 540 q 298 495 336 540 q 260 367 260 450 l 260 0 l 90 0 l 90 672 l 254 672 l 254 556 q 468 686 317 686 q 683 457 683 686 l 683 0 z "},"ŉ":{"ha":953,"x_min":18,"x_max":869,"o":"m 268 925 l 149 615 l 18 615 l 71 925 l 268 925 m 869 0 l 700 0 l 700 429 q 593 540 700 540 q 484 495 522 540 q 446 367 446 450 l 446 0 l 276 0 l 276 672 l 440 672 l 440 556 q 654 686 503 686 q 869 457 869 686 l 869 0 z "},"Ŋ":{"ha":982,"x_min":97,"x_max":885,"o":"m 885 925 l 885 128 q 813 -118 885 -24 q 572 -261 742 -212 l 517 -139 q 707 31 672 -83 l 265 638 l 265 0 l 97 0 l 97 925 l 269 925 l 715 288 l 715 925 l 885 925 z "},"ŋ":{"ha":765,"x_min":90,"x_max":683,"o":"m 383 -143 q 483 -52 451 -103 q 514 75 514 -1 l 514 429 q 407 540 514 540 q 298 495 336 540 q 260 367 260 450 l 260 0 l 90 0 l 90 672 l 254 672 l 254 556 q 468 686 317 686 q 683 457 683 686 l 683 82 q 458 -261 683 -149 l 383 -143 z "},"Ō":{"ha":967,"x_min":49,"x_max":918,"o":"m 160 116 q 104 182 160 116 q 49 463 49 249 q 160 809 49 676 q 483 942 271 942 q 807 809 696 942 q 918 463 918 676 q 807 116 918 249 q 483 -17 696 -17 q 160 116 271 -17 m 483 132 q 679 221 614 132 q 744 463 744 310 q 679 704 744 615 q 483 793 614 793 q 287 704 351 793 q 222 463 222 615 q 287 221 222 310 q 483 132 351 132 m 718 1029 l 249 1029 l 249 1161 l 718 1161 l 718 1029 z "},"ō":{"ha":729,"x_min":44,"x_max":685,"o":"m 569 785 l 160 785 l 160 914 l 569 914 l 569 785 m 602 590 q 643 541 602 590 q 685 336 685 493 q 602 83 685 179 q 365 -14 519 -14 q 128 83 211 -14 q 44 336 44 179 q 128 590 44 493 q 365 686 211 686 q 602 590 519 686 m 365 121 q 515 336 515 121 q 365 551 515 551 q 214 336 214 551 q 365 121 214 121 z "},"Ŏ":{"ha":967,"x_min":49,"x_max":918,"o":"m 160 116 q 104 182 160 116 q 49 463 49 249 q 160 809 49 676 q 483 942 271 942 q 807 809 696 942 q 918 463 918 676 q 807 116 918 249 q 483 -17 696 -17 q 160 116 271 -17 m 483 132 q 679 221 614 132 q 744 463 744 310 q 679 704 744 615 q 483 793 614 793 q 287 704 351 793 q 222 463 222 615 q 287 221 222 310 q 483 132 351 132 m 575 1188 l 707 1188 q 647 1056 707 1101 q 482 1011 586 1011 q 317 1056 378 1011 q 257 1188 257 1101 l 389 1188 q 482 1110 389 1110 q 575 1188 575 1110 z "},"ŏ":{"ha":729,"x_min":44,"x_max":685,"o":"m 602 590 q 643 541 602 590 q 685 336 685 493 q 602 83 685 179 q 365 -14 519 -14 q 128 83 211 -14 q 44 336 44 179 q 128 590 44 493 q 365 686 211 686 q 602 590 519 686 m 365 121 q 515 336 515 121 q 365 551 515 551 q 214 336 214 551 q 365 121 214 121 m 582 953 q 522 811 582 863 q 364 760 461 760 q 207 811 267 760 q 147 953 147 863 l 269 953 q 364 861 269 861 q 458 953 458 861 l 582 953 z "},"Ő":{"ha":967,"x_min":49,"x_max":918,"o":"m 815 1193 l 703 1010 l 546 1010 l 621 1193 l 815 1193 m 522 1193 l 429 1010 l 279 1010 l 340 1193 l 522 1193 m 160 116 q 104 182 160 116 q 49 463 49 249 q 160 809 49 676 q 483 942 271 942 q 807 809 696 942 q 918 463 918 676 q 807 116 918 249 q 483 -17 696 -17 q 160 116 271 -17 m 483 132 q 679 221 614 132 q 744 463 744 310 q 679 704 744 615 q 483 793 614 793 q 287 704 351 793 q 222 463 222 615 q 287 221 222 310 q 483 132 351 132 z "},"ő":{"ha":729,"x_min":44,"x_max":693,"o":"m 693 969 l 576 758 l 419 758 l 499 969 l 693 969 m 408 969 l 311 758 l 161 758 l 226 969 l 408 969 m 602 590 q 643 541 602 590 q 685 336 685 493 q 602 83 685 179 q 365 -14 519 -14 q 128 83 211 -14 q 44 336 44 179 q 128 590 44 493 q 365 686 211 686 q 602 590 519 686 m 365 121 q 515 336 515 121 q 365 551 515 551 q 214 336 214 551 q 365 121 214 121 z "},"Œ":{"ha":1403,"x_min":49,"x_max":1336,"o":"m 536 942 q 714 925 635 942 l 1336 925 l 1336 775 l 888 775 l 888 550 l 1307 550 l 1307 400 l 888 400 l 888 150 l 1336 150 l 1336 0 l 714 0 q 536 -17 635 -17 q 171 111 293 -17 q 49 463 49 239 q 171 814 49 686 q 536 942 293 942 m 714 150 l 714 775 q 538 793 638 793 q 299 703 376 793 q 222 463 222 614 q 544 132 222 132 q 714 150 640 132 z "},"œ":{"ha":1151,"x_min":44,"x_max":1118,"o":"m 1118 276 l 688 276 q 744 153 699 193 q 881 113 790 113 q 1085 158 983 113 l 1114 43 q 854 -14 996 -14 q 596 92 679 -14 q 365 -14 511 -14 q 128 83 211 -14 q 44 336 44 179 q 128 590 44 493 q 365 686 211 686 q 596 579 511 686 q 838 686 678 686 q 1049 599 981 686 q 1118 360 1118 511 l 1118 276 m 365 121 q 441 121 365 121 q 517 336 517 121 q 365 551 517 551 q 214 336 214 551 q 365 121 214 121 m 835 569 q 730 526 765 569 q 686 394 694 483 l 960 394 l 960 413 q 835 569 960 569 z "},"Ŕ":{"ha":917,"x_min":97,"x_max":882,"o":"m 826 636 q 774 468 826 542 q 633 364 722 394 l 882 0 l 664 0 l 443 346 l 271 346 l 271 0 l 97 0 l 97 925 l 521 925 q 745 847 664 925 q 826 636 826 768 m 653 636 q 610 745 653 706 q 494 785 567 785 l 271 785 l 271 483 l 494 483 q 610 524 567 483 q 653 636 653 564 m 647 1193 l 476 1010 l 311 1010 l 418 1193 l 647 1193 z "},"ŕ":{"ha":486,"x_min":90,"x_max":481,"o":"m 188 758 l 263 969 l 478 969 l 351 758 l 188 758 m 481 518 q 422 522 453 522 q 261 314 261 522 l 261 0 l 90 0 l 90 672 l 256 672 l 256 546 q 422 681 299 681 q 481 674 460 681 l 481 518 z "},"Ŗ":{"ha":917,"x_min":97,"x_max":882,"o":"m 565 -100 l 468 -347 l 326 -347 l 371 -100 l 565 -100 m 826 636 q 774 468 826 542 q 633 364 722 394 l 882 0 l 664 0 l 443 346 l 271 346 l 271 0 l 97 0 l 97 925 l 521 925 q 745 847 664 925 q 826 636 826 768 m 653 636 q 610 745 653 706 q 494 785 567 785 l 271 785 l 271 483 l 494 483 q 610 524 567 483 q 653 636 653 564 z "},"ŗ":{"ha":486,"x_min":33,"x_max":481,"o":"m 272 -100 l 175 -347 l 33 -347 l 78 -100 l 272 -100 m 481 518 q 422 522 453 522 q 261 314 261 522 l 261 0 l 90 0 l 90 672 l 256 672 l 256 546 q 422 681 299 681 q 481 674 460 681 l 481 518 z "},"Ř":{"ha":917,"x_min":97,"x_max":882,"o":"m 826 636 q 774 468 826 542 q 633 364 722 394 l 882 0 l 664 0 l 443 346 l 271 346 l 271 0 l 97 0 l 97 925 l 521 925 q 745 847 664 925 q 826 636 826 768 m 653 636 q 610 745 653 706 q 494 785 567 785 l 271 785 l 271 483 l 494 483 q 610 524 567 483 q 653 636 653 564 m 660 1193 l 497 1010 l 338 1010 l 178 1193 l 339 1193 l 418 1101 l 497 1193 l 660 1193 z "},"ř":{"ha":486,"x_min":61,"x_max":518,"o":"m 518 969 l 372 758 l 206 758 l 61 969 l 215 969 l 289 856 l 363 969 l 518 969 m 481 518 q 422 522 453 522 q 261 314 261 522 l 261 0 l 90 0 l 90 672 l 256 672 l 256 546 q 422 681 299 681 q 481 674 460 681 l 481 518 z "},"Ś":{"ha":786,"x_min":53,"x_max":742,"o":"m 742 264 q 648 58 742 132 q 386 -17 554 -17 q 56 51 218 -17 l 93 192 q 385 126 249 126 q 567 244 567 126 q 524 334 567 306 q 364 388 481 363 q 128 485 204 421 q 53 667 53 549 q 397 942 53 942 q 708 878 569 942 l 676 739 q 400 800 538 800 q 269 774 311 800 q 226 685 226 749 q 269 603 226 629 q 432 547 311 578 q 669 448 596 507 q 742 264 742 389 m 617 1193 l 446 1010 l 281 1010 l 388 1193 l 617 1193 z "},"ś":{"ha":608,"x_min":46,"x_max":569,"o":"m 204 758 l 279 969 l 494 969 l 368 758 l 204 758 m 569 210 q 499 45 569 104 q 303 -14 429 -14 q 50 38 181 -14 l 86 160 q 300 113 207 113 q 403 182 403 113 q 380 228 403 211 q 297 261 357 244 q 99 351 151 303 q 46 483 46 399 q 114 635 46 585 q 308 686 182 686 q 540 640 444 686 l 510 518 q 314 561 411 561 q 237 548 261 561 q 213 501 213 535 q 239 453 213 468 q 353 413 265 439 q 516 338 463 381 q 569 210 569 294 z "},"Ŝ":{"ha":786,"x_min":53,"x_max":742,"o":"m 742 264 q 648 58 742 132 q 386 -17 554 -17 q 56 51 218 -17 l 93 192 q 385 126 249 126 q 567 244 567 126 q 524 334 567 306 q 364 388 481 363 q 128 485 204 421 q 53 667 53 549 q 397 942 53 942 q 708 878 569 942 l 676 739 q 400 800 538 800 q 269 774 311 800 q 226 685 226 749 q 269 603 226 629 q 432 547 311 578 q 669 448 596 507 q 742 264 742 389 m 478 1193 l 640 1010 l 478 1010 l 399 1103 l 319 1010 l 158 1010 l 318 1193 l 478 1193 z "},"ŝ":{"ha":608,"x_min":46,"x_max":569,"o":"m 389 969 l 535 758 l 379 758 l 306 872 l 232 758 l 78 758 l 222 969 l 389 969 m 569 210 q 499 45 569 104 q 303 -14 429 -14 q 50 38 181 -14 l 86 160 q 300 113 207 113 q 403 182 403 113 q 380 228 403 211 q 297 261 357 244 q 99 351 151 303 q 46 483 46 399 q 114 635 46 585 q 308 686 182 686 q 540 640 444 686 l 510 518 q 314 561 411 561 q 237 548 261 561 q 213 501 213 535 q 239 453 213 468 q 353 413 265 439 q 516 338 463 381 q 569 210 569 294 z "},"Ş":{"ha":786,"x_min":53,"x_max":742,"o":"m 540 -146 q 303 -261 540 -256 l 299 -190 q 397 -154 397 -187 q 377 -129 397 -135 q 308 -121 357 -124 l 332 -14 q 56 51 182 -3 l 93 192 q 385 126 249 126 q 567 244 567 126 q 524 334 567 306 q 364 388 481 363 q 128 485 204 421 q 53 667 53 549 q 397 942 53 942 q 708 878 569 942 l 676 739 q 400 800 538 800 q 269 774 311 800 q 226 685 226 749 q 269 603 226 629 q 432 547 311 578 q 669 448 596 507 q 742 264 742 389 q 655 64 742 138 q 411 -15 568 -10 l 403 -60 q 505 -81 469 -62 q 540 -146 540 -100 z "},"ş":{"ha":608,"x_min":46,"x_max":569,"o":"m 450 -146 q 213 -261 450 -256 l 208 -190 q 307 -154 307 -187 q 287 -129 307 -135 q 218 -121 267 -124 l 243 -10 q 50 38 139 1 l 86 160 q 300 113 207 113 q 403 182 403 113 q 380 228 403 211 q 297 261 357 244 q 99 351 151 303 q 46 483 46 399 q 114 635 46 585 q 308 686 182 686 q 540 640 444 686 l 510 518 q 314 561 411 561 q 237 548 261 561 q 213 501 213 535 q 239 453 213 468 q 353 413 265 439 q 516 338 463 381 q 569 210 569 294 q 504 49 569 108 q 321 -14 439 -10 l 313 -60 q 415 -81 379 -62 q 450 -146 450 -100 z "},"Š":{"ha":786,"x_min":53,"x_max":742,"o":"m 742 264 q 648 58 742 132 q 386 -17 554 -17 q 56 51 218 -17 l 93 192 q 385 126 249 126 q 567 244 567 126 q 524 334 567 306 q 364 388 481 363 q 128 485 204 421 q 53 667 53 549 q 397 942 53 942 q 708 878 569 942 l 676 739 q 400 800 538 800 q 269 774 311 800 q 226 685 226 749 q 269 603 226 629 q 432 547 311 578 q 669 448 596 507 q 742 264 742 389 m 633 1193 l 471 1010 l 311 1010 l 151 1193 l 313 1193 l 392 1101 l 471 1193 l 633 1193 z "},"š":{"ha":608,"x_min":46,"x_max":569,"o":"m 531 969 l 385 758 l 218 758 l 74 969 l 228 969 l 301 856 l 375 969 l 531 969 m 569 210 q 499 45 569 104 q 303 -14 429 -14 q 50 38 181 -14 l 86 160 q 300 113 207 113 q 403 182 403 113 q 380 228 403 211 q 297 261 357 244 q 99 351 151 303 q 46 483 46 399 q 114 635 46 585 q 308 686 182 686 q 540 640 444 686 l 510 518 q 314 561 411 561 q 237 548 261 561 q 213 501 213 535 q 239 453 213 468 q 353 413 265 439 q 516 338 463 381 q 569 210 569 294 z "},"Ţ":{"ha":765,"x_min":31,"x_max":736,"o":"m 481 -100 l 383 -347 l 242 -347 l 286 -100 l 481 -100 m 736 775 l 469 775 l 469 0 l 296 0 l 296 775 l 31 775 l 31 925 l 736 925 l 736 775 z "},"ţ":{"ha":469,"x_min":33,"x_max":435,"o":"m 381 -100 l 283 -347 l 142 -347 l 186 -100 l 381 -100 m 431 4 q 310 -14 371 -14 q 169 31 214 -14 q 124 171 124 76 l 124 529 l 33 529 l 33 672 l 124 672 l 124 846 l 293 846 l 293 672 l 435 672 l 435 529 l 293 529 l 293 188 q 308 138 293 153 q 363 122 324 122 q 426 129 392 122 l 431 4 z "},"Ť":{"ha":765,"x_min":31,"x_max":736,"o":"m 736 775 l 469 775 l 469 0 l 296 0 l 296 775 l 31 775 l 31 925 l 736 925 l 736 775 m 625 1193 l 463 1010 l 303 1010 l 143 1193 l 304 1193 l 383 1101 l 463 1193 l 625 1193 z "},"ť":{"ha":522,"x_min":33,"x_max":589,"o":"m 589 1031 l 493 775 l 365 775 l 404 1031 l 589 1031 m 431 4 q 310 -14 371 -14 q 169 31 214 -14 q 124 171 124 76 l 124 529 l 33 529 l 33 672 l 124 672 l 124 846 l 293 846 l 293 672 l 435 672 l 435 529 l 293 529 l 293 188 q 308 138 293 153 q 363 122 324 122 q 426 129 392 122 l 431 4 z "},"Ŧ":{"ha":765,"x_min":31,"x_max":736,"o":"m 633 351 l 469 351 l 469 0 l 296 0 l 296 351 l 132 351 l 132 497 l 296 497 l 296 775 l 31 775 l 31 925 l 736 925 l 736 775 l 469 775 l 469 497 l 633 497 l 633 351 z "},"ŧ":{"ha":468,"x_min":32,"x_max":433,"o":"m 32 274 l 32 413 l 124 413 l 124 529 l 32 529 l 32 672 l 124 672 l 124 846 l 293 846 l 293 672 l 433 672 l 433 529 l 293 529 l 293 413 l 408 413 l 408 274 l 293 274 l 293 188 q 308 138 293 153 q 361 122 322 122 q 425 129 393 122 l 429 4 q 308 -14 369 -14 q 168 31 213 -14 q 124 171 124 76 l 124 274 l 32 274 z "},"Ũ":{"ha":949,"x_min":94,"x_max":856,"o":"m 856 925 l 856 343 q 757 86 856 189 q 475 -17 658 -17 q 193 85 292 -17 q 94 343 94 188 l 94 925 l 268 925 l 268 333 q 324 185 268 238 q 475 132 379 132 q 625 185 569 132 q 681 333 681 238 l 681 925 l 856 925 m 633 1206 l 742 1165 q 690 1055 721 1094 q 601 1015 658 1015 q 493 1046 568 1015 q 393 1076 418 1076 q 364 1066 376 1076 q 347 1046 351 1056 q 332 1013 342 1036 l 221 1053 q 279 1167 243 1131 q 381 1203 315 1203 q 488 1173 418 1203 q 576 1143 557 1143 q 592 1147 585 1143 q 605 1153 600 1150 q 615 1165 610 1157 q 622 1178 619 1174 q 628 1192 624 1182 q 633 1206 632 1203 z "},"ũ":{"ha":758,"x_min":83,"x_max":669,"o":"m 83 672 l 253 672 l 253 243 q 357 132 253 132 q 463 178 426 132 q 500 307 500 224 l 500 672 l 669 672 l 669 0 l 504 0 l 504 117 q 294 -14 443 -14 q 83 215 83 -14 l 83 672 m 539 957 l 647 918 q 594 804 624 842 q 504 767 564 767 q 403 798 471 767 q 311 829 336 829 q 274 813 286 829 q 250 765 261 797 l 143 806 q 201 921 169 886 q 296 956 233 956 q 400 926 333 956 q 485 896 467 896 q 498 898 492 896 q 510 905 504 900 q 519 913 515 910 q 526 924 522 917 q 531 935 529 932 q 535 947 532 938 q 539 957 539 956 z "},"Ū":{"ha":949,"x_min":94,"x_max":856,"o":"m 856 925 l 856 343 q 757 86 856 189 q 475 -17 658 -17 q 193 85 292 -17 q 94 343 94 188 l 94 925 l 268 925 l 268 333 q 324 185 268 238 q 475 132 379 132 q 625 185 569 132 q 681 333 681 238 l 681 925 l 856 925 m 710 1029 l 240 1029 l 240 1161 l 710 1161 l 710 1029 z "},"ū":{"ha":758,"x_min":83,"x_max":669,"o":"m 83 672 l 253 672 l 253 243 q 357 132 253 132 q 463 178 426 132 q 500 307 500 224 l 500 672 l 669 672 l 669 0 l 504 0 l 504 117 q 294 -14 443 -14 q 83 215 83 -14 l 83 672 m 593 785 l 183 785 l 183 914 l 593 914 l 593 785 z "},"Ŭ":{"ha":949,"x_min":94,"x_max":856,"o":"m 856 925 l 856 343 q 757 86 856 189 q 475 -17 658 -17 q 193 85 292 -17 q 94 343 94 188 l 94 925 l 268 925 l 268 333 q 324 185 268 238 q 475 132 379 132 q 625 185 569 132 q 681 333 681 238 l 681 925 l 856 925 m 567 1188 l 699 1188 q 638 1056 699 1101 q 474 1011 578 1011 q 309 1056 369 1011 q 249 1188 249 1101 l 381 1188 q 474 1110 381 1110 q 567 1188 567 1110 z "},"ŭ":{"ha":758,"x_min":83,"x_max":669,"o":"m 83 672 l 253 672 l 253 243 q 357 132 253 132 q 463 178 426 132 q 500 307 500 224 l 500 672 l 669 672 l 669 0 l 504 0 l 504 117 q 294 -14 443 -14 q 83 215 83 -14 l 83 672 m 604 953 q 544 811 604 863 q 386 760 483 760 q 229 811 289 760 q 169 953 169 863 l 292 953 q 386 861 292 861 q 481 953 481 861 l 604 953 z "},"Ů":{"ha":949,"x_min":94,"x_max":856,"o":"m 611 1132 q 576 1044 611 1079 q 474 1010 540 1010 q 372 1044 407 1010 q 336 1132 336 1079 q 372 1218 336 1183 q 474 1253 407 1253 q 576 1218 540 1253 q 611 1132 611 1183 m 474 1190 q 443 1190 474 1190 q 413 1132 413 1190 q 474 1074 413 1074 q 535 1132 535 1074 q 474 1190 535 1190 m 856 925 l 856 343 q 757 86 856 189 q 475 -17 658 -17 q 193 85 292 -17 q 94 343 94 188 l 94 925 l 268 925 l 268 333 q 324 185 268 238 q 475 132 379 132 q 625 185 569 132 q 681 333 681 238 l 681 925 l 856 925 z "},"ů":{"ha":758,"x_min":83,"x_max":669,"o":"m 521 881 q 485 793 521 828 q 383 758 450 758 q 281 793 317 758 q 246 881 246 828 q 281 967 246 932 q 383 1001 317 1001 q 485 967 450 1001 q 521 881 521 932 m 383 939 q 353 939 383 939 q 322 881 322 939 q 383 822 322 822 q 444 881 444 822 q 383 939 444 939 m 83 672 l 253 672 l 253 243 q 357 132 253 132 q 463 178 426 132 q 500 307 500 224 l 500 672 l 669 672 l 669 0 l 504 0 l 504 117 q 294 -14 443 -14 q 83 215 83 -14 l 83 672 z "},"Ű":{"ha":949,"x_min":94,"x_max":856,"o":"m 794 1193 l 682 1010 l 525 1010 l 600 1193 l 794 1193 m 501 1193 l 408 1010 l 258 1010 l 319 1193 l 501 1193 m 856 925 l 856 343 q 757 86 856 189 q 475 -17 658 -17 q 193 85 292 -17 q 94 343 94 188 l 94 925 l 268 925 l 268 333 q 324 185 268 238 q 475 132 379 132 q 625 185 569 132 q 681 333 681 238 l 681 925 l 856 925 z "},"ű":{"ha":758,"x_min":83,"x_max":696,"o":"m 83 672 l 253 672 l 253 243 q 357 132 253 132 q 463 178 426 132 q 500 307 500 224 l 500 672 l 669 672 l 669 0 l 504 0 l 504 117 q 294 -14 443 -14 q 83 215 83 -14 l 83 672 m 696 969 l 579 758 l 422 758 l 501 969 l 696 969 m 411 969 l 314 758 l 164 758 l 229 969 l 411 969 z "},"Ų":{"ha":949,"x_min":94,"x_max":856,"o":"m 856 925 l 856 343 q 818 173 856 250 q 710 47 781 96 q 659 15 701 42 q 597 -26 617 -11 q 556 -67 576 -40 q 535 -119 535 -94 q 588 -165 535 -165 q 636 -157 611 -165 l 650 -240 q 533 -261 603 -261 q 432 -230 467 -261 q 397 -146 397 -199 q 482 -17 397 -76 l 475 -17 q 193 85 292 -17 q 94 343 94 188 l 94 925 l 268 925 l 268 333 q 324 185 268 238 q 475 132 379 132 q 625 185 569 132 q 681 333 681 238 l 681 925 l 856 925 z "},"ų":{"ha":758,"x_min":83,"x_max":669,"o":"m 83 672 l 253 672 l 253 243 q 357 132 253 132 q 463 178 426 132 q 500 307 500 224 l 500 672 l 669 672 l 669 0 q 619 -30 638 -18 q 577 -67 600 -42 q 554 -119 554 -93 q 607 -165 554 -165 q 656 -157 631 -165 l 669 -240 q 553 -261 622 -261 q 451 -229 486 -261 q 417 -144 417 -197 q 504 0 417 -57 l 504 117 q 294 -14 443 -14 q 83 215 83 -14 l 83 672 z "},"Ŵ":{"ha":1219,"x_min":7,"x_max":1211,"o":"m 689 1193 l 851 1010 l 689 1010 l 610 1103 l 531 1010 l 369 1010 l 529 1193 l 689 1193 m 707 925 l 888 282 l 1036 925 l 1211 925 l 969 0 l 807 0 l 611 735 l 413 0 l 250 0 l 7 925 l 182 925 l 332 282 l 514 925 l 707 925 z "},"ŵ":{"ha":1007,"x_min":1,"x_max":1006,"o":"m 586 969 l 732 758 l 576 758 l 503 872 l 429 758 l 275 758 l 419 969 l 586 969 m 592 672 l 725 197 l 839 672 l 1006 672 l 813 0 l 642 0 l 504 488 l 367 0 l 194 0 l 1 672 l 168 672 l 283 197 l 415 672 l 592 672 z "},"Ŷ":{"ha":776,"x_min":3,"x_max":774,"o":"m 774 925 l 475 365 l 475 0 l 301 0 l 301 365 l 3 925 l 186 925 l 388 518 l 590 925 l 774 925 m 467 1193 l 629 1010 l 467 1010 l 388 1103 l 308 1010 l 147 1010 l 307 1193 l 467 1193 z "},"ŷ":{"ha":622,"x_min":-3,"x_max":625,"o":"m 314 181 l 447 672 l 625 672 l 325 -247 l 154 -247 l 229 -4 l -3 672 l 175 672 l 314 181 m 404 969 l 550 758 l 394 758 l 321 872 l 247 758 l 93 758 l 238 969 l 404 969 z "},"Ÿ":{"ha":776,"x_min":3,"x_max":774,"o":"m 774 925 l 475 365 l 475 0 l 301 0 l 301 365 l 3 925 l 186 925 l 388 518 l 590 925 l 774 925 m 439 1101 q 463 1164 439 1140 q 529 1188 488 1188 q 594 1164 571 1188 q 618 1101 618 1140 q 594 1040 618 1063 q 529 1017 571 1017 q 463 1040 488 1017 q 439 1101 439 1064 m 182 1040 q 170 1051 182 1040 q 158 1101 158 1063 q 182 1164 158 1140 q 247 1188 206 1188 q 313 1164 289 1188 q 336 1101 336 1140 q 313 1040 336 1063 q 247 1017 289 1017 q 182 1040 206 1017 z "},"Ź":{"ha":807,"x_min":67,"x_max":744,"o":"m 744 0 l 67 0 l 67 154 l 531 775 l 81 775 l 81 925 l 731 925 l 731 771 l 267 150 l 744 150 l 744 0 m 632 1193 l 461 1010 l 296 1010 l 403 1193 l 632 1193 z "},"ź":{"ha":639,"x_min":58,"x_max":585,"o":"m 236 758 l 311 969 l 526 969 l 400 758 l 236 758 m 585 0 l 58 0 l 58 135 l 374 539 l 75 539 l 75 672 l 579 672 l 579 539 l 257 135 l 585 135 l 585 0 z "},"Ż":{"ha":807,"x_min":67,"x_max":744,"o":"m 307 1121 q 335 1195 307 1165 q 410 1225 364 1225 q 485 1195 457 1225 q 514 1121 514 1165 q 485 1047 514 1078 q 410 1017 456 1017 q 335 1047 364 1017 q 307 1121 307 1078 m 744 0 l 67 0 l 67 154 l 531 775 l 81 775 l 81 925 l 731 925 l 731 771 l 267 150 l 744 150 l 744 0 z "},"ż":{"ha":639,"x_min":58,"x_max":585,"o":"m 585 0 l 58 0 l 58 135 l 374 539 l 75 539 l 75 672 l 579 672 l 579 539 l 257 135 l 585 135 l 585 0 m 231 867 q 259 941 231 911 q 333 971 288 971 q 409 941 381 971 q 438 867 438 911 q 408 793 438 824 q 333 763 379 763 q 259 793 288 763 q 231 867 231 824 z "},"Ž":{"ha":807,"x_min":67,"x_max":744,"o":"m 744 0 l 67 0 l 67 154 l 531 775 l 81 775 l 81 925 l 731 925 l 731 771 l 267 150 l 744 150 l 744 0 m 656 1193 l 493 1010 l 333 1010 l 174 1193 l 335 1193 l 414 1101 l 493 1193 l 656 1193 z "},"ž":{"ha":639,"x_min":58,"x_max":585,"o":"m 563 969 l 417 758 l 250 758 l 106 969 l 260 969 l 333 856 l 407 969 l 563 969 m 585 0 l 58 0 l 58 135 l 374 539 l 75 539 l 75 672 l 579 672 l 579 539 l 257 135 l 585 135 l 585 0 z "},"ƒ":{"ha":543,"x_min":-51,"x_max":540,"o":"m 167 489 l 79 489 l 79 624 l 179 624 l 188 733 q 396 939 204 939 q 540 914 478 939 l 521 792 q 435 807 475 807 q 378 790 396 807 q 357 732 360 772 l 349 624 l 471 624 l 471 489 l 336 489 l 289 -50 q 83 -261 271 -261 q -51 -240 11 -261 l -32 -118 q 39 -129 6 -129 q 97 -110 79 -129 q 119 -50 115 -92 l 167 489 z "},"Ǻ":{"ha":896,"x_min":13,"x_max":883,"o":"m 618 1319 l 528 1171 l 374 1171 l 410 1319 l 618 1319 m 586 1007 q 546 921 586 950 l 883 0 l 707 0 l 633 218 l 263 218 l 189 0 l 13 0 l 349 921 q 310 1007 310 951 q 345 1094 310 1060 q 449 1128 381 1128 q 551 1093 515 1128 q 586 1007 586 1058 m 449 1065 q 388 1007 388 1065 q 449 949 388 949 q 508 1007 508 949 q 449 1065 508 1065 m 449 769 l 311 364 l 585 364 l 449 769 z "},"ǻ":{"ha":735,"x_min":60,"x_max":656,"o":"m 560 1206 l 465 1056 l 310 1056 l 351 1206 l 560 1206 m 239 876 q 274 964 239 929 q 376 999 310 999 q 478 964 443 999 q 514 876 514 929 q 478 790 514 825 q 376 756 443 756 q 274 790 310 756 q 239 876 239 825 m 315 876 q 332 834 315 850 q 376 818 349 818 q 438 876 438 818 q 376 935 438 935 q 315 876 315 935 m 656 0 l 494 0 l 494 93 q 401 15 461 43 q 269 -14 342 -14 q 115 40 171 -14 q 60 188 60 93 q 124 349 60 297 q 299 400 189 400 l 486 400 l 486 443 q 349 543 486 543 q 135 494 239 543 l 107 626 q 371 686 222 686 q 656 451 656 686 l 656 0 m 486 240 l 486 282 l 329 282 q 226 193 226 282 q 329 104 226 104 q 443 142 400 104 q 486 240 486 179 z "},"Ǽ":{"ha":1207,"x_min":13,"x_max":1143,"o":"m 1143 925 l 1143 775 l 613 775 l 688 550 l 1114 550 l 1114 400 l 736 400 l 818 150 l 1143 150 l 1143 0 l 707 0 l 632 221 l 264 221 l 189 0 l 13 0 l 351 925 l 1143 925 m 449 782 l 311 364 l 585 364 l 449 782 m 732 1193 l 561 1010 l 396 1010 l 503 1193 l 732 1193 z "},"ǽ":{"ha":1139,"x_min":58,"x_max":1096,"o":"m 501 758 l 576 969 l 792 969 l 665 758 l 501 758 m 1096 276 l 665 276 q 721 153 676 193 q 858 113 765 113 q 1063 158 961 113 l 1092 43 q 840 -14 975 -14 q 680 22 751 -14 q 582 117 608 57 q 472 21 544 56 q 310 -14 400 -14 q 125 42 192 -14 q 58 196 58 97 q 297 396 58 396 l 493 396 l 493 424 q 349 543 493 543 q 142 501 238 543 l 113 629 q 356 686 221 686 q 583 578 508 686 q 817 686 661 686 q 1027 599 958 686 q 1096 361 1096 511 l 1096 276 m 493 253 l 493 276 l 321 276 q 221 192 221 276 q 251 126 221 150 q 332 101 281 101 q 493 253 493 101 m 814 569 q 665 396 681 569 l 938 396 l 938 414 q 814 569 938 569 z "},"Ǿ":{"ha":967,"x_min":49,"x_max":918,"o":"m 696 1193 l 525 1010 l 360 1010 l 467 1193 l 696 1193 m 49 463 q 160 809 49 676 q 483 942 271 942 q 614 926 550 942 l 661 1042 l 778 1042 l 714 885 q 867 717 815 826 q 918 463 918 607 q 807 116 918 249 q 483 -17 696 -17 q 353 -1 417 -17 l 307 -117 l 190 -117 l 253 39 q 100 208 151 97 q 49 463 49 318 m 222 463 q 315 190 222 274 l 556 783 q 483 793 517 793 q 287 704 351 793 q 222 463 222 615 m 483 132 q 679 221 614 132 q 744 463 744 310 q 651 733 744 649 l 411 140 q 483 132 444 132 z "},"ǿ":{"ha":724,"x_min":42,"x_max":682,"o":"m 253 758 l 328 969 l 543 969 l 417 758 l 253 758 m 682 336 q 599 83 682 179 q 363 -14 517 -14 q 265 -1 308 -14 l 218 -117 l 131 -117 l 190 28 q 42 336 42 115 q 125 590 42 493 q 363 686 208 686 q 458 674 414 686 l 507 789 l 593 789 l 532 643 q 644 521 606 601 q 682 336 682 440 m 211 336 q 250 171 211 226 l 406 546 q 363 551 389 551 q 211 336 211 551 m 513 336 q 474 500 513 447 l 318 125 q 363 121 336 121 q 513 336 513 121 z "},"Ș":{"ha":786,"x_min":53,"x_max":742,"o":"m 742 264 q 648 58 742 132 q 386 -17 554 -17 q 56 51 218 -17 l 93 192 q 385 126 249 126 q 567 244 567 126 q 524 334 567 306 q 364 388 481 363 q 128 485 204 421 q 53 667 53 549 q 397 942 53 942 q 708 878 569 942 l 676 739 q 400 800 538 800 q 269 774 311 800 q 226 685 226 749 q 269 603 226 629 q 432 547 311 578 q 669 448 596 507 q 742 264 742 389 m 500 -100 l 403 -347 l 261 -347 l 306 -100 l 500 -100 z "},"ș":{"ha":608,"x_min":46,"x_max":569,"o":"m 569 210 q 499 45 569 104 q 303 -14 429 -14 q 50 38 181 -14 l 86 160 q 300 113 207 113 q 403 182 403 113 q 380 228 403 211 q 297 261 357 244 q 99 351 151 303 q 46 483 46 399 q 114 635 46 585 q 308 686 182 686 q 540 640 444 686 l 510 518 q 314 561 411 561 q 237 548 261 561 q 213 501 213 535 q 239 453 213 468 q 353 413 265 439 q 516 338 463 381 q 569 210 569 294 m 410 -100 l 313 -347 l 171 -347 l 215 -100 l 410 -100 z "},"ˆ":{"ha":651,"x_min":97,"x_max":554,"o":"m 408 969 l 554 758 l 399 758 l 325 872 l 251 758 l 97 758 l 242 969 l 408 969 z "},"ˇ":{"ha":651,"x_min":97,"x_max":554,"o":"m 554 969 l 408 758 l 242 758 l 97 969 l 251 969 l 325 856 l 399 969 l 554 969 z "},"˘":{"ha":628,"x_min":97,"x_max":532,"o":"m 532 953 q 472 811 532 863 q 314 760 411 760 q 157 811 217 760 q 97 953 97 863 l 219 953 q 314 861 219 861 q 408 953 408 861 l 532 953 z "},"˙":{"ha":400,"x_min":97,"x_max":304,"o":"m 97 857 q 126 931 97 901 q 200 961 154 961 q 276 931 247 961 q 304 857 304 901 q 275 783 304 814 q 200 753 246 753 q 126 783 154 753 q 97 857 97 814 z "},"˚":{"ha":469,"x_min":97,"x_max":372,"o":"m 372 881 q 337 793 372 828 q 235 758 301 758 q 133 793 168 758 q 97 881 97 828 q 133 967 97 932 q 235 1001 168 1001 q 337 967 301 1001 q 372 881 372 932 m 235 939 q 204 939 235 939 q 174 881 174 939 q 235 822 174 822 q 296 881 296 822 q 235 939 296 939 z "},"˛":{"ha":446,"x_min":97,"x_max":350,"o":"m 336 -157 l 350 -240 q 233 -261 303 -261 q 132 -229 167 -261 q 97 -144 97 -197 q 189 0 97 -60 l 350 0 q 299 -30 318 -18 q 258 -67 281 -42 q 235 -119 235 -93 q 288 -165 235 -165 q 336 -157 311 -165 z "},"˜":{"ha":699,"x_min":97,"x_max":601,"o":"m 493 957 l 601 918 q 548 804 578 842 q 458 767 518 767 q 358 798 425 767 q 265 829 290 829 q 228 813 240 829 q 204 765 215 797 l 97 806 q 156 921 124 886 q 250 956 188 956 q 354 926 288 956 q 439 896 421 896 q 452 898 446 896 q 464 905 458 900 q 473 913 469 910 q 480 924 476 917 q 485 935 483 932 q 490 947 486 938 q 493 957 493 956 z "},"˝":{"ha":726,"x_min":97,"x_max":629,"o":"m 629 969 l 513 758 l 356 758 l 435 969 l 629 969 m 344 969 l 247 758 l 97 758 l 163 969 l 344 969 z "},"̒":{"ha":442,"x_min":97,"x_max":344,"o":"m 97 758 l 188 969 l 344 969 l 297 758 l 97 758 z "},"̕":{"ha":444,"x_min":97,"x_max":347,"o":"m 347 925 l 228 615 l 97 615 l 150 925 l 347 925 z "},"̦":{"ha":432,"x_min":97,"x_max":336,"o":"m 336 -100 l 239 -347 l 97 -347 l 142 -100 l 336 -100 z "},";":{"ha":410,"x_min":36,"x_max":335,"o":"m 304 410 q 289 395 304 410 q 226 381 274 381 q 149 410 179 381 q 119 488 119 440 q 149 565 119 535 q 226 594 179 594 q 305 565 275 594 q 335 488 335 535 q 304 410 335 440 m 122 186 l 324 186 l 168 -203 l 36 -203 l 122 186 z "},"΄":{"ha":443,"x_min":108,"x_max":369,"o":"m 108 758 l 153 969 l 369 969 l 263 758 l 108 758 z "},"΅":{"ha":749,"x_min":103,"x_max":647,"o":"m 242 795 q 232 784 242 795 q 183 772 221 772 q 124 795 146 772 q 103 851 103 818 q 124 908 103 886 q 183 931 146 931 q 242 908 221 931 q 264 851 264 886 q 242 795 264 818 m 293 763 l 329 994 l 493 994 l 397 763 l 293 763 m 567 772 q 507 795 529 772 q 485 851 485 818 q 507 908 485 886 q 567 931 529 931 q 625 908 603 931 q 647 851 647 886 q 625 795 647 818 q 567 772 603 772 z "},"Ά":{"ha":896,"x_min":13,"x_max":883,"o":"m 13 0 l 351 925 l 544 925 l 883 0 l 707 0 l 633 218 l 263 218 l 189 0 l 13 0 m 311 364 l 585 364 l 449 769 l 311 364 m 14 714 l 58 925 l 275 925 l 168 714 l 14 714 z "},"·":{"ha":372,"x_min":83,"x_max":289,"o":"m 112 305 q 98 319 112 305 q 83 379 83 333 q 112 453 83 425 q 186 482 140 482 q 260 453 232 482 q 289 379 289 425 q 260 305 289 333 q 186 276 232 276 q 112 305 140 276 z "},"Έ":{"ha":783,"x_min":-221,"x_max":719,"o":"m 97 0 l 97 925 l 719 925 l 719 775 l 271 775 l 271 550 l 690 550 l 690 400 l 271 400 l 271 150 l 719 150 l 719 0 l 97 0 m -221 714 l -176 925 l 40 925 l -67 714 l -221 714 z "},"Ή":{"ha":947,"x_min":-222,"x_max":850,"o":"m 97 0 l 97 925 l 271 925 l 271 546 l 676 546 l 676 925 l 850 925 l 850 0 l 676 0 l 676 392 l 271 392 l 271 0 l 97 0 m -222 714 l -178 925 l 39 925 l -68 714 l -222 714 z "},"Ί":{"ha":382,"x_min":-222,"x_max":278,"o":"m 104 0 l 104 925 l 278 925 l 278 0 l 104 0 m -222 714 l -178 925 l 39 925 l -68 714 l -222 714 z "},"Ό":{"ha":967,"x_min":-153,"x_max":918,"o":"m 807 116 q 751 50 807 116 q 483 -17 696 -17 q 160 116 271 -17 q 49 463 49 249 q 160 809 49 676 q 483 942 271 942 q 807 809 696 942 q 918 463 918 676 q 807 116 918 249 m 483 132 q 679 221 614 132 q 744 463 744 310 q 679 704 744 615 q 483 793 614 793 q 287 704 351 793 q 222 463 222 615 q 287 221 222 310 q 483 132 351 132 m -153 714 l -108 925 l 108 925 l 1 714 l -153 714 z "},"Ύ":{"ha":776,"x_min":-292,"x_max":774,"o":"m 301 0 l 301 365 l 3 925 l 186 925 l 388 518 l 590 925 l 774 925 l 475 365 l 475 0 l 301 0 m -292 714 l -247 925 l -31 925 l -137 714 l -292 714 z "},"Ώ":{"ha":1032,"x_min":-135,"x_max":922,"o":"m 922 517 q 760 136 922 303 l 907 136 l 907 0 l 576 0 l 576 136 q 753 504 753 279 q 685 724 753 643 q 488 806 617 806 q 292 724 360 806 q 224 504 224 643 q 400 136 224 279 l 400 0 l 69 0 l 69 136 l 217 136 q 54 517 54 303 q 171 827 54 713 q 488 942 288 942 q 806 827 689 942 q 922 517 922 713 m -135 714 l -90 925 l 126 925 l 19 714 l -135 714 z "},"ΐ":{"ha":429,"x_min":-78,"x_max":467,"o":"m 82 169 l 82 672 l 258 672 l 258 193 q 271 142 258 156 q 319 128 283 128 q 396 135 363 128 l 400 1 q 263 -14 350 -14 q 82 169 82 -14 m 62 795 q 51 784 62 795 q 3 772 40 772 q -56 795 -35 772 q -78 851 -78 818 q -56 908 -78 886 q 3 931 -35 931 q 62 908 40 931 q 83 851 83 886 q 62 795 83 818 m 113 763 l 149 994 l 313 994 l 217 763 l 113 763 m 386 772 q 326 795 349 772 q 304 851 304 818 q 326 908 304 886 q 386 931 349 931 q 444 908 422 931 q 467 851 467 886 q 444 795 467 818 q 386 772 422 772 z "},"Α":{"ha":896,"x_min":13,"x_max":883,"o":"m 13 0 l 351 925 l 544 925 l 883 0 l 707 0 l 633 218 l 263 218 l 189 0 l 13 0 m 311 364 l 585 364 l 449 769 l 311 364 z "},"Β":{"ha":851,"x_min":97,"x_max":804,"o":"m 97 0 l 97 925 l 508 925 q 705 865 635 925 q 775 700 775 806 q 610 474 775 532 q 752 399 700 456 q 804 253 804 343 q 723 70 804 140 q 508 0 642 0 l 97 0 m 268 533 l 460 533 q 566 572 529 533 q 603 669 603 611 q 567 758 603 726 q 461 789 531 789 l 268 789 l 268 533 m 268 136 l 486 136 q 596 172 558 136 q 633 269 633 208 q 592 363 633 329 q 475 397 551 397 l 268 397 l 268 136 z "},"Γ":{"ha":729,"x_min":97,"x_max":697,"o":"m 97 0 l 97 925 l 697 925 l 697 775 l 271 775 l 271 0 l 97 0 z "},"Δ":{"ha":892,"x_min":22,"x_max":869,"o":"m 22 0 l 22 65 l 354 925 l 538 925 l 869 65 l 869 0 l 22 0 m 228 149 l 660 149 l 443 767 l 228 149 z "},"Ε":{"ha":783,"x_min":97,"x_max":719,"o":"m 97 0 l 97 925 l 719 925 l 719 775 l 271 775 l 271 550 l 690 550 l 690 400 l 271 400 l 271 150 l 719 150 l 719 0 l 97 0 z "},"Ζ":{"ha":804,"x_min":67,"x_max":744,"o":"m 67 0 l 67 154 l 528 775 l 81 775 l 81 925 l 731 925 l 731 771 l 269 150 l 744 150 l 744 0 l 67 0 z "},"Η":{"ha":947,"x_min":97,"x_max":850,"o":"m 97 0 l 97 925 l 271 925 l 271 546 l 676 546 l 676 925 l 850 925 l 850 0 l 676 0 l 676 392 l 271 392 l 271 0 l 97 0 z "},"Θ":{"ha":967,"x_min":49,"x_max":918,"o":"m 807 116 q 751 50 807 116 q 483 -17 696 -17 q 160 116 271 -17 q 49 463 49 249 q 160 809 49 676 q 483 942 271 942 q 807 809 696 942 q 918 463 918 676 q 807 116 918 249 m 483 132 q 679 221 614 132 q 744 463 744 310 q 679 704 744 615 q 483 793 614 793 q 287 704 351 793 q 222 463 222 615 q 287 221 222 310 q 483 132 351 132 m 306 411 l 306 533 l 658 533 l 658 411 l 306 411 z "},"Ι":{"ha":382,"x_min":104,"x_max":278,"o":"m 104 0 l 104 925 l 278 925 l 278 0 l 104 0 z "},"Κ":{"ha":865,"x_min":97,"x_max":849,"o":"m 97 0 l 97 925 l 271 925 l 271 508 l 619 925 l 843 925 l 450 474 l 849 0 l 625 0 l 271 439 l 271 0 l 97 0 z "},"Λ":{"ha":851,"x_min":6,"x_max":846,"o":"m 6 0 l 326 925 l 528 925 l 846 0 l 667 0 l 426 765 l 183 0 l 6 0 z "},"Μ":{"ha":1143,"x_min":96,"x_max":1047,"o":"m 96 0 l 96 925 l 271 925 l 572 286 l 874 925 l 1047 925 l 1047 0 l 879 0 l 879 586 l 657 117 l 486 117 l 264 586 l 264 0 l 96 0 z "},"Ν":{"ha":982,"x_min":97,"x_max":885,"o":"m 97 0 l 97 925 l 269 925 l 715 288 l 715 925 l 885 925 l 885 0 l 713 0 l 265 638 l 265 0 l 97 0 z "},"Ξ":{"ha":799,"x_min":64,"x_max":735,"o":"m 64 0 l 64 156 l 733 156 l 733 0 l 64 0 m 147 394 l 147 544 l 651 544 l 651 394 l 147 394 m 64 771 l 64 925 l 735 925 l 735 771 l 64 771 z "},"Ο":{"ha":967,"x_min":49,"x_max":918,"o":"m 807 116 q 751 50 807 116 q 483 -17 696 -17 q 160 116 271 -17 q 49 463 49 249 q 160 809 49 676 q 483 942 271 942 q 807 809 696 942 q 918 463 918 676 q 807 116 918 249 m 483 132 q 679 221 614 132 q 744 463 744 310 q 679 704 744 615 q 483 793 614 793 q 287 704 351 793 q 222 463 222 615 q 287 221 222 310 q 483 132 351 132 z "},"Π":{"ha":936,"x_min":97,"x_max":840,"o":"m 97 0 l 97 925 l 840 925 l 840 0 l 665 0 l 665 776 l 271 776 l 271 0 l 97 0 z "},"Ρ":{"ha":835,"x_min":97,"x_max":804,"o":"m 97 0 l 97 925 l 499 925 q 722 842 639 925 q 804 632 804 760 q 719 421 804 506 q 499 336 635 336 l 271 336 l 271 0 l 97 0 m 271 476 l 476 476 q 589 518 547 476 q 631 632 631 560 q 588 744 631 704 q 475 785 546 785 l 271 785 l 271 476 z "},"Σ":{"ha":840,"x_min":50,"x_max":775,"o":"m 50 0 l 50 92 l 328 453 l 71 808 l 71 925 l 754 925 l 754 775 l 319 775 l 533 476 l 289 150 l 775 150 l 775 0 l 50 0 z "},"Τ":{"ha":765,"x_min":31,"x_max":736,"o":"m 296 0 l 296 775 l 31 775 l 31 925 l 736 925 l 736 775 l 469 775 l 469 0 l 296 0 z "},"Υ":{"ha":776,"x_min":3,"x_max":774,"o":"m 301 0 l 301 365 l 3 925 l 186 925 l 388 518 l 590 925 l 774 925 l 475 365 l 475 0 l 301 0 z "},"Φ":{"ha":1097,"x_min":49,"x_max":1049,"o":"m 461 0 l 461 92 q 157 205 265 103 q 49 468 49 307 q 156 731 49 628 q 461 847 264 833 l 461 931 l 636 931 l 636 847 q 940 731 832 833 q 1049 468 1049 628 q 940 205 1049 307 q 636 92 832 103 l 636 0 l 461 0 m 461 235 l 461 703 q 283 631 347 697 q 218 468 218 565 q 282 300 218 360 q 461 235 346 240 m 636 235 q 815 300 750 240 q 879 468 879 360 q 815 631 879 565 q 636 703 750 697 l 636 235 z "},"Χ":{"ha":824,"x_min":15,"x_max":808,"o":"m 15 0 l 317 469 l 26 925 l 215 925 l 413 613 l 608 925 l 797 925 l 506 469 l 808 0 l 618 0 l 413 329 l 206 0 l 15 0 z "},"Ψ":{"ha":1121,"x_min":97,"x_max":1026,"o":"m 474 0 l 474 168 q 187 273 276 178 q 97 553 97 368 l 97 925 l 271 925 l 271 581 q 318 376 271 440 q 474 306 365 311 l 474 925 l 649 925 l 649 304 q 806 376 757 311 q 854 581 854 440 l 854 925 l 1026 925 l 1026 553 q 936 272 1026 367 q 649 168 846 178 l 649 0 l 474 0 z "},"Ω":{"ha":979,"x_min":56,"x_max":924,"o":"m 924 517 q 761 136 924 303 l 908 136 l 908 0 l 578 0 l 578 136 q 754 504 754 279 q 686 724 754 643 q 489 806 618 806 q 293 724 361 806 q 225 504 225 643 q 401 136 225 279 l 401 0 l 71 0 l 71 136 l 218 136 q 56 517 56 303 q 172 827 56 713 q 489 942 289 942 q 807 827 690 942 q 924 517 924 713 z "},"Ϊ":{"ha":382,"x_min":-39,"x_max":421,"o":"m 104 0 l 104 925 l 278 925 l 278 0 l 104 0 m 242 1101 q 266 1164 242 1140 q 332 1188 290 1188 q 397 1164 374 1188 q 421 1101 421 1140 q 397 1040 421 1063 q 332 1017 374 1017 q 266 1040 290 1017 q 242 1101 242 1064 m -15 1040 q -27 1051 -15 1040 q -39 1101 -39 1063 q -15 1164 -39 1140 q 50 1188 8 1188 q 115 1164 92 1188 q 139 1101 139 1140 q 115 1040 139 1063 q 50 1017 92 1017 q -15 1040 8 1017 z "},"Ϋ":{"ha":776,"x_min":3,"x_max":774,"o":"m 301 0 l 301 365 l 3 925 l 186 925 l 388 518 l 590 925 l 774 925 l 475 365 l 475 0 l 301 0 m 439 1101 q 463 1164 439 1140 q 529 1188 488 1188 q 594 1164 571 1188 q 618 1101 618 1140 q 594 1040 618 1063 q 529 1017 571 1017 q 463 1040 488 1017 q 439 1101 439 1064 m 182 1040 q 170 1051 182 1040 q 158 1101 158 1063 q 182 1164 158 1140 q 247 1188 206 1188 q 313 1164 289 1188 q 336 1101 336 1140 q 313 1040 336 1063 q 247 1017 289 1017 q 182 1040 206 1017 z "},"ά":{"ha":824,"x_min":44,"x_max":799,"o":"m 313 -14 q 117 76 189 -14 q 44 328 44 165 q 121 587 44 488 q 332 686 197 686 q 542 560 469 686 q 588 686 558 643 l 749 642 q 669 275 669 460 q 689 164 669 199 q 757 129 708 129 q 792 132 764 129 q 795 67 792 131 q 799 1 799 3 q 710 -12 743 -12 q 596 17 638 -12 q 533 118 554 46 q 313 -14 456 -14 m 360 128 q 467 192 428 128 q 506 353 506 256 q 466 494 506 443 q 361 546 426 546 q 260 491 299 546 q 222 336 222 436 q 360 128 222 128 m 322 758 l 367 969 l 583 969 l 476 758 l 322 758 z "},"έ":{"ha":647,"x_min":49,"x_max":610,"o":"m 322 -14 q 49 175 49 -14 q 83 281 49 232 q 189 351 117 331 q 100 410 128 376 q 72 496 72 443 q 147 634 72 582 q 344 686 222 686 q 588 642 492 686 l 557 508 q 363 549 453 549 q 250 475 250 549 q 357 410 250 410 l 458 410 l 458 275 l 344 275 q 226 203 226 275 q 350 129 226 129 q 585 171 451 129 l 610 43 q 322 -14 479 -14 m 276 758 l 321 969 l 538 969 l 431 758 l 276 758 z "},"ή":{"ha":803,"x_min":36,"x_max":721,"o":"m 118 0 l 118 356 q 102 495 118 454 q 36 575 86 536 l 140 688 q 219 633 188 675 q 261 539 251 590 q 497 686 353 686 q 667 630 614 686 q 721 456 721 574 l 721 -247 l 544 -247 l 544 426 q 439 540 544 540 q 335 498 376 540 q 294 371 294 456 l 294 0 l 118 0 m 299 758 l 343 969 l 560 969 l 453 758 l 299 758 z "},"ί":{"ha":429,"x_min":82,"x_max":400,"o":"m 82 169 l 82 672 l 258 672 l 258 193 q 271 142 258 156 q 319 128 283 128 q 396 135 363 128 l 400 1 q 263 -14 350 -14 q 82 169 82 -14 m 90 758 l 135 969 l 351 969 l 244 758 l 90 758 z "},"ΰ":{"ha":742,"x_min":42,"x_max":694,"o":"m 86 282 l 86 326 q 42 640 86 544 l 213 686 q 250 565 240 636 q 260 367 260 493 l 260 297 q 385 138 260 138 q 487 183 454 138 q 519 335 519 229 q 471 640 519 513 l 640 686 q 694 356 694 549 q 687 251 694 300 q 658 152 679 203 q 604 66 638 101 q 515 8 571 31 q 385 -14 458 -14 q 86 282 86 -14 m 238 795 q 227 784 238 795 q 179 772 217 772 q 120 795 142 772 q 99 851 99 818 q 120 908 99 886 q 179 931 142 931 q 238 908 217 931 q 260 851 260 886 q 238 795 260 818 m 289 763 l 325 994 l 489 994 l 393 763 l 289 763 m 563 772 q 503 795 525 772 q 481 851 481 818 q 503 908 481 886 q 563 931 525 931 q 621 908 599 931 q 643 851 643 886 q 621 795 643 818 q 563 772 599 772 z "},"α":{"ha":824,"x_min":44,"x_max":799,"o":"m 313 -14 q 117 76 189 -14 q 44 328 44 165 q 121 587 44 488 q 332 686 197 686 q 542 560 469 686 q 588 686 558 643 l 749 642 q 669 275 669 460 q 689 164 669 199 q 757 129 708 129 q 792 132 764 129 q 795 67 792 131 q 799 1 799 3 q 710 -12 743 -12 q 596 17 638 -12 q 533 118 554 46 q 313 -14 456 -14 m 360 128 q 467 192 428 128 q 506 353 506 256 q 466 494 506 443 q 361 546 426 546 q 260 491 299 546 q 222 336 222 436 q 360 128 222 128 z "},"β":{"ha":789,"x_min":90,"x_max":744,"o":"m 90 -247 l 90 607 q 109 738 90 679 q 159 833 128 796 q 232 894 190 869 q 316 928 274 918 q 404 939 358 939 q 540 917 482 939 q 626 859 597 894 q 669 787 656 824 q 682 713 682 750 q 572 517 682 581 q 744 268 744 453 q 730 183 744 228 q 685 92 715 138 q 594 16 654 46 q 456 -14 535 -14 q 267 64 332 -14 l 267 -247 l 90 -247 m 421 128 q 527 171 493 128 q 561 272 561 214 q 525 382 561 340 q 418 424 489 424 l 364 424 l 364 556 l 414 556 q 494 589 465 556 q 522 674 522 622 q 490 765 522 733 q 404 796 458 796 q 304 752 342 796 q 267 625 267 708 l 267 247 q 307 165 267 201 q 421 128 347 128 z "},"γ":{"ha":782,"x_min":24,"x_max":769,"o":"m 333 -242 l 333 0 l 149 451 q 110 525 125 507 q 64 543 94 543 q 28 538 49 543 q 24 669 24 661 q 132 685 82 685 q 237 657 201 685 q 297 556 272 629 l 428 172 l 589 672 l 769 672 l 510 0 l 510 -242 l 333 -242 z "},"δ":{"ha":719,"x_min":44,"x_max":675,"o":"m 347 -14 q 242 3 293 -14 q 146 56 192 21 q 72 156 100 92 q 44 307 44 221 q 107 497 44 418 q 260 608 169 576 q 174 685 196 649 q 153 769 153 722 q 213 890 153 840 q 376 939 272 939 q 625 888 532 939 l 597 754 q 393 801 472 801 q 335 760 335 801 q 355 722 335 739 q 451 656 375 706 q 621 499 567 581 q 675 311 675 418 q 591 82 675 178 q 347 -14 507 -14 m 363 128 q 463 175 422 128 q 503 308 503 222 q 367 531 503 460 q 219 310 219 485 q 256 178 219 229 q 363 128 293 128 z "},"ε":{"ha":647,"x_min":49,"x_max":610,"o":"m 322 -14 q 49 175 49 -14 q 83 281 49 232 q 189 351 117 331 q 100 410 128 376 q 72 496 72 443 q 147 634 72 582 q 344 686 222 686 q 588 642 492 686 l 557 508 q 363 549 453 549 q 250 475 250 549 q 357 410 250 410 l 458 410 l 458 275 l 344 275 q 226 203 226 275 q 350 129 226 129 q 585 171 451 129 l 610 43 q 322 -14 479 -14 z "},"ζ":{"ha":585,"x_min":46,"x_max":567,"o":"m 396 -244 l 329 -172 q 391 -112 374 -133 q 408 -67 408 -90 q 393 -35 408 -46 q 328 -3 378 -24 q 108 133 169 61 q 46 318 46 204 q 126 564 46 443 q 342 782 207 685 l 93 782 l 93 925 l 561 925 l 561 794 q 310 584 397 701 q 222 357 222 467 q 260 233 222 276 q 388 150 299 189 q 531 67 496 103 q 567 -29 567 31 q 524 -137 567 -79 q 396 -244 482 -196 z "},"η":{"ha":803,"x_min":36,"x_max":721,"o":"m 118 0 l 118 356 q 102 495 118 454 q 36 575 86 536 l 140 688 q 219 633 188 675 q 261 539 251 590 q 497 686 353 686 q 667 630 614 686 q 721 456 721 574 l 721 -247 l 544 -247 l 544 426 q 439 540 544 540 q 335 498 376 540 q 294 371 294 456 l 294 0 l 118 0 z "},"θ":{"ha":747,"x_min":49,"x_max":699,"o":"m 374 -14 q 131 106 214 -14 q 49 451 49 225 q 374 935 49 935 q 699 451 699 935 q 615 106 699 226 q 374 -14 532 -14 m 374 128 q 524 399 518 128 l 221 399 q 229 298 222 342 q 252 213 236 254 q 299 150 268 172 q 374 128 329 128 m 221 526 l 524 526 q 481 728 517 665 q 374 792 446 792 q 263 728 299 792 q 221 526 226 664 z "},"ι":{"ha":429,"x_min":82,"x_max":400,"o":"m 82 169 l 82 672 l 258 672 l 258 193 q 271 142 258 156 q 319 128 283 128 q 396 135 363 128 l 400 1 q 263 -14 350 -14 q 82 169 82 -14 z "},"κ":{"ha":765,"x_min":90,"x_max":756,"o":"m 90 0 l 90 672 l 267 672 l 267 325 l 419 532 q 531 652 485 619 q 656 685 576 685 q 719 679 697 685 l 715 536 q 667 538 697 538 q 591 517 624 538 q 510 436 558 496 l 464 378 l 756 0 l 557 0 l 372 258 l 267 119 l 267 0 l 90 0 z "},"λ":{"ha":764,"x_min":10,"x_max":757,"o":"m 10 0 l 297 628 l 271 701 q 231 776 251 756 q 171 796 211 796 q 111 786 150 796 q 107 924 107 869 q 206 939 158 939 q 336 900 288 939 q 421 764 385 861 l 632 199 q 663 142 649 156 q 703 128 676 128 q 753 135 729 128 l 757 1 q 654 -14 704 -14 q 536 23 576 -14 q 468 140 496 60 l 360 453 l 186 0 l 10 0 z "},"μ":{"ha":832,"x_min":89,"x_max":804,"o":"m 89 -247 l 89 672 l 265 672 l 265 260 q 378 138 265 138 q 476 186 440 138 q 511 308 511 235 l 511 672 l 688 672 l 688 225 q 760 129 688 129 q 800 135 767 129 l 804 1 q 693 -12 751 -12 q 595 15 631 -12 q 539 106 560 42 q 375 -14 476 -14 q 265 40 303 -14 l 265 -247 l 89 -247 z "},"ν":{"ha":683,"x_min":-1,"x_max":660,"o":"m 264 0 l -1 672 l 190 672 l 361 160 l 418 310 q 486 644 486 488 l 486 672 l 660 672 l 660 658 q 635 494 660 579 q 556 269 611 408 l 450 0 l 264 0 z "},"ξ":{"ha":581,"x_min":46,"x_max":563,"o":"m 393 -244 l 326 -172 q 406 -64 406 -103 q 394 -34 406 -44 q 349 -11 382 -24 l 264 22 q 177 60 210 43 q 110 104 144 78 q 61 167 76 131 q 46 250 46 203 q 97 394 46 335 q 229 479 147 453 q 89 632 89 529 q 125 727 89 688 q 217 782 161 767 l 67 782 l 67 925 l 536 925 l 536 808 l 489 801 q 399 785 433 793 q 333 761 365 776 q 285 722 300 746 q 269 664 269 699 q 425 568 269 568 l 490 568 l 490 429 l 428 429 q 280 388 324 429 q 236 289 236 346 q 265 214 236 242 q 365 158 293 186 l 436 131 q 536 68 510 103 q 563 -18 563 33 q 522 -132 563 -71 q 393 -244 481 -193 z "},"ο":{"ha":729,"x_min":44,"x_max":685,"o":"m 602 83 q 561 34 602 83 q 365 -14 519 -14 q 128 83 211 -14 q 44 336 44 179 q 128 590 44 493 q 365 686 211 686 q 602 590 519 686 q 685 336 685 493 q 602 83 685 179 m 365 121 q 515 336 515 121 q 365 551 515 551 q 214 336 214 551 q 365 121 214 121 z "},"π":{"ha":908,"x_min":31,"x_max":863,"o":"m 331 0 l 164 0 l 164 539 l 31 539 l 31 672 l 863 672 l 863 539 l 708 539 l 708 190 q 772 121 708 121 q 849 132 814 121 l 860 11 q 726 -14 807 -14 q 542 185 542 -14 l 542 539 l 331 539 l 331 0 z "},"ρ":{"ha":750,"x_min":61,"x_max":706,"o":"m 61 -247 l 61 328 q 152 598 61 510 q 386 686 243 686 q 519 663 461 686 q 611 603 576 639 q 668 519 646 567 q 698 428 690 471 q 706 342 706 385 q 638 85 706 185 q 424 -14 571 -14 q 238 64 304 -14 l 238 -247 l 61 -247 m 238 346 l 238 272 q 281 164 238 200 q 389 128 325 128 q 494 186 463 128 q 526 333 526 244 q 382 546 526 546 q 238 346 238 546 z "},"ς":{"ha":613,"x_min":42,"x_max":574,"o":"m 349 -244 l 282 -172 q 361 -64 361 -104 q 347 -29 361 -43 q 268 24 332 -15 q 97 169 151 94 q 42 363 42 243 q 128 591 42 496 q 364 686 215 686 q 574 644 488 686 l 542 508 q 381 544 464 544 q 260 497 301 544 q 218 379 218 450 q 256 257 218 306 q 399 143 293 208 q 519 -25 519 67 q 349 -244 519 -146 z "},"σ":{"ha":774,"x_min":44,"x_max":740,"o":"m 361 -14 q 127 82 210 -14 q 44 329 44 178 q 138 580 44 488 q 396 672 232 672 l 740 672 l 740 521 l 603 521 q 658 430 639 488 q 676 322 676 372 q 597 81 676 175 q 361 -14 517 -14 m 365 128 q 470 181 435 128 q 506 331 506 235 q 488 440 506 388 q 440 521 471 493 q 376 525 415 525 q 221 332 221 525 q 365 128 221 128 z "},"τ":{"ha":650,"x_min":21,"x_max":613,"o":"m 406 -14 q 263 31 306 -14 q 221 168 221 75 l 221 531 l 21 531 l 21 672 l 613 672 l 613 531 l 389 531 q 388 369 389 506 q 388 229 388 233 q 407 148 388 168 q 479 128 426 128 q 578 140 528 128 l 582 7 q 406 -14 489 -14 z "},"υ":{"ha":742,"x_min":42,"x_max":694,"o":"m 86 282 l 86 326 q 42 640 86 544 l 213 686 q 250 565 240 636 q 260 367 260 493 l 260 297 q 385 138 260 138 q 487 183 454 138 q 519 335 519 229 q 471 640 519 513 l 640 686 q 694 356 694 549 q 687 251 694 300 q 658 152 679 203 q 604 66 638 101 q 515 8 571 31 q 385 -14 458 -14 q 86 282 86 -14 z "},"φ":{"ha":975,"x_min":44,"x_max":931,"o":"m 403 -247 l 403 -28 q 138 85 231 -11 q 44 329 44 182 q 139 582 44 482 q 403 692 233 682 l 403 844 l 569 844 l 569 692 q 835 583 739 682 q 931 329 931 485 q 838 85 931 182 q 569 -28 746 -11 l 569 -247 l 403 -247 m 403 110 l 403 554 q 260 490 310 549 q 211 335 211 431 q 258 181 211 243 q 403 110 304 119 m 569 110 q 685 154 639 115 q 748 239 732 193 q 764 335 764 285 q 715 488 764 425 q 569 556 665 550 l 569 110 z "},"χ":{"ha":772,"x_min":18,"x_max":793,"o":"m 18 -247 l 308 210 l 192 422 q 128 519 150 496 q 76 543 106 543 q 32 538 53 543 q 28 669 28 656 q 131 685 81 685 q 232 660 193 685 q 306 567 271 635 l 415 354 l 578 672 l 763 672 l 485 221 l 613 -12 q 672 -97 647 -74 q 729 -119 696 -119 q 789 -111 767 -119 l 793 -246 q 688 -261 747 -261 q 576 -232 619 -261 q 490 -122 533 -203 l 379 86 l 193 -247 l 18 -247 z "},"ψ":{"ha":1008,"x_min":42,"x_max":961,"o":"m 433 -247 l 433 -18 q 174 75 264 -8 q 83 332 83 158 l 83 381 q 42 640 83 528 l 214 686 q 249 566 240 626 q 258 385 258 506 l 258 329 q 433 114 258 132 l 433 844 l 600 844 l 600 114 q 786 347 786 131 q 739 640 786 501 l 913 686 q 961 360 961 518 q 859 84 961 176 q 600 -18 757 -8 l 600 -247 l 433 -247 z "},"ω":{"ha":972,"x_min":44,"x_max":928,"o":"m 407 253 l 407 428 l 567 428 l 567 254 q 651 135 567 135 q 749 294 749 135 q 633 604 749 453 l 767 686 q 882 510 836 618 q 928 282 928 403 q 858 62 928 138 q 682 -14 788 -14 q 566 17 621 -14 q 485 115 511 47 q 403 13 451 40 q 288 -14 354 -14 q 113 63 182 -14 q 44 292 44 139 q 90 511 44 408 q 207 686 136 614 l 342 604 q 224 301 224 474 q 251 176 224 217 q 324 135 279 135 q 382 163 357 135 q 407 253 407 192 z "},"ϊ":{"ha":429,"x_min":-44,"x_max":400,"o":"m 82 169 l 82 672 l 258 672 l 258 193 q 271 142 258 156 q 319 128 283 128 q 396 135 363 128 l 400 1 q 263 -14 350 -14 q 82 169 82 -14 m 245 797 q 233 810 245 797 q 221 860 221 822 q 245 922 221 897 q 310 947 269 947 q 376 922 351 947 q 400 860 400 897 q 376 797 400 822 q 310 772 351 772 q 245 797 269 772 m -20 797 q -32 810 -20 797 q -44 860 -44 822 q -20 922 -44 897 q 44 947 4 947 q 109 922 85 947 q 133 860 133 897 q 109 797 133 822 q 44 772 85 772 q -20 797 4 772 z "},"ϋ":{"ha":742,"x_min":42,"x_max":694,"o":"m 86 282 l 86 326 q 42 640 86 544 l 213 686 q 250 565 240 636 q 260 367 260 493 l 260 297 q 385 138 260 138 q 487 183 454 138 q 519 335 519 229 q 471 640 519 513 l 640 686 q 694 356 694 549 q 687 251 694 300 q 658 152 679 203 q 604 66 638 101 q 515 8 571 31 q 385 -14 458 -14 q 86 282 86 -14 m 424 797 q 412 810 424 797 q 400 860 400 822 q 424 922 400 897 q 489 947 449 947 q 555 922 531 947 q 579 860 579 897 q 555 797 579 822 q 489 772 531 772 q 424 797 449 772 m 159 797 q 147 810 159 797 q 135 860 135 822 q 159 922 135 897 q 224 947 183 947 q 288 922 264 947 q 313 860 313 897 q 288 797 313 822 q 224 772 264 772 q 159 797 183 772 z "},"ό":{"ha":729,"x_min":44,"x_max":685,"o":"m 602 83 q 561 34 602 83 q 365 -14 519 -14 q 128 83 211 -14 q 44 336 44 179 q 128 590 44 493 q 365 686 211 686 q 602 590 519 686 q 685 336 685 493 q 602 83 685 179 m 365 121 q 515 336 515 121 q 365 551 515 551 q 214 336 214 551 q 365 121 214 121 m 286 758 l 331 969 l 547 969 l 440 758 l 286 758 z "},"ύ":{"ha":742,"x_min":42,"x_max":694,"o":"m 86 282 l 86 326 q 42 640 86 544 l 213 686 q 250 565 240 636 q 260 367 260 493 l 260 297 q 385 138 260 138 q 487 183 454 138 q 519 335 519 229 q 471 640 519 513 l 640 686 q 694 356 694 549 q 687 251 694 300 q 658 152 679 203 q 604 66 638 101 q 515 8 571 31 q 385 -14 458 -14 q 86 282 86 -14 m 283 758 l 328 969 l 544 969 l 438 758 l 283 758 z "},"ώ":{"ha":972,"x_min":44,"x_max":928,"o":"m 407 253 l 407 428 l 567 428 l 567 254 q 651 135 567 135 q 749 294 749 135 q 633 604 749 453 l 767 686 q 882 510 836 618 q 928 282 928 403 q 858 62 928 138 q 682 -14 788 -14 q 566 17 621 -14 q 485 115 511 47 q 403 13 451 40 q 288 -14 354 -14 q 113 63 182 -14 q 44 292 44 139 q 90 511 44 408 q 207 686 136 614 l 342 604 q 224 301 224 474 q 251 176 224 217 q 324 135 279 135 q 382 163 357 135 q 407 253 407 192 m 401 758 l 446 969 l 663 969 l 556 758 l 401 758 z "},"Ѐ":{"ha":783,"x_min":97,"x_max":719,"o":"m 97 0 l 97 925 l 719 925 l 719 775 l 271 775 l 271 550 l 690 550 l 690 400 l 271 400 l 271 150 l 719 150 l 719 0 l 97 0 m 524 1010 l 357 1010 l 188 1193 l 417 1193 l 524 1010 z "},"Ё":{"ha":783,"x_min":97,"x_max":719,"o":"m 97 0 l 97 925 l 719 925 l 719 775 l 271 775 l 271 550 l 690 550 l 690 400 l 271 400 l 271 150 l 719 150 l 719 0 l 97 0 m 468 1101 q 492 1164 468 1140 q 558 1188 517 1188 q 624 1164 600 1188 q 647 1101 647 1140 q 624 1040 647 1063 q 558 1017 600 1017 q 492 1040 517 1017 q 468 1101 468 1064 m 211 1040 q 199 1051 211 1040 q 188 1101 188 1063 q 211 1164 188 1140 q 276 1188 235 1188 q 342 1164 318 1188 q 365 1101 365 1140 q 342 1040 365 1063 q 276 1017 318 1017 q 211 1040 235 1017 z "},"Ђ":{"ha":1104,"x_min":31,"x_max":1051,"o":"m 754 -14 q 583 18 667 -14 l 617 154 q 718 132 674 132 q 836 183 794 132 q 878 317 878 233 q 828 451 878 404 q 690 497 778 497 q 530 444 597 497 q 463 300 463 392 l 463 0 l 289 0 l 289 775 l 31 775 l 31 925 l 721 925 l 721 775 l 463 775 l 463 517 q 577 615 504 576 q 746 654 650 654 q 970 566 889 654 q 1051 329 1051 478 q 976 84 1051 182 q 754 -14 900 -14 z "},"Ѓ":{"ha":749,"x_min":97,"x_max":721,"o":"m 97 0 l 97 925 l 721 925 l 721 775 l 271 775 l 271 0 l 97 0 m 639 1193 l 468 1010 l 303 1010 l 410 1193 l 639 1193 z "},"Є":{"ha":815,"x_min":49,"x_max":772,"o":"m 508 -17 q 174 112 299 -17 q 49 463 49 240 q 174 813 49 685 q 508 942 299 942 q 772 890 664 942 l 746 753 q 546 792 646 792 q 332 730 413 792 q 231 550 251 668 l 658 550 l 658 400 l 226 400 q 322 201 240 269 q 546 133 404 133 q 746 172 646 133 l 772 35 q 508 -17 664 -17 z "},"Ѕ":{"ha":786,"x_min":53,"x_max":742,"o":"m 742 264 q 648 58 742 132 q 386 -17 554 -17 q 56 51 218 -17 l 93 192 q 385 126 249 126 q 567 244 567 126 q 524 334 567 306 q 364 388 481 363 q 128 485 204 421 q 53 667 53 549 q 397 942 53 942 q 708 878 569 942 l 676 739 q 400 800 538 800 q 269 774 311 800 q 226 685 226 749 q 269 603 226 629 q 432 547 311 578 q 669 448 596 507 q 742 264 742 389 z "},"І":{"ha":382,"x_min":104,"x_max":278,"o":"m 104 0 l 104 925 l 278 925 l 278 0 l 104 0 z "},"Ї":{"ha":382,"x_min":-1,"x_max":385,"o":"m 104 0 l 104 925 l 278 925 l 278 0 l 104 0 m 294 1017 q 229 1040 253 1017 q 206 1101 206 1063 q 229 1164 206 1140 q 294 1188 253 1188 q 361 1164 338 1188 q 385 1101 385 1140 q 361 1040 385 1063 q 294 1017 338 1017 m 153 1040 q 141 1028 153 1040 q 88 1017 129 1017 q 22 1040 46 1017 q -1 1101 -1 1063 q 22 1164 -1 1140 q 88 1188 46 1188 q 153 1164 129 1188 q 178 1101 178 1140 q 153 1040 178 1064 z "},"Ј":{"ha":538,"x_min":22,"x_max":442,"o":"m 22 14 l 42 147 q 157 132 99 132 q 242 158 217 132 q 268 239 268 183 l 268 925 l 442 925 l 442 240 q 378 53 442 121 q 194 -14 314 -14 q 22 14 103 -14 z "},"Љ":{"ha":1383,"x_min":-1,"x_max":1350,"o":"m 128 -14 q -1 7 57 -14 l 18 143 q 85 132 49 132 q 203 239 169 132 q 238 608 238 346 l 238 925 l 847 925 l 847 574 l 1044 574 q 1272 494 1193 574 q 1350 288 1350 414 q 1267 81 1350 163 q 1044 0 1183 0 l 672 0 l 672 775 l 411 775 l 411 625 q 347 130 411 274 q 128 -14 283 -14 m 847 140 l 1021 140 q 1133 181 1090 140 q 1176 288 1176 221 q 1135 394 1176 354 q 1021 433 1093 433 l 847 433 l 847 140 z "},"Њ":{"ha":1346,"x_min":97,"x_max":1313,"o":"m 97 0 l 97 925 l 271 925 l 271 569 l 635 569 l 635 925 l 808 925 l 808 569 l 1007 569 q 1234 490 1156 569 q 1313 285 1313 411 q 1229 80 1313 160 q 1007 0 1146 0 l 635 0 l 635 425 l 271 425 l 271 0 l 97 0 m 808 140 l 983 140 q 1095 178 1053 140 q 1138 283 1138 217 q 1097 388 1138 350 q 983 425 1056 425 l 808 425 l 808 140 z "},"Ћ":{"ha":1114,"x_min":31,"x_max":1033,"o":"m 289 0 l 289 775 l 31 775 l 31 925 l 721 925 l 721 775 l 463 775 l 463 517 q 578 615 503 575 q 750 654 654 654 q 964 570 894 654 q 1033 336 1033 486 l 1033 0 l 858 0 l 858 293 q 819 445 858 393 q 692 497 781 497 q 532 444 601 497 q 463 300 463 390 l 463 0 l 289 0 z "},"Ќ":{"ha":865,"x_min":97,"x_max":849,"o":"m 97 0 l 97 925 l 271 925 l 271 508 l 619 925 l 843 925 l 446 474 l 849 0 l 625 0 l 271 439 l 271 0 l 97 0 m 674 1193 l 503 1010 l 338 1010 l 444 1193 l 674 1193 z "},"Ѝ":{"ha":982,"x_min":97,"x_max":885,"o":"m 97 0 l 97 925 l 265 925 l 265 288 l 713 925 l 885 925 l 885 0 l 715 0 l 715 638 l 269 0 l 97 0 m 590 1010 l 424 1010 l 254 1193 l 483 1193 l 590 1010 z "},"Ў":{"ha":863,"x_min":3,"x_max":853,"o":"m 207 0 l 367 276 l 3 925 l 204 925 l 454 446 l 669 925 l 853 925 l 411 0 l 207 0 m 538 1188 l 669 1188 q 609 1056 669 1101 q 444 1011 549 1011 q 280 1056 340 1011 q 219 1188 219 1101 l 351 1188 q 444 1110 351 1110 q 538 1188 538 1110 z "},"Џ":{"ha":975,"x_min":97,"x_max":879,"o":"m 407 -215 l 407 0 l 97 0 l 97 925 l 271 925 l 271 150 l 704 150 l 704 925 l 879 925 l 879 0 l 568 0 l 568 -215 l 407 -215 z "},"А":{"ha":896,"x_min":13,"x_max":883,"o":"m 13 0 l 351 925 l 544 925 l 883 0 l 707 0 l 633 218 l 263 218 l 189 0 l 13 0 m 449 769 l 311 364 l 585 364 l 449 769 z "},"Б":{"ha":861,"x_min":97,"x_max":814,"o":"m 97 0 l 97 925 l 774 925 l 774 775 l 271 775 l 271 558 l 507 558 q 736 483 658 558 q 814 281 814 407 q 731 78 814 156 q 507 0 647 0 l 97 0 m 271 140 l 485 140 q 597 177 556 140 q 639 281 639 214 q 598 383 639 347 q 485 418 557 418 l 271 418 l 271 140 z "},"В":{"ha":851,"x_min":97,"x_max":804,"o":"m 97 0 l 97 925 l 508 925 q 705 865 635 925 q 775 700 775 806 q 610 474 775 532 q 752 399 700 456 q 804 253 804 343 q 723 70 804 140 q 508 0 642 0 l 97 0 m 268 533 l 460 533 q 566 572 529 533 q 603 669 603 611 q 567 758 603 726 q 461 789 531 789 l 268 789 l 268 533 m 268 136 l 486 136 q 596 172 558 136 q 633 269 633 208 q 592 363 633 329 q 475 397 551 397 l 268 397 l 268 136 z "},"Г":{"ha":749,"x_min":97,"x_max":721,"o":"m 97 0 l 97 925 l 721 925 l 721 775 l 271 775 l 271 0 l 97 0 z "},"Д":{"ha":965,"x_min":0,"x_max":936,"o":"m 0 -215 l 0 150 l 17 150 q 174 256 122 150 q 226 608 226 363 l 226 925 l 826 925 l 826 150 l 936 150 l 936 -215 l 776 -215 l 776 0 l 160 0 l 160 -215 l 0 -215 m 278 150 l 651 150 l 651 775 l 401 775 l 401 632 q 278 150 401 274 z "},"Е":{"ha":783,"x_min":97,"x_max":719,"o":"m 97 0 l 97 925 l 719 925 l 719 775 l 271 775 l 271 550 l 690 550 l 690 400 l 271 400 l 271 150 l 719 150 l 719 0 l 97 0 z "},"Ж":{"ha":1307,"x_min":17,"x_max":1290,"o":"m 17 0 l 353 474 l 22 925 l 239 925 l 503 544 l 567 544 l 567 925 l 740 925 l 740 544 l 804 544 l 1068 925 l 1285 925 l 954 474 l 1290 0 l 1074 0 l 810 393 l 740 393 l 740 0 l 567 0 l 567 393 l 496 393 l 233 0 l 17 0 z "},"З":{"ha":781,"x_min":40,"x_max":731,"o":"m 331 -17 q 40 39 178 -17 l 68 179 q 307 132 197 132 q 491 169 422 132 q 560 281 560 206 q 506 374 560 343 q 363 404 451 404 l 158 404 l 158 544 l 346 544 q 485 577 438 544 q 532 668 532 610 q 319 793 532 793 q 93 743 207 793 l 65 879 q 360 942 203 942 q 607 880 510 942 q 704 696 704 818 q 531 481 704 538 q 676 406 622 461 q 731 263 731 351 q 670 101 731 167 q 523 10 610 36 q 331 -17 436 -17 z "},"И":{"ha":982,"x_min":97,"x_max":885,"o":"m 97 0 l 97 925 l 265 925 l 265 288 l 713 925 l 885 925 l 885 0 l 715 0 l 715 638 l 269 0 l 97 0 z "},"Й":{"ha":982,"x_min":97,"x_max":885,"o":"m 97 0 l 97 925 l 265 925 l 265 288 l 713 925 l 885 925 l 885 0 l 715 0 l 715 638 l 269 0 l 97 0 m 594 1188 l 726 1188 q 666 1056 726 1101 q 501 1011 606 1011 q 337 1056 397 1011 q 276 1188 276 1101 l 408 1188 q 501 1110 408 1110 q 594 1188 594 1110 z "},"К":{"ha":865,"x_min":97,"x_max":849,"o":"m 97 0 l 97 925 l 271 925 l 271 508 l 619 925 l 843 925 l 446 474 l 849 0 l 625 0 l 271 439 l 271 0 l 97 0 z "},"Л":{"ha":956,"x_min":-1,"x_max":860,"o":"m 128 -14 q -1 7 57 -14 l 18 143 q 85 132 49 132 q 203 239 169 132 q 238 608 238 346 l 238 925 l 860 925 l 860 0 l 685 0 l 685 775 l 411 775 l 411 625 q 347 130 411 274 q 128 -14 283 -14 z "},"М":{"ha":1143,"x_min":96,"x_max":1047,"o":"m 96 0 l 96 925 l 271 925 l 572 286 l 874 925 l 1047 925 l 1047 0 l 879 0 l 879 586 l 657 117 l 486 117 l 264 586 l 264 0 l 96 0 z "},"Н":{"ha":947,"x_min":97,"x_max":850,"o":"m 97 0 l 97 925 l 271 925 l 271 546 l 676 546 l 676 925 l 850 925 l 850 0 l 676 0 l 676 392 l 271 392 l 271 0 l 97 0 z "},"О":{"ha":967,"x_min":49,"x_max":918,"o":"m 160 116 q 104 182 160 116 q 49 463 49 249 q 160 809 49 676 q 483 942 271 942 q 807 809 696 942 q 918 463 918 676 q 807 116 918 249 q 483 -17 696 -17 q 160 116 271 -17 m 483 132 q 679 221 614 132 q 744 463 744 310 q 679 704 744 615 q 483 793 614 793 q 287 704 351 793 q 222 463 222 615 q 287 221 222 310 q 483 132 351 132 z "},"П":{"ha":958,"x_min":97,"x_max":861,"o":"m 97 0 l 97 925 l 861 925 l 861 0 l 688 0 l 688 775 l 271 775 l 271 0 l 97 0 z "},"Р":{"ha":835,"x_min":97,"x_max":804,"o":"m 97 0 l 97 925 l 499 925 q 722 842 639 925 q 804 632 804 760 q 719 421 804 506 q 499 336 635 336 l 271 336 l 271 0 l 97 0 m 271 476 l 476 476 q 589 518 547 476 q 631 632 631 560 q 588 744 631 704 q 475 785 546 785 l 271 785 l 271 476 z "},"С":{"ha":815,"x_min":49,"x_max":772,"o":"m 174 112 q 111 176 174 112 q 49 463 49 240 q 174 813 49 685 q 508 942 299 942 q 772 890 664 942 l 746 753 q 546 792 646 792 q 306 708 389 792 q 222 463 222 624 q 306 217 222 301 q 546 133 389 133 q 746 172 646 133 l 772 35 q 508 -17 664 -17 q 174 112 299 -17 z "},"Т":{"ha":765,"x_min":31,"x_max":736,"o":"m 736 775 l 469 775 l 469 0 l 296 0 l 296 775 l 31 775 l 31 925 l 736 925 l 736 775 z "},"У":{"ha":863,"x_min":3,"x_max":853,"o":"m 207 0 l 367 276 l 3 925 l 204 925 l 454 446 l 669 925 l 853 925 l 411 0 l 207 0 z "},"Ф":{"ha":1086,"x_min":44,"x_max":1042,"o":"m 456 0 l 456 125 q 154 230 264 142 q 44 468 44 318 q 153 707 44 619 q 456 810 261 794 l 456 925 l 631 925 l 631 810 q 933 706 825 794 q 1042 468 1042 618 q 931 230 1042 318 q 631 125 821 142 l 631 0 l 456 0 m 631 271 q 871 468 871 299 q 806 603 871 556 q 631 664 740 651 l 631 271 m 456 271 l 456 664 q 281 603 346 651 q 215 468 215 556 q 281 331 215 379 q 456 271 346 283 z "},"Х":{"ha":824,"x_min":15,"x_max":808,"o":"m 797 925 l 503 471 l 808 0 l 618 0 l 411 328 l 206 0 l 15 0 l 319 471 l 26 925 l 215 925 l 411 613 l 608 925 l 797 925 z "},"Ц":{"ha":971,"x_min":97,"x_max":942,"o":"m 781 -215 l 781 0 l 97 0 l 97 925 l 271 925 l 271 150 l 654 150 l 654 925 l 829 925 l 829 150 l 942 150 l 942 -215 l 781 -215 z "},"Ч":{"ha":922,"x_min":82,"x_max":826,"o":"m 651 0 l 651 419 q 536 321 611 360 q 364 282 461 282 q 151 366 221 282 q 82 603 82 450 l 82 925 l 256 925 l 256 644 q 422 439 256 439 q 583 492 514 439 q 651 636 651 546 l 651 925 l 826 925 l 826 0 l 651 0 z "},"Ш":{"ha":1286,"x_min":97,"x_max":1189,"o":"m 97 0 l 97 925 l 271 925 l 271 150 l 556 150 l 556 925 l 731 925 l 731 150 l 1015 150 l 1015 925 l 1189 925 l 1189 0 l 97 0 z "},"Щ":{"ha":1332,"x_min":97,"x_max":1301,"o":"m 1142 -215 l 1142 0 l 97 0 l 97 925 l 271 925 l 271 150 l 556 150 l 556 925 l 731 925 l 731 150 l 1015 150 l 1015 925 l 1189 925 l 1189 150 l 1301 150 l 1301 -215 l 1142 -215 z "},"Ъ":{"ha":1058,"x_min":31,"x_max":1025,"o":"m 349 0 l 349 775 l 31 775 l 31 925 l 522 925 l 522 574 l 719 574 q 947 494 868 574 q 1025 288 1025 414 q 942 81 1025 163 q 719 0 858 0 l 349 0 m 522 140 l 696 140 q 808 181 765 140 q 851 288 851 221 q 810 394 851 354 q 696 433 768 433 l 522 433 l 522 140 z "},"Ы":{"ha":1172,"x_min":97,"x_max":1075,"o":"m 901 0 l 901 925 l 1075 925 l 1075 0 l 901 0 m 271 140 l 444 140 q 558 181 515 140 q 600 288 600 221 q 558 394 600 354 q 444 433 517 433 l 271 433 l 271 140 m 97 0 l 97 925 l 271 925 l 271 574 l 468 574 q 695 494 617 574 q 774 288 774 414 q 690 81 774 163 q 468 0 607 0 l 97 0 z "},"Ь":{"ha":840,"x_min":97,"x_max":813,"o":"m 271 140 l 483 140 q 595 181 553 140 q 638 288 638 221 q 597 394 638 354 q 483 433 556 433 l 271 433 l 271 140 m 97 0 l 97 925 l 271 925 l 271 574 l 506 574 q 734 494 656 574 q 813 288 813 415 q 728 81 813 163 q 506 0 644 0 l 97 0 z "},"Э":{"ha":817,"x_min":43,"x_max":768,"o":"m 310 -17 q 43 33 161 -17 l 71 172 q 271 133 179 133 q 493 201 411 133 q 590 400 575 269 l 158 400 l 158 550 l 588 550 q 271 792 549 792 q 71 753 172 792 l 44 890 q 315 942 153 942 q 648 814 528 942 q 768 463 768 686 q 644 112 768 240 q 310 -17 519 -17 z "},"Ю":{"ha":1246,"x_min":97,"x_max":1197,"o":"m 824 -17 q 564 95 658 -17 q 454 392 469 207 l 271 392 l 271 0 l 97 0 l 97 925 l 271 925 l 271 546 l 456 546 q 567 834 474 726 q 824 942 661 942 q 1101 809 1004 942 q 1197 463 1197 676 q 1101 116 1197 249 q 824 -17 1004 -17 m 824 132 q 974 222 924 132 q 1024 463 1024 311 q 974 703 1024 614 q 824 793 924 793 q 675 703 725 793 q 625 463 625 614 q 675 222 625 311 q 824 132 725 132 z "},"Я":{"ha":901,"x_min":21,"x_max":806,"o":"m 21 0 l 271 365 q 127 467 179 394 q 75 636 75 540 q 156 846 75 767 q 382 925 238 925 l 806 925 l 806 0 l 631 0 l 631 346 l 457 346 l 238 0 l 21 0 m 408 483 l 631 483 l 631 785 l 408 785 q 292 745 335 785 q 249 636 249 706 q 292 524 249 564 q 408 483 335 483 z "},"а":{"ha":735,"x_min":60,"x_max":656,"o":"m 656 0 l 494 0 l 494 93 q 401 15 461 43 q 269 -14 342 -14 q 115 40 171 -14 q 60 188 60 93 q 124 349 60 297 q 299 400 189 400 l 486 400 l 486 443 q 349 543 486 543 q 135 494 239 543 l 107 626 q 371 686 222 686 q 656 451 656 686 l 656 0 m 486 240 l 486 282 l 329 282 q 226 193 226 282 q 329 104 226 104 q 443 142 400 104 q 486 240 486 179 z "},"б":{"ha":733,"x_min":49,"x_max":689,"o":"m 369 -14 q 219 19 283 -14 q 118 107 154 51 q 65 226 82 163 q 49 358 49 289 q 184 753 49 622 q 629 939 319 885 l 653 808 q 353 710 456 771 q 211 525 250 650 q 410 615 283 615 q 617 528 546 615 q 689 300 689 442 q 601 77 689 168 q 369 -14 513 -14 m 369 117 q 482 167 443 117 q 521 300 521 217 q 483 435 521 386 q 372 485 446 485 q 259 435 300 485 q 218 301 218 386 q 260 169 218 221 q 369 117 301 117 z "},"в":{"ha":704,"x_min":90,"x_max":665,"o":"m 253 394 l 385 394 q 451 419 428 394 q 475 478 475 443 q 385 550 475 550 l 253 550 l 253 394 m 253 122 l 403 122 q 473 144 449 122 q 497 204 497 167 q 471 260 497 239 q 396 282 444 282 l 253 282 l 253 122 m 90 0 l 90 672 l 422 672 q 584 629 528 672 q 640 510 640 586 q 508 344 640 386 q 665 183 665 317 q 600 50 665 100 q 422 0 535 0 l 90 0 z "},"г":{"ha":601,"x_min":90,"x_max":582,"o":"m 90 0 l 90 672 l 582 672 l 582 539 l 260 539 l 260 0 l 90 0 z "},"д":{"ha":793,"x_min":6,"x_max":769,"o":"m 6 -215 l 6 135 l 19 135 q 131 201 94 135 q 168 442 168 268 l 168 672 l 674 672 l 674 135 l 769 135 l 769 -215 l 613 -215 l 613 0 l 163 0 l 163 -215 l 6 -215 m 243 135 l 504 135 l 504 539 l 332 539 l 332 460 q 243 135 332 228 z "},"е":{"ha":692,"x_min":44,"x_max":649,"o":"m 649 275 l 217 275 q 410 113 232 113 q 614 158 513 113 l 643 43 q 383 -14 526 -14 q 129 78 214 -14 q 44 336 44 171 q 126 590 44 493 q 367 686 207 686 q 579 599 510 686 q 649 360 649 511 l 649 275 m 364 569 q 259 526 294 569 q 215 394 224 483 l 489 394 l 489 413 q 364 569 489 569 z "},"ж":{"ha":1042,"x_min":13,"x_max":1029,"o":"m 13 0 l 257 344 l 17 672 l 210 672 l 397 401 l 436 401 l 436 672 l 606 672 l 606 401 l 646 401 l 833 672 l 1026 672 l 786 344 l 1029 0 l 838 0 l 650 279 l 606 279 l 606 0 l 436 0 l 436 279 l 392 279 l 206 0 l 13 0 z "},"з":{"ha":607,"x_min":19,"x_max":568,"o":"m 247 -14 q 19 25 128 -14 l 49 151 q 232 114 144 114 q 400 206 400 114 q 265 285 400 285 l 113 285 l 113 401 l 250 401 q 379 481 379 401 q 232 560 379 560 q 67 522 157 560 l 43 640 q 271 686 153 686 q 468 640 392 686 q 544 506 544 594 q 506 407 544 449 q 401 347 468 365 q 568 190 568 322 q 477 36 568 86 q 247 -14 386 -14 z "},"и":{"ha":807,"x_min":90,"x_max":717,"o":"m 90 0 l 90 672 l 249 672 l 249 242 l 554 672 l 717 672 l 717 0 l 557 0 l 557 432 l 251 0 l 90 0 z "},"й":{"ha":807,"x_min":90,"x_max":717,"o":"m 625 953 q 565 811 625 863 q 407 760 504 760 q 250 811 310 760 q 190 953 190 863 l 313 953 q 407 861 313 861 q 501 953 501 861 l 625 953 m 90 0 l 90 672 l 249 672 l 249 242 l 554 672 l 717 672 l 717 0 l 557 0 l 557 432 l 251 0 l 90 0 z "},"к":{"ha":717,"x_min":90,"x_max":704,"o":"m 90 0 l 90 672 l 260 672 l 260 369 l 503 672 l 700 672 l 424 346 l 704 0 l 507 0 l 260 318 l 260 0 l 90 0 z "},"л":{"ha":769,"x_min":4,"x_max":681,"o":"m 104 -10 q 4 6 50 -10 l 21 140 q 75 133 42 133 q 156 199 135 133 q 176 442 176 265 l 176 672 l 681 672 l 681 0 l 511 0 l 511 539 l 340 539 l 340 454 q 289 93 340 196 q 104 -10 238 -10 z "},"м":{"ha":933,"x_min":90,"x_max":844,"o":"m 90 0 l 90 672 l 274 672 l 467 244 l 660 672 l 844 672 l 844 0 l 683 0 l 683 411 l 540 90 l 393 90 l 250 411 l 250 0 l 90 0 z "},"н":{"ha":789,"x_min":90,"x_max":699,"o":"m 90 0 l 90 672 l 260 672 l 260 408 l 529 408 l 529 672 l 699 672 l 699 0 l 529 0 l 529 274 l 260 274 l 260 0 l 90 0 z "},"о":{"ha":729,"x_min":44,"x_max":685,"o":"m 602 590 q 643 541 602 590 q 685 336 685 493 q 602 83 685 179 q 365 -14 519 -14 q 128 83 211 -14 q 44 336 44 179 q 128 590 44 493 q 365 686 211 686 q 602 590 519 686 m 365 121 q 515 336 515 121 q 365 551 515 551 q 214 336 214 551 q 365 121 214 121 z "},"п":{"ha":793,"x_min":90,"x_max":703,"o":"m 90 0 l 90 672 l 703 672 l 703 0 l 533 0 l 533 539 l 260 539 l 260 0 l 90 0 z "},"р":{"ha":775,"x_min":90,"x_max":731,"o":"m 465 -14 q 260 108 324 -14 l 260 -247 l 90 -247 l 90 672 l 254 672 l 254 564 q 468 686 318 686 q 665 590 599 686 q 731 336 731 493 q 665 82 731 178 q 465 -14 599 -14 m 417 121 q 561 336 561 121 q 417 551 561 551 q 299 494 338 551 q 260 336 260 436 q 299 179 260 238 q 417 121 339 121 z "},"с":{"ha":624,"x_min":44,"x_max":583,"o":"m 583 642 l 558 517 q 404 551 483 551 q 214 336 214 551 q 404 122 214 122 q 558 156 488 122 l 583 31 q 376 -14 508 -14 q 129 79 214 -14 q 44 336 44 172 q 129 593 44 500 q 376 686 214 686 q 583 642 508 686 z "},"т":{"ha":622,"x_min":21,"x_max":600,"o":"m 225 0 l 225 539 l 21 539 l 21 672 l 600 672 l 600 539 l 394 539 l 394 0 l 225 0 z "},"у":{"ha":622,"x_min":-3,"x_max":625,"o":"m 314 181 l 447 672 l 625 672 l 325 -247 l 154 -247 l 229 -4 l -3 672 l 175 672 l 314 181 z "},"ф":{"ha":1032,"x_min":44,"x_max":988,"o":"m 704 121 q 819 336 819 121 q 704 551 819 551 q 583 336 583 551 q 704 121 583 121 m 431 -247 l 431 79 q 265 -14 372 -14 q 97 83 150 -14 q 44 336 44 181 q 100 588 44 490 q 267 686 156 686 q 364 663 328 686 q 431 592 400 640 l 431 925 l 600 925 l 600 593 q 767 686 661 686 q 935 589 882 686 q 988 336 988 492 q 932 84 988 182 q 765 -14 876 -14 q 668 9 704 -14 q 600 81 632 32 l 600 -247 l 431 -247 m 328 121 q 449 336 449 121 q 328 551 449 551 q 213 336 213 551 q 328 121 213 121 z "},"х":{"ha":650,"x_min":19,"x_max":632,"o":"m 625 672 l 413 342 l 632 0 l 457 0 l 325 211 l 193 0 l 19 0 l 238 342 l 26 672 l 200 672 l 325 471 l 450 672 l 625 672 z "},"ц":{"ha":804,"x_min":90,"x_max":781,"o":"m 624 -215 l 624 0 l 90 0 l 90 672 l 260 672 l 260 135 l 514 135 l 514 672 l 683 672 l 683 135 l 781 135 l 781 -215 l 624 -215 z "},"ч":{"ha":769,"x_min":74,"x_max":681,"o":"m 511 0 l 511 308 q 288 194 433 194 q 126 255 179 194 q 74 424 74 315 l 74 672 l 243 672 l 243 474 q 356 340 243 340 q 464 375 417 340 q 511 469 511 410 l 511 672 l 681 672 l 681 0 l 511 0 z "},"ш":{"ha":1049,"x_min":90,"x_max":958,"o":"m 90 0 l 90 672 l 260 672 l 260 135 l 439 135 l 439 672 l 608 672 l 608 135 l 789 135 l 789 672 l 958 672 l 958 0 l 90 0 z "},"щ":{"ha":1079,"x_min":90,"x_max":1056,"o":"m 899 -215 l 899 0 l 90 0 l 90 672 l 260 672 l 260 135 l 439 135 l 439 672 l 608 672 l 608 135 l 789 135 l 789 672 l 958 672 l 958 135 l 1056 135 l 1056 -215 l 899 -215 z "},"ъ":{"ha":842,"x_min":19,"x_max":808,"o":"m 424 128 l 538 128 q 612 151 585 128 q 639 219 639 175 q 612 288 639 264 q 538 311 585 311 l 424 311 l 424 128 m 254 0 l 254 539 l 19 539 l 19 672 l 424 672 l 424 433 l 567 433 q 747 374 685 433 q 808 218 808 314 q 742 61 808 122 q 567 0 676 0 l 254 0 z "},"ы":{"ha":988,"x_min":90,"x_max":899,"o":"m 729 0 l 729 672 l 899 672 l 899 0 l 729 0 m 260 128 l 361 128 q 435 151 407 128 q 463 219 463 175 q 435 288 463 264 q 361 311 408 311 l 260 311 l 260 128 m 90 0 l 90 672 l 260 672 l 260 433 l 389 433 q 569 374 507 433 q 632 218 632 314 q 565 61 632 122 q 389 0 499 0 l 90 0 z "},"ь":{"ha":703,"x_min":90,"x_max":669,"o":"m 260 128 l 400 128 q 473 151 446 128 q 500 219 500 175 q 474 288 500 264 q 400 311 447 311 l 260 311 l 260 128 m 90 0 l 90 672 l 260 672 l 260 433 l 428 433 q 608 374 546 433 q 669 218 669 314 q 603 61 669 122 q 428 0 538 0 l 90 0 z "},"э":{"ha":631,"x_min":32,"x_max":586,"o":"m 249 -14 q 32 31 110 -14 l 58 156 q 221 122 129 122 q 411 282 389 122 l 117 282 l 117 404 l 410 404 q 221 551 379 551 q 58 517 133 551 l 32 642 q 249 686 110 686 q 499 592 413 686 q 586 336 586 499 q 499 80 586 174 q 249 -14 413 -14 z "},"ю":{"ha":1013,"x_min":90,"x_max":968,"o":"m 672 -14 q 472 65 544 -14 q 385 274 399 143 l 260 274 l 260 0 l 90 0 l 90 672 l 260 672 l 260 408 l 386 408 q 474 610 401 535 q 672 686 547 686 q 892 589 817 686 q 968 336 968 492 q 892 83 968 181 q 672 -14 817 -14 m 567 181 q 584 151 567 181 q 667 121 600 121 q 766 181 733 121 q 799 336 799 242 q 766 491 799 431 q 667 551 733 551 q 567 491 600 551 q 535 336 535 431 q 567 181 535 242 z "},"я":{"ha":738,"x_min":21,"x_max":647,"o":"m 21 0 l 197 260 q 98 337 133 286 q 63 453 63 388 q 131 613 63 553 q 319 672 199 672 l 647 672 l 647 0 l 478 0 l 478 244 l 364 244 l 210 0 l 21 0 m 333 357 l 478 357 l 478 546 l 333 546 q 258 522 286 546 q 229 453 229 497 q 258 383 229 408 q 333 357 286 357 z "},"ѐ":{"ha":692,"x_min":44,"x_max":649,"o":"m 649 275 l 217 275 q 410 113 232 113 q 614 158 513 113 l 643 43 q 383 -14 526 -14 q 129 78 214 -14 q 44 336 44 171 q 126 590 44 493 q 367 686 207 686 q 579 599 510 686 q 649 360 649 511 l 649 275 m 364 569 q 259 526 294 569 q 215 394 224 483 l 489 394 l 489 413 q 364 569 489 569 m 275 758 l 149 969 l 364 969 l 439 758 l 275 758 z "},"ё":{"ha":692,"x_min":44,"x_max":649,"o":"m 649 275 l 217 275 q 410 113 232 113 q 614 158 513 113 l 643 43 q 383 -14 526 -14 q 129 78 214 -14 q 44 336 44 171 q 126 590 44 493 q 367 686 207 686 q 579 599 510 686 q 649 360 649 511 l 649 275 m 364 569 q 259 526 294 569 q 215 394 224 483 l 489 394 l 489 413 q 364 569 489 569 m 430 797 q 418 810 430 797 q 406 860 406 822 q 430 922 406 897 q 494 947 454 947 q 560 922 536 947 q 585 860 585 897 q 560 797 585 822 q 494 772 536 772 q 430 797 454 772 m 165 797 q 152 810 165 797 q 140 860 140 822 q 165 922 140 897 q 229 947 189 947 q 294 922 269 947 q 318 860 318 897 q 294 797 318 822 q 229 772 269 772 q 165 797 189 772 z "},"ђ":{"ha":789,"x_min":22,"x_max":700,"o":"m 511 -261 q 406 -246 454 -261 l 418 -111 q 472 -118 440 -118 q 531 -56 531 -118 l 531 429 q 424 540 531 540 q 313 495 351 540 q 275 367 275 450 l 275 0 l 106 0 l 106 738 l 22 738 l 22 843 l 106 843 l 106 925 l 275 925 l 275 843 l 406 843 l 406 738 l 275 738 l 275 560 q 483 686 336 686 q 700 457 700 686 l 700 -78 q 652 -214 700 -167 q 511 -261 604 -261 z "},"ѓ":{"ha":601,"x_min":90,"x_max":582,"o":"m 246 758 l 321 969 l 536 969 l 410 758 l 246 758 m 90 0 l 90 672 l 582 672 l 582 539 l 260 539 l 260 0 l 90 0 z "},"є":{"ha":624,"x_min":44,"x_max":583,"o":"m 376 -14 q 129 79 214 -14 q 44 336 44 172 q 129 593 44 500 q 376 686 214 686 q 583 642 508 686 l 558 517 q 404 551 483 551 q 221 404 246 551 l 500 404 l 500 282 l 218 282 q 404 122 240 122 q 558 156 488 122 l 583 31 q 376 -14 508 -14 z "},"ѕ":{"ha":608,"x_min":46,"x_max":569,"o":"m 569 210 q 499 45 569 104 q 303 -14 429 -14 q 50 38 181 -14 l 86 160 q 300 113 207 113 q 403 182 403 113 q 380 228 403 211 q 297 261 357 244 q 99 351 151 303 q 46 483 46 399 q 114 635 46 585 q 308 686 182 686 q 540 640 444 686 l 510 518 q 314 561 411 561 q 237 548 261 561 q 213 501 213 535 q 239 453 213 468 q 353 413 265 439 q 516 338 463 381 q 569 210 569 294 z "},"і":{"ha":349,"x_min":71,"x_max":278,"o":"m 71 857 q 99 931 71 901 q 175 961 128 961 q 249 931 221 961 q 278 857 278 901 q 249 783 278 814 q 175 753 221 753 q 100 783 129 753 q 71 857 71 814 m 260 0 l 90 0 l 90 672 l 260 672 l 260 0 z "},"ї":{"ha":349,"x_min":-22,"x_max":371,"o":"m 90 0 l 90 672 l 260 672 l 260 0 l 90 0 m 69 758 q 2 787 26 758 q -22 857 -22 815 q 2 928 -22 900 q 69 957 26 957 q 135 928 111 957 q 160 857 160 900 q 135 787 160 815 q 69 758 111 758 m 281 758 q 213 787 238 758 q 189 857 189 815 q 213 928 189 900 q 281 957 238 957 q 347 928 322 957 q 371 857 371 900 q 347 787 371 815 q 281 758 322 758 z "},"ј":{"ha":349,"x_min":-35,"x_max":278,"o":"m 71 857 q 99 931 71 901 q 175 961 128 961 q 249 931 221 961 q 278 857 278 901 q 249 783 278 814 q 175 753 221 753 q 100 783 129 753 q 71 857 71 814 m 32 -118 q 90 -56 90 -118 l 90 672 l 260 672 l 260 -78 q 212 -214 260 -167 q 71 -261 164 -261 q -35 -246 14 -261 l -22 -111 q 32 -118 0 -118 z "},"љ":{"ha":1088,"x_min":4,"x_max":1054,"o":"m 104 -10 q 4 6 50 -10 l 21 140 q 75 133 42 133 q 156 199 135 133 q 176 442 176 265 l 176 672 l 676 672 l 676 433 l 811 433 q 992 374 929 433 q 1054 218 1054 314 q 988 61 1054 122 q 811 0 921 0 l 507 0 l 507 539 l 340 539 l 340 454 q 289 93 340 196 q 104 -10 238 -10 m 676 128 l 783 128 q 857 151 829 128 q 885 219 885 175 q 858 288 885 264 q 783 311 831 311 l 676 311 l 676 128 z "},"њ":{"ha":1096,"x_min":90,"x_max":1063,"o":"m 90 0 l 90 672 l 260 672 l 260 426 l 515 426 l 515 672 l 685 672 l 685 426 l 821 426 q 1001 368 939 426 q 1063 214 1063 310 q 997 59 1063 118 q 821 0 931 0 l 515 0 l 515 296 l 260 296 l 260 0 l 90 0 m 685 128 l 792 128 q 866 149 839 128 q 893 213 893 171 q 792 296 893 296 l 685 296 l 685 128 z "},"ћ":{"ha":782,"x_min":22,"x_max":700,"o":"m 22 738 l 22 843 l 106 843 l 106 925 l 275 925 l 275 843 l 406 843 l 406 738 l 275 738 l 275 560 q 483 686 336 686 q 700 457 700 686 l 700 0 l 531 0 l 531 429 q 424 540 531 540 q 313 495 351 540 q 275 367 275 450 l 275 0 l 106 0 l 106 738 l 22 738 z "},"ќ":{"ha":717,"x_min":90,"x_max":704,"o":"m 286 758 l 361 969 l 576 969 l 450 758 l 286 758 m 90 0 l 90 672 l 260 672 l 260 369 l 503 672 l 700 672 l 424 346 l 704 0 l 507 0 l 260 318 l 260 0 l 90 0 z "},"ѝ":{"ha":807,"x_min":90,"x_max":717,"o":"m 338 758 l 211 969 l 426 969 l 501 758 l 338 758 m 90 0 l 90 672 l 249 672 l 249 242 l 554 672 l 717 672 l 717 0 l 557 0 l 557 432 l 251 0 l 90 0 z "},"ў":{"ha":622,"x_min":-3,"x_max":625,"o":"m 314 181 l 447 672 l 625 672 l 325 -247 l 154 -247 l 229 -4 l -3 672 l 175 672 l 314 181 m 539 953 q 478 811 539 863 q 321 760 418 760 q 164 811 224 760 q 104 953 104 863 l 226 953 q 321 861 226 861 q 415 953 415 861 l 539 953 z "},"џ":{"ha":808,"x_min":90,"x_max":719,"o":"m 326 -215 l 326 0 l 90 0 l 90 672 l 260 672 l 260 135 l 550 135 l 550 672 l 719 672 l 719 0 l 483 0 l 483 -215 l 326 -215 z "},"Ѣ":{"ha":883,"x_min":35,"x_max":850,"o":"m 135 0 l 135 685 l 35 685 l 35 793 l 135 793 l 135 925 l 308 925 l 308 793 l 564 793 l 564 685 l 308 685 l 308 567 l 544 567 q 772 488 693 567 q 850 283 850 410 q 767 80 850 160 q 544 0 683 0 l 135 0 m 308 140 l 521 140 q 633 179 590 140 q 676 283 676 218 q 635 388 676 350 q 521 426 593 426 l 308 426 l 308 140 z "},"ѣ":{"ha":715,"x_min":18,"x_max":682,"o":"m 101 0 l 101 568 l 18 568 l 18 672 l 101 672 l 101 925 l 271 925 l 271 672 l 474 672 l 474 568 l 271 568 l 271 433 l 439 433 q 619 374 557 433 q 682 218 682 314 q 615 61 682 122 q 439 0 549 0 l 101 0 m 271 128 l 411 128 q 485 151 457 128 q 513 219 513 175 q 485 288 513 264 q 411 311 458 311 l 271 311 l 271 128 z "},"Ѳ":{"ha":967,"x_min":49,"x_max":918,"o":"m 807 116 q 751 50 807 116 q 483 -17 696 -17 q 160 116 271 -17 q 49 463 49 249 q 160 809 49 676 q 483 942 271 942 q 807 809 696 942 q 918 463 918 676 q 807 116 918 249 m 302 202 q 334 167 302 202 q 483 132 367 132 q 664 203 600 132 q 740 397 728 274 l 225 397 q 302 202 238 272 m 226 539 l 739 539 q 660 726 725 658 q 483 793 596 793 q 306 726 369 793 q 226 539 242 658 z "},"ѳ":{"ha":729,"x_min":44,"x_max":685,"o":"m 602 83 q 561 34 602 83 q 365 -14 519 -14 q 128 83 211 -14 q 44 336 44 179 q 128 590 44 493 q 365 686 211 686 q 602 590 519 686 q 685 336 685 493 q 602 83 685 179 m 365 121 q 511 278 493 121 l 217 278 q 365 121 236 121 m 218 403 l 511 403 q 365 551 492 551 q 218 403 240 551 z "},"Ѵ":{"ha":954,"x_min":11,"x_max":965,"o":"m 296 0 l 11 925 l 194 925 l 397 197 l 561 697 q 658 881 601 821 q 822 942 714 942 q 965 914 892 942 l 946 778 q 858 796 894 796 q 773 763 801 796 q 719 660 744 729 l 492 0 l 296 0 z "},"ѵ":{"ha":726,"x_min":-3,"x_max":749,"o":"m 211 0 l -3 672 l 176 672 l 310 169 l 421 507 q 496 642 450 597 q 631 688 542 688 q 749 664 681 688 l 729 532 q 667 543 699 543 q 605 522 626 543 q 569 463 583 501 l 404 0 l 211 0 z "},"Ґ":{"ha":767,"x_min":97,"x_max":739,"o":"m 97 0 l 97 925 l 578 925 l 578 1140 l 739 1140 l 739 775 l 271 775 l 271 0 l 97 0 z "},"ґ":{"ha":628,"x_min":90,"x_max":608,"o":"m 90 0 l 90 672 l 451 672 l 451 889 l 608 889 l 608 539 l 260 539 l 260 0 l 90 0 z "},"Ẁ":{"ha":1219,"x_min":7,"x_max":1211,"o":"m 682 1010 l 515 1010 l 346 1193 l 575 1193 l 682 1010 m 707 925 l 888 282 l 1036 925 l 1211 925 l 969 0 l 807 0 l 611 735 l 413 0 l 250 0 l 7 925 l 182 925 l 332 282 l 514 925 l 707 925 z "},"ẁ":{"ha":1007,"x_min":1,"x_max":1006,"o":"m 592 672 l 725 197 l 839 672 l 1006 672 l 813 0 l 642 0 l 504 488 l 367 0 l 194 0 l 1 672 l 168 672 l 283 197 l 415 672 l 592 672 m 413 758 l 286 969 l 501 969 l 576 758 l 413 758 z "},"Ẃ":{"ha":1219,"x_min":7,"x_max":1211,"o":"m 868 1193 l 697 1010 l 532 1010 l 639 1193 l 868 1193 m 707 925 l 888 282 l 1036 925 l 1211 925 l 969 0 l 807 0 l 611 735 l 413 0 l 250 0 l 7 925 l 182 925 l 332 282 l 514 925 l 707 925 z "},"ẃ":{"ha":1007,"x_min":1,"x_max":1006,"o":"m 429 758 l 504 969 l 719 969 l 593 758 l 429 758 m 592 672 l 725 197 l 839 672 l 1006 672 l 813 0 l 642 0 l 504 488 l 367 0 l 194 0 l 1 672 l 168 672 l 283 197 l 415 672 l 592 672 z "},"Ẅ":{"ha":1219,"x_min":7,"x_max":1211,"o":"m 707 925 l 888 282 l 1036 925 l 1211 925 l 969 0 l 807 0 l 611 735 l 413 0 l 250 0 l 7 925 l 182 925 l 332 282 l 514 925 l 707 925 m 660 1101 q 684 1164 660 1140 q 750 1188 708 1188 q 815 1164 792 1188 q 839 1101 839 1140 q 815 1040 839 1063 q 750 1017 792 1017 q 684 1040 708 1017 q 660 1101 660 1064 m 403 1040 q 391 1051 403 1040 q 379 1101 379 1063 q 403 1164 379 1140 q 468 1188 426 1188 q 533 1164 510 1188 q 557 1101 557 1140 q 533 1040 557 1063 q 468 1017 510 1017 q 403 1040 426 1017 z "},"ẅ":{"ha":1007,"x_min":1,"x_max":1006,"o":"m 570 797 q 558 810 570 797 q 546 860 546 822 q 570 922 546 897 q 635 947 594 947 q 701 922 676 947 q 725 860 725 897 q 701 797 725 822 q 635 772 676 772 q 570 797 594 772 m 305 797 q 293 810 305 797 q 281 860 281 822 q 305 922 281 897 q 369 947 329 947 q 434 922 410 947 q 458 860 458 897 q 434 797 458 822 q 369 772 410 772 q 305 797 329 772 m 592 672 l 725 197 l 839 672 l 1006 672 l 813 0 l 642 0 l 504 488 l 367 0 l 194 0 l 1 672 l 168 672 l 283 197 l 415 672 l 592 672 z "},"Ỳ":{"ha":776,"x_min":3,"x_max":774,"o":"m 774 925 l 475 365 l 475 0 l 301 0 l 301 365 l 3 925 l 186 925 l 388 518 l 590 925 l 774 925 m 486 1010 l 319 1010 l 150 1193 l 379 1193 l 486 1010 z "},"ỳ":{"ha":622,"x_min":-3,"x_max":625,"o":"m 314 181 l 447 672 l 625 672 l 325 -247 l 154 -247 l 229 -4 l -3 672 l 175 672 l 314 181 m 238 758 l 111 969 l 326 969 l 401 758 l 238 758 z "},"–":{"ha":782,"x_min":75,"x_max":708,"o":"m 708 324 l 75 324 l 75 469 l 708 469 l 708 324 z "},"—":{"ha":1097,"x_min":75,"x_max":1022,"o":"m 1022 324 l 75 324 l 75 469 l 1022 469 l 1022 324 z "},"‘":{"ha":339,"x_min":28,"x_max":313,"o":"m 28 579 l 172 925 l 313 925 l 235 579 l 28 579 z "},"’":{"ha":333,"x_min":26,"x_max":311,"o":"m 26 579 l 103 925 l 311 925 l 165 579 l 26 579 z "},"‚":{"ha":394,"x_min":36,"x_max":322,"o":"m 322 186 l 176 -160 l 36 -160 l 114 186 l 322 186 z "},"“":{"ha":651,"x_min":28,"x_max":625,"o":"m 339 579 l 485 925 l 625 925 l 547 579 l 339 579 m 28 579 l 172 925 l 313 925 l 235 579 l 28 579 z "},"”":{"ha":651,"x_min":26,"x_max":624,"o":"m 339 579 l 415 925 l 624 925 l 478 579 l 339 579 m 26 579 l 103 925 l 311 925 l 165 579 l 26 579 z "},"„":{"ha":707,"x_min":36,"x_max":635,"o":"m 635 186 l 489 -160 l 349 -160 l 426 186 l 635 186 m 322 186 l 176 -160 l 36 -160 l 114 186 l 322 186 z "},"†":{"ha":576,"x_min":56,"x_max":521,"o":"m 374 925 l 374 838 l 335 706 l 442 742 l 521 742 l 521 600 l 442 600 l 335 635 l 374 503 l 331 97 l 247 97 l 203 503 l 242 635 l 135 600 l 56 600 l 56 742 l 135 742 l 242 706 l 203 838 l 203 925 l 374 925 z "},"‡":{"ha":576,"x_min":56,"x_max":521,"o":"m 203 925 l 374 925 l 374 838 l 335 706 l 442 742 l 521 742 l 521 600 l 442 600 l 335 635 l 374 503 l 374 422 l 335 290 l 442 325 l 521 325 l 521 183 l 442 183 l 335 219 l 374 88 l 374 0 l 203 0 l 203 88 l 242 219 l 135 183 l 56 183 l 56 325 l 135 325 l 242 290 l 203 422 l 203 503 l 242 635 l 135 600 l 56 600 l 56 742 l 135 742 l 242 706 l 203 838 l 203 925 z "},"•":{"ha":503,"x_min":61,"x_max":442,"o":"m 442 476 q 389 344 442 399 q 251 290 336 290 q 114 344 167 290 q 61 476 61 399 q 114 609 61 556 q 251 663 167 663 q 389 609 336 663 q 442 476 442 556 z "},"…":{"ha":1117,"x_min":83,"x_max":1033,"o":"m 856 17 q 842 32 856 17 q 828 92 828 46 q 856 166 828 138 q 931 194 885 194 q 1005 166 976 194 q 1033 92 1033 138 q 1005 17 1033 46 q 931 -11 976 -11 q 856 17 885 -11 m 484 17 q 470 32 484 17 q 456 92 456 46 q 484 166 456 138 q 558 194 513 194 q 633 166 604 194 q 661 92 661 138 q 633 17 661 46 q 558 -11 604 -11 q 484 17 513 -11 m 112 17 q 98 32 112 17 q 83 92 83 46 q 112 166 83 138 q 186 194 140 194 q 260 166 232 194 q 289 92 289 138 q 260 17 289 46 q 186 -11 232 -11 q 112 17 140 -11 z "},"‰":{"ha":1721,"x_min":49,"x_max":1679,"o":"m 449 506 q 419 471 449 506 q 278 436 389 436 q 108 506 167 436 q 49 688 49 575 q 108 869 49 800 q 278 939 167 939 q 449 869 389 939 q 508 688 508 800 q 449 506 508 575 m 297 0 l 747 925 l 893 925 l 443 0 l 297 0 m 278 540 q 378 688 378 540 q 278 833 378 833 q 179 688 179 833 q 278 540 179 540 m 1619 56 q 1590 21 1619 56 q 1449 -14 1560 -14 q 1278 56 1338 -14 q 1219 238 1219 125 q 1278 419 1219 350 q 1449 489 1338 489 q 1619 419 1560 489 q 1679 238 1679 350 q 1619 56 1679 125 m 1082 56 q 1052 21 1082 56 q 911 -14 1022 -14 q 740 56 800 -14 q 681 238 681 126 q 740 419 681 349 q 911 489 800 489 q 1082 419 1022 489 q 1142 238 1142 350 q 1082 56 1142 125 m 1449 92 q 1549 238 1549 92 q 1449 385 1549 385 q 1350 238 1350 385 q 1449 92 1350 92 m 911 92 q 1011 238 1011 92 q 911 385 1011 385 q 813 238 813 385 q 911 92 813 92 z "},"‹":{"ha":500,"x_min":33,"x_max":446,"o":"m 446 628 l 229 342 l 446 56 l 251 56 l 33 342 l 251 628 l 446 628 z "},"›":{"ha":500,"x_min":54,"x_max":467,"o":"m 249 628 l 467 342 l 249 56 l 54 56 l 271 342 l 54 628 l 249 628 z "},"⁄":{"ha":614,"x_min":0,"x_max":614,"o":"m 614 925 l 143 0 l 0 0 l 471 925 l 614 925 z "},"€":{"ha":806,"x_min":46,"x_max":754,"o":"m 46 526 l 46 650 l 161 650 q 531 939 232 939 q 754 893 660 939 l 731 768 q 553 803 644 803 q 406 765 458 803 q 331 650 353 728 l 629 650 l 629 526 l 313 526 q 310 463 310 485 q 313 399 310 438 l 629 399 l 629 275 l 331 275 q 406 160 353 197 q 553 122 458 122 q 731 157 644 122 l 754 32 q 531 -14 660 -14 q 161 275 232 -14 l 46 275 l 46 399 l 143 399 q 142 463 142 419 q 143 526 142 506 l 46 526 z "},"№":{"ha":1449,"x_min":97,"x_max":1394,"o":"m 97 0 l 97 925 l 269 925 l 715 288 l 715 925 l 885 925 l 885 0 l 713 0 l 265 638 l 265 0 l 97 0 m 1339 875 q 1367 843 1339 875 q 1394 707 1394 811 q 1339 540 1394 603 q 1181 478 1283 478 q 1022 540 1078 478 q 967 707 967 603 q 1022 875 967 811 q 1181 939 1078 939 q 1339 875 1283 939 m 1181 571 q 1274 707 1274 571 q 1181 843 1274 843 q 1086 707 1086 843 q 1181 571 1086 571 m 983 308 l 983 407 l 1376 407 l 1376 308 l 983 308 z "},"™":{"ha":985,"x_min":32,"x_max":901,"o":"m 621 551 l 539 744 l 539 483 l 443 483 l 443 925 l 553 925 l 672 650 l 793 925 l 901 925 l 901 483 l 807 483 l 807 744 l 725 551 l 621 551 m 32 925 l 374 925 l 374 840 l 253 840 l 253 483 l 153 483 l 153 840 l 32 840 l 32 925 z "},"Ω":{"ha":1032,"x_min":54,"x_max":922,"o":"m 922 517 q 760 136 922 303 l 907 136 l 907 0 l 576 0 l 576 136 q 753 504 753 279 q 685 724 753 643 q 488 806 617 806 q 292 724 360 806 q 224 504 224 643 q 400 136 224 279 l 400 0 l 69 0 l 69 136 l 217 136 q 54 517 54 303 q 171 827 54 713 q 488 942 288 942 q 806 827 689 942 q 922 517 922 713 z "},"℮":{"ha":1101,"x_min":56,"x_max":1047,"o":"m 1047 446 l 253 446 l 253 139 q 553 32 375 32 q 767 73 671 32 q 956 203 863 114 l 989 168 q 551 -14 792 -14 q 197 126 339 -14 q 56 476 56 267 q 201 806 56 672 q 551 939 347 939 q 900 804 753 939 q 1047 478 1047 669 l 1047 446 m 551 893 q 253 783 378 893 l 253 490 l 850 490 l 850 783 q 551 893 711 893 z "},"∂":{"ha":765,"x_min":46,"x_max":713,"o":"m 343 593 q 474 561 417 593 q 560 479 532 529 q 497 717 558 632 q 306 801 435 801 q 133 761 214 801 l 97 885 q 332 939 190 939 q 617 810 521 939 q 713 475 713 682 q 692 295 713 379 q 631 140 672 211 q 519 28 590 69 q 354 -14 447 -14 q 132 69 218 -14 q 46 289 46 153 q 131 513 46 433 q 343 593 215 593 m 254 413 q 233 391 254 413 q 213 288 213 368 q 255 161 213 207 q 368 115 297 115 q 486 168 442 115 q 531 299 531 221 q 487 413 531 368 q 374 458 443 458 q 254 413 296 458 z "},"∆":{"ha":940,"x_min":31,"x_max":911,"o":"m 547 925 l 911 0 l 31 0 l 393 925 l 547 925 m 690 135 l 471 740 l 250 135 l 690 135 z "},"∏":{"ha":1117,"x_min":40,"x_max":1078,"o":"m 385 790 l 385 -247 l 215 -247 l 215 790 l 40 790 l 40 925 l 1078 925 l 1078 790 l 903 790 l 903 -247 l 733 -247 l 733 790 l 385 790 z "},"∑":{"ha":767,"x_min":65,"x_max":729,"o":"m 582 339 l 256 -112 l 729 -112 l 729 -247 l 65 -247 l 65 -112 l 392 339 l 65 790 l 65 925 l 729 925 l 729 790 l 256 790 l 582 339 z "},"−":{"ha":763,"x_min":69,"x_max":694,"o":"m 69 378 l 69 519 l 694 519 l 694 378 l 69 378 z "},"√":{"ha":943,"x_min":32,"x_max":883,"o":"m 82 260 l 32 389 l 319 500 l 500 25 l 719 925 l 883 925 l 606 -139 l 413 -139 l 226 315 l 82 260 z "},"∞":{"ha":1239,"x_min":60,"x_max":1181,"o":"m 619 343 q 325 199 490 199 q 133 267 207 199 q 60 449 60 335 q 133 631 60 563 q 325 699 207 699 q 619 554 490 699 q 915 699 751 699 q 1107 631 1033 699 q 1181 449 1181 563 q 1107 267 1181 335 q 915 199 1033 199 q 619 343 751 199 m 699 449 q 894 333 786 333 q 987 363 951 333 q 1022 449 1022 393 q 987 534 1022 504 q 894 564 951 564 q 699 449 786 564 m 540 449 q 344 564 456 564 q 253 534 288 564 q 218 449 218 504 q 253 363 218 393 q 344 333 288 333 q 540 449 456 333 z "},"∫":{"ha":499,"x_min":3,"x_max":468,"o":"m 318 731 l 318 -54 q 267 -205 318 -149 q 121 -261 217 -261 q 3 -243 57 -261 l 17 -122 q 75 -129 42 -129 q 149 -51 149 -129 l 149 733 q 199 890 149 842 q 350 939 250 939 q 468 919 425 939 l 456 799 q 389 807 425 807 q 335 789 351 807 q 318 731 318 771 z "},"≈":{"ha":808,"x_min":67,"x_max":749,"o":"m 554 482 q 397 529 497 482 q 274 571 311 571 q 224 561 247 571 q 184 541 200 551 q 138 506 168 531 l 67 596 q 283 704 168 704 q 312 702 297 704 q 337 697 326 700 q 363 689 347 694 q 387 680 379 683 q 413 668 394 676 q 439 657 432 660 q 470 643 446 654 q 503 628 494 632 q 528 621 511 625 q 560 617 544 617 q 683 671 617 617 l 749 575 q 554 482 663 482 m 554 193 q 397 240 492 193 q 274 281 314 281 q 208 265 236 281 q 138 215 181 250 l 67 307 q 283 415 169 415 q 315 413 300 415 q 348 405 331 411 q 375 395 365 399 q 408 381 385 392 q 439 367 431 371 q 470 353 446 364 q 503 338 494 342 q 528 331 511 335 q 560 326 544 326 q 683 381 617 326 l 749 285 q 554 193 663 193 z "},"≠":{"ha":758,"x_min":67,"x_max":692,"o":"m 67 531 l 67 672 l 415 672 l 482 804 l 638 804 l 571 672 l 692 672 l 692 531 l 499 531 l 415 367 l 692 367 l 692 225 l 344 225 l 276 93 l 122 93 l 189 225 l 67 225 l 67 367 l 260 367 l 343 531 l 67 531 z "},"≤":{"ha":760,"x_min":67,"x_max":693,"o":"m 693 219 l 68 428 l 68 568 l 693 776 l 693 626 l 251 497 l 693 369 l 693 219 m 693 0 l 67 0 l 67 133 l 693 133 l 693 0 z "},"≥":{"ha":760,"x_min":67,"x_max":693,"o":"m 692 428 l 67 219 l 67 369 l 508 497 l 67 626 l 67 776 l 692 568 l 692 428 m 693 133 l 693 0 l 67 0 l 67 133 l 693 133 z "},"◊":{"ha":832,"x_min":44,"x_max":788,"o":"m 504 925 l 788 463 l 504 0 l 328 0 l 44 463 l 328 925 l 504 925 m 222 463 l 415 140 l 608 463 l 415 785 l 222 463 z "},"":{"ha":503,"x_min":61,"x_max":442,"o":"m 442 476 q 389 344 442 399 q 251 290 336 290 q 114 344 167 290 q 61 476 61 399 q 114 609 61 556 q 251 663 167 663 q 389 609 336 663 q 442 476 442 556 z "},"ﬁ":{"ha":765,"x_min":31,"x_max":693,"o":"m 419 922 l 411 799 q 351 807 381 807 q 296 790 313 807 q 279 729 279 772 l 279 672 l 401 672 l 401 538 l 279 538 l 279 0 l 110 0 l 110 538 l 31 538 l 31 672 l 110 672 l 110 732 q 158 888 110 836 q 311 939 207 939 q 419 922 374 939 m 486 857 q 515 931 486 901 q 590 961 543 961 q 665 931 636 961 q 693 857 693 901 q 665 783 693 814 q 590 753 636 753 q 515 783 544 753 q 486 857 486 814 m 675 0 l 506 0 l 506 672 l 675 672 l 675 0 z "},"ﬂ":{"ha":810,"x_min":31,"x_max":785,"o":"m 425 922 l 417 799 q 351 807 381 807 q 297 790 314 807 q 279 729 279 772 l 279 672 l 401 672 l 401 538 l 279 538 l 279 0 l 110 0 l 110 538 l 31 538 l 31 672 l 110 672 l 110 732 q 158 888 110 836 q 311 939 207 939 q 425 922 372 939 m 785 4 q 676 -12 738 -12 q 547 36 586 -12 q 507 178 507 85 l 507 925 l 676 925 l 676 179 q 732 124 676 124 q 781 131 757 124 l 785 4 z "}}}
